<svg xmlns="http://www.w3.org/2000/svg" xmlns:xlink="http://www.w3.org/1999/xlink" width="500" zoomAndPan="magnify" viewBox="0 0 375 374.999991" height="500" preserveAspectRatio="xMidYMid meet" version="1.0"><defs><g/><clipPath id="4986f16380"><path d="M 6.875 6.875 L 368.125 6.875 L 368.125 368.125 L 6.875 368.125 Z M 6.875 6.875 " clip-rule="nonzero"/></clipPath><clipPath id="0e17435ed3"><path d="M 187.5 6.875 C 87.742188 6.875 6.875 87.742188 6.875 187.5 C 6.875 287.257812 87.742188 368.125 187.5 368.125 C 287.257812 368.125 368.125 287.257812 368.125 187.5 C 368.125 87.742188 287.257812 6.875 187.5 6.875 Z M 187.5 6.875 " clip-rule="nonzero"/></clipPath><clipPath id="e31fa95975"><path d="M 48.523438 187.5 L 300.851562 187.5 L 300.851562 215.1875 L 48.523438 215.1875 Z M 48.523438 187.5 " clip-rule="nonzero"/></clipPath><clipPath id="ae118b58ee"><path d="M 62.367188 187.5 L 286.960938 187.5 C 290.632812 187.5 294.152344 188.957031 296.75 191.554688 C 299.34375 194.152344 300.804688 197.671875 300.804688 201.34375 C 300.804688 205.015625 299.34375 208.535156 296.75 211.132812 C 294.152344 213.730469 290.632812 215.1875 286.960938 215.1875 L 62.367188 215.1875 C 58.695312 215.1875 55.175781 213.730469 52.578125 211.132812 C 49.984375 208.535156 48.523438 205.015625 48.523438 201.34375 C 48.523438 197.671875 49.984375 194.152344 52.578125 191.554688 C 55.175781 188.957031 58.695312 187.5 62.367188 187.5 Z M 62.367188 187.5 " clip-rule="nonzero"/></clipPath></defs><g clip-path="url(#4986f16380)"><g clip-path="url(#0e17435ed3)"><path fill="#ffffff" d="M 6.875 6.875 L 368.125 6.875 L 368.125 368.125 L 6.875 368.125 Z M 6.875 6.875 " fill-opacity="1" fill-rule="nonzero"/></g></g><path stroke-linecap="butt" transform="matrix(0.796661, 0, 0, 0.796661, 48.524188, -17.556909)" fill="none" stroke-linejoin="miter" d="M 197.503147 124.261692 C 195.703643 126.556426 193.506974 128.802128 190.913139 130.998797 C 188.71647 132.896366 185.99515 134.892001 182.754083 136.990605 C 179.508112 139.084305 175.742393 140.981874 171.447121 142.678408 C 172.844555 140.883808 172.972041 138.961723 171.824673 136.917055 C 170.672403 134.867485 168.152117 132.999335 164.258913 131.297897 C 160.36571 129.601363 155.099588 128.203928 148.465451 127.105594 C 141.826411 126.007259 133.716387 125.458092 124.130476 125.458092 C 118.540738 125.458092 112.524414 126.031775 106.086408 127.184046 C 99.648403 128.331413 93.283946 130.302532 86.997942 133.097401 C 80.707035 135.89227 74.641678 139.608956 68.801873 144.252361 C 62.962067 148.895767 57.798914 154.681636 53.30751 161.619776 C 48.816107 168.557916 45.246519 176.795426 42.598748 186.3274 C 39.955881 195.859375 38.631996 206.867237 38.631996 219.346083 C 38.631996 231.824929 40.152012 242.803371 43.196949 252.286313 C 46.241885 261.769255 50.28709 269.928312 55.327661 276.768386 C 60.368232 283.608461 66.134489 289.296265 72.621527 293.836701 C 79.108566 298.382041 85.747606 302.025178 92.538648 304.771014 C 99.324786 307.516851 105.988343 309.434033 112.524414 310.532367 C 119.065388 311.630702 124.978743 312.179869 130.269382 312.179869 C 136.359254 312.081803 142.699194 311.630702 149.289202 310.831467 C 154.977006 310.135202 161.243397 309.110416 168.078568 307.762014 C 174.918642 306.418516 181.631232 304.447398 188.216336 301.84866 C 178.537263 309.635067 169.549552 315.572938 161.267913 319.667176 C 152.981371 323.761415 145.695098 326.806351 139.404191 328.801986 C 132.117918 331.09672 125.429845 332.396089 119.339972 332.695189 C 104.566392 332.695189 90.641079 330.523037 77.564033 326.183635 C 64.486987 321.839329 53.032927 315.548422 43.196949 307.315816 C 33.365874 299.078307 25.603983 288.972648 19.916179 276.993937 C 14.223471 265.015226 11.379569 251.389013 11.379569 236.115298 C 11.379569 226.632356 12.27687 217.821163 14.076373 209.686623 C 15.870973 201.552083 18.24416 194.089291 21.186128 187.303153 C 24.132999 180.512111 27.452519 174.397722 31.144688 168.959985 C 34.836857 163.517345 38.607479 158.726841 42.45165 154.583571 C 46.295821 150.4403 50.037023 146.973681 53.68016 144.178812 C 57.323296 141.383943 60.495718 139.236306 63.187618 137.740806 C 65.786356 136.240403 69.100973 134.543868 73.146178 132.646299 C 77.191384 130.74873 81.628851 128.831548 86.473291 126.884946 C 91.312828 124.938344 96.431851 123.016259 101.820555 121.11869 C 107.209259 119.221121 112.700932 117.524586 118.29067 116.029086 C 123.880409 114.528682 129.347565 113.332282 134.687236 112.434982 C 140.026907 111.532779 145.096898 111.08658 149.887402 111.08658 C 160.566744 111.08658 169.201419 111.586715 175.791426 112.58208 C 182.37653 113.582349 187.392585 114.803266 190.83959 116.249733 C 194.281692 117.701104 196.429329 119.172088 197.277596 120.667588 C 198.125863 122.167991 198.199412 123.364392 197.503147 124.261692 Z M 197.503147 124.261692 " stroke="#ffffff" stroke-width="23.000025" stroke-opacity="1" stroke-miterlimit="4"/><g fill="#004aad" fill-opacity="1"><g transform="translate(48.524188, 245.34113)"><g><path d="M 157.34375 -163.890625 C 155.90625 -162.066406 154.15625 -160.28125 152.09375 -158.53125 C 150.34375 -157.019531 148.175781 -155.425781 145.59375 -153.75 C 143.007812 -152.082031 140.003906 -150.570312 136.578125 -149.21875 C 137.691406 -150.65625 137.789062 -152.1875 136.875 -153.8125 C 135.96875 -155.445312 133.960938 -156.9375 130.859375 -158.28125 C 127.753906 -159.632812 123.554688 -160.75 118.265625 -161.625 C 112.984375 -162.5 106.523438 -162.9375 98.890625 -162.9375 C 94.429688 -162.9375 89.632812 -162.476562 84.5 -161.5625 C 79.375 -160.65625 74.304688 -159.085938 69.296875 -156.859375 C 64.296875 -154.628906 59.46875 -151.664062 54.8125 -147.96875 C 50.15625 -144.269531 46.035156 -139.65625 42.453125 -134.125 C 38.878906 -128.601562 36.039062 -122.046875 33.9375 -114.453125 C 31.832031 -106.859375 30.78125 -98.09375 30.78125 -88.15625 C 30.78125 -78.207031 31.988281 -69.457031 34.40625 -61.90625 C 36.832031 -54.351562 40.050781 -47.851562 44.0625 -42.40625 C 48.082031 -36.957031 52.675781 -32.421875 57.84375 -28.796875 C 63.019531 -25.179688 68.3125 -22.28125 73.71875 -20.09375 C 79.125 -17.90625 84.429688 -16.375 89.640625 -15.5 C 94.847656 -14.625 99.5625 -14.1875 103.78125 -14.1875 C 108.632812 -14.269531 113.679688 -14.628906 118.921875 -15.265625 C 123.460938 -15.828125 128.453125 -16.644531 133.890625 -17.71875 C 139.335938 -18.789062 144.6875 -20.359375 149.9375 -22.421875 C 142.226562 -16.222656 135.070312 -11.492188 128.46875 -8.234375 C 121.863281 -4.972656 116.0625 -2.546875 111.0625 -0.953125 C 105.25 0.878906 99.921875 1.910156 95.078125 2.140625 C 83.304688 2.140625 72.207031 0.410156 61.78125 -3.046875 C 51.363281 -6.503906 42.238281 -11.507812 34.40625 -18.0625 C 26.582031 -24.625 20.398438 -32.675781 15.859375 -42.21875 C 11.328125 -51.769531 9.0625 -62.628906 9.0625 -74.796875 C 9.0625 -82.347656 9.773438 -89.363281 11.203125 -95.84375 C 12.640625 -102.320312 14.53125 -108.265625 16.875 -113.671875 C 19.21875 -119.085938 21.859375 -123.960938 24.796875 -128.296875 C 27.742188 -132.628906 30.75 -136.441406 33.8125 -139.734375 C 36.875 -143.035156 39.859375 -145.800781 42.765625 -148.03125 C 45.671875 -150.257812 48.195312 -151.96875 50.34375 -153.15625 C 52.40625 -154.351562 55.046875 -155.707031 58.265625 -157.21875 C 61.492188 -158.726562 65.035156 -160.257812 68.890625 -161.8125 C 72.742188 -163.363281 76.816406 -164.894531 81.109375 -166.40625 C 85.410156 -167.914062 89.785156 -169.265625 94.234375 -170.453125 C 98.691406 -171.648438 103.046875 -172.601562 107.296875 -173.3125 C 111.546875 -174.03125 115.582031 -174.390625 119.40625 -174.390625 C 127.914062 -174.390625 134.796875 -173.992188 140.046875 -173.203125 C 145.296875 -172.410156 149.289062 -171.4375 152.03125 -170.28125 C 154.769531 -169.125 156.476562 -167.945312 157.15625 -166.75 C 157.832031 -165.5625 157.894531 -164.609375 157.34375 -163.890625 Z M 157.34375 -163.890625 "/></g></g></g><path stroke-linecap="butt" transform="matrix(0.638842, 0, 0, 0.638842, 150.087489, 70.720805)" fill="none" stroke-linejoin="miter" d="M 86.549376 107.044642 C 81.853383 110.138617 77.640441 112.706739 73.892206 114.755121 C 70.150087 116.797389 66.58529 118.521699 63.191701 119.921937 C 62.98992 128.5068 62.788139 136.467976 62.592472 143.805466 C 62.390691 151.142955 62.213369 158.052425 62.066619 164.539988 C 61.913755 171.027552 61.791463 177.166585 61.69363 182.957087 C 61.589682 188.74759 61.491849 194.336311 61.394016 199.729366 C 66.683123 198.628742 72.174011 198.084545 77.860565 198.084545 C 83.351454 198.084545 89.716726 198.15792 96.956382 198.30467 C 104.189924 198.457534 111.704736 198.659315 119.48859 198.903898 C 127.278558 199.154596 135.111328 199.356377 142.99913 199.503126 C 150.886931 199.655991 158.224421 199.729366 165.011599 199.729366 L 172.049474 199.729366 L 172.049474 125.162127 C 168.955499 125.461741 165.182807 125.83473 160.743625 126.281094 C 156.29833 126.733573 151.284378 127.35726 145.695657 128.158269 C 151.082597 123.76189 155.925341 120.441676 160.217772 118.197627 C 164.510203 115.953578 168.203407 114.278184 171.297381 113.183675 C 174.892751 111.985219 178.084559 111.288157 180.87892 111.086376 C 184.47429 111.086376 188.369274 110.988543 192.563872 110.786762 C 196.752356 110.584981 200.849121 110.309825 204.841938 109.961295 C 208.834755 109.612764 212.448469 109.190858 215.695308 108.689463 C 218.942147 108.188068 221.357404 107.643871 222.959423 107.044642 C 218.26343 110.138617 214.050488 112.706739 210.302253 114.755121 C 206.560134 116.797389 202.995337 118.521699 199.595633 119.921937 C 199.100352 138.088338 198.702905 154.310305 198.403291 168.581722 C 198.103677 182.859254 197.828521 195.510309 197.577823 206.541002 C 197.327126 217.571695 197.125345 227.128775 196.978595 235.218357 C 196.825731 243.301825 196.703439 250.192951 196.605606 255.879505 C 196.305992 269.258194 196.202044 278.338338 196.305992 283.132164 C 196.202044 286.825368 195.706764 290.469654 194.807921 294.065024 C 194.006912 297.158999 192.808455 300.479213 191.212551 304.019552 C 189.616647 307.566005 187.317567 310.782271 184.32754 313.68058 C 186.125225 313.876246 187.867879 314.004652 189.567731 314.053569 C 191.261468 314.102485 192.961319 314.126944 194.655057 314.126944 C 199.35105 314.126944 203.563992 313.900704 207.312226 313.45434 C 211.054346 313.007976 214.295071 312.53104 217.040515 312.029644 C 219.785959 311.534364 221.956633 311.032969 223.558651 310.531574 C 225.154555 310.036293 226.151231 309.687762 226.548678 309.485981 C 221.259571 313.081351 216.869307 316.175326 213.37177 318.767906 C 209.880348 321.3666 206.737456 323.488357 203.943096 325.133178 C 201.148735 326.777999 198.427749 328.000914 195.780138 328.801923 C 193.132528 329.602932 190.014094 330.000379 186.418725 330.000379 C 181.631013 330.000379 177.56482 329.798599 174.220148 329.401151 C 170.875476 329.003704 167.506345 328.801923 164.112756 328.801923 C 162.412904 328.801923 160.694709 328.875298 158.94594 329.028162 C 157.197172 329.174912 155.228279 329.498984 153.033147 330.000379 C 156.224955 328.502309 159.019315 326.930863 161.416229 325.286042 C 163.813142 323.635107 165.782035 321.342142 167.329022 318.394917 C 168.87601 315.447692 170.050008 311.558822 170.851017 306.716079 C 171.645912 301.873336 172.049474 295.41023 172.049474 287.326763 L 172.049474 209.463769 C 169.151166 210.062997 165.910441 210.558277 162.315071 210.961839 C 158.719701 211.359287 154.580134 211.561068 149.884141 211.561068 C 143.396577 211.561068 135.80839 211.359287 127.125694 210.961839 C 118.442998 210.558277 108.959292 210.362611 98.674578 210.362611 C 92.584461 210.362611 86.42097 210.509361 80.184104 210.808975 C 73.947238 211.108589 67.581965 211.609984 61.094402 212.307046 C 60.69084 226.982025 60.415684 238.91156 60.268934 248.095651 C 60.122184 257.279743 59.993778 264.464368 59.895945 269.655642 C 59.791997 275.745758 59.743081 280.239971 59.743081 283.132164 C 59.645247 286.825368 59.143852 290.469654 58.24501 294.065024 C 57.450115 297.158999 56.251658 300.479213 54.655754 304.019552 C 53.053736 307.566005 50.76077 310.782271 47.764629 313.68058 C 49.660147 313.876246 51.457832 314.004652 53.157684 314.053569 C 54.851421 314.102485 56.551273 314.126944 58.24501 314.126944 C 62.941003 314.126944 67.153945 313.900704 70.902179 313.45434 C 74.644299 313.007976 77.885024 312.53104 80.630468 312.029644 C 83.375912 311.534364 85.546586 311.032969 87.148604 310.531574 C 88.744508 310.036293 89.741184 309.687762 90.138631 309.485981 C 84.849524 313.081351 80.45926 316.175326 76.961723 318.767906 C 73.470301 321.3666 70.327409 323.488357 67.533049 325.133178 C 64.738688 326.777999 62.017702 328.000914 59.370092 328.801923 C 56.722481 329.602932 53.604048 330.000379 50.014792 330.000379 C 45.220966 330.000379 41.130315 329.798599 37.730612 329.401151 C 34.337023 329.003704 30.943434 328.801923 27.549845 328.801923 C 25.856108 328.801923 24.131798 328.875298 22.383029 329.028162 C 20.640375 329.174912 18.714284 329.498984 16.6231 330.000379 C 19.417461 327.603466 21.961124 324.986428 24.260204 322.137036 C 26.553169 319.293759 28.522062 315.826795 30.172997 311.73003 C 31.817818 307.63938 33.08965 302.74772 33.988492 297.055051 C 34.887335 291.368497 35.339813 284.477371 35.339813 276.393903 L 35.339813 216.801258 C 33.040733 217.296539 30.796684 217.84685 28.601552 218.446079 C 26.406419 219.045307 24.205173 219.742369 22.01004 220.543378 C 24.205173 218.543912 26.406419 216.69731 28.601552 215.003573 C 30.796684 213.303721 33.040733 211.658901 35.339813 210.062997 L 35.339813 125.162127 C 32.245838 125.461741 28.497604 125.83473 24.107339 126.281094 C 19.717075 126.733573 14.721467 127.35726 9.132746 128.158269 C 14.525801 123.76189 19.393002 120.441676 23.73435 118.197627 C 28.075698 115.953578 31.79336 114.278184 34.887335 113.183675 C 38.482704 111.985219 41.674512 111.288157 44.468873 111.086376 C 47.96641 111.086376 51.830821 110.988543 56.074336 110.786762 C 60.317851 110.584981 64.414616 110.309825 68.352402 109.961295 C 72.296302 109.612764 75.916131 109.190858 79.211886 108.689463 C 82.507642 108.188068 84.947358 107.643871 86.549376 107.044642 Z M 90.138631 309.485981 L 90.138631 309.339232 C 90.242579 309.235284 90.340412 309.186367 90.438246 309.186367 Z M 226.548678 309.485981 L 226.548678 309.339232 L 226.701543 309.339232 C 226.799376 309.235284 226.903324 309.186367 227.001157 309.186367 Z M 226.548678 309.485981 " stroke="#ffffff" stroke-width="23.000025" stroke-opacity="1" stroke-miterlimit="4"/><g fill="#004aad" fill-opacity="1"><g transform="translate(150.087489, 281.53882)"><g><path d="M 55.296875 -142.4375 C 52.296875 -140.457031 49.597656 -138.8125 47.203125 -137.5 C 44.816406 -136.195312 42.539062 -135.097656 40.375 -134.203125 C 40.238281 -128.722656 40.109375 -123.640625 39.984375 -118.953125 C 39.859375 -114.265625 39.742188 -109.847656 39.640625 -105.703125 C 39.546875 -101.554688 39.46875 -97.632812 39.40625 -93.9375 C 39.34375 -90.238281 39.28125 -86.664062 39.21875 -83.21875 C 42.601562 -83.925781 46.109375 -84.28125 49.734375 -84.28125 C 53.242188 -84.28125 57.3125 -84.226562 61.9375 -84.125 C 66.5625 -84.03125 71.359375 -83.90625 76.328125 -83.75 C 81.304688 -83.59375 86.3125 -83.460938 91.34375 -83.359375 C 96.382812 -83.265625 101.078125 -83.21875 105.421875 -83.21875 L 109.90625 -83.21875 L 109.90625 -130.859375 C 107.925781 -130.671875 105.519531 -130.429688 102.6875 -130.140625 C 99.851562 -129.859375 96.648438 -129.460938 93.078125 -128.953125 C 96.515625 -131.753906 99.601562 -133.867188 102.34375 -135.296875 C 105.09375 -136.734375 107.457031 -137.804688 109.4375 -138.515625 C 111.726562 -139.273438 113.765625 -139.71875 115.546875 -139.84375 C 117.847656 -139.84375 120.335938 -139.90625 123.015625 -140.03125 C 125.691406 -140.164062 128.304688 -140.34375 130.859375 -140.5625 C 133.410156 -140.789062 135.722656 -141.0625 137.796875 -141.375 C 139.867188 -141.695312 141.414062 -142.050781 142.4375 -142.4375 C 139.4375 -140.457031 136.738281 -138.8125 134.34375 -137.5 C 131.957031 -136.195312 129.679688 -135.097656 127.515625 -134.203125 C 127.191406 -122.597656 126.929688 -112.234375 126.734375 -103.109375 C 126.546875 -93.992188 126.375 -85.910156 126.21875 -78.859375 C 126.0625 -71.816406 125.929688 -65.710938 125.828125 -60.546875 C 125.734375 -55.378906 125.65625 -50.976562 125.59375 -47.34375 C 125.40625 -38.800781 125.34375 -33 125.40625 -29.9375 C 125.34375 -27.582031 125.023438 -25.253906 124.453125 -22.953125 C 123.941406 -20.984375 123.175781 -18.863281 122.15625 -16.59375 C 121.132812 -14.332031 119.664062 -12.273438 117.75 -10.421875 C 118.894531 -10.296875 120.007812 -10.21875 121.09375 -10.1875 C 122.1875 -10.15625 123.273438 -10.140625 124.359375 -10.140625 C 127.347656 -10.140625 130.039062 -10.28125 132.4375 -10.5625 C 134.832031 -10.851562 136.90625 -11.15625 138.65625 -11.46875 C 140.40625 -11.789062 141.789062 -12.109375 142.8125 -12.421875 C 143.832031 -12.742188 144.472656 -12.972656 144.734375 -13.109375 C 141.347656 -10.804688 138.539062 -8.828125 136.3125 -7.171875 C 134.082031 -5.515625 132.070312 -4.160156 130.28125 -3.109375 C 128.5 -2.054688 126.757812 -1.273438 125.0625 -0.765625 C 123.375 -0.253906 121.382812 0 119.09375 0 C 116.03125 0 113.429688 -0.125 111.296875 -0.375 C 109.160156 -0.632812 107.007812 -0.765625 104.84375 -0.765625 C 103.757812 -0.765625 102.65625 -0.71875 101.53125 -0.625 C 100.414062 -0.53125 99.160156 -0.320312 97.765625 0 C 99.804688 -0.957031 101.59375 -1.960938 103.125 -3.015625 C 104.65625 -4.066406 105.910156 -5.53125 106.890625 -7.40625 C 107.878906 -9.289062 108.628906 -11.78125 109.140625 -14.875 C 109.648438 -17.96875 109.90625 -22.097656 109.90625 -27.265625 L 109.90625 -77 C 108.0625 -76.625 105.988281 -76.304688 103.6875 -76.046875 C 101.394531 -75.796875 98.75 -75.671875 95.75 -75.671875 C 91.601562 -75.671875 86.753906 -75.796875 81.203125 -76.046875 C 75.660156 -76.304688 69.601562 -76.4375 63.03125 -76.4375 C 59.144531 -76.4375 55.207031 -76.335938 51.21875 -76.140625 C 47.238281 -75.953125 43.175781 -75.632812 39.03125 -75.1875 C 38.769531 -65.8125 38.59375 -58.191406 38.5 -52.328125 C 38.40625 -46.460938 38.328125 -41.867188 38.265625 -38.546875 C 38.203125 -34.660156 38.171875 -31.789062 38.171875 -29.9375 C 38.109375 -27.582031 37.785156 -25.253906 37.203125 -22.953125 C 36.703125 -20.984375 35.941406 -18.863281 34.921875 -16.59375 C 33.898438 -14.332031 32.429688 -12.273438 30.515625 -10.421875 C 31.722656 -10.296875 32.867188 -10.21875 33.953125 -10.1875 C 35.035156 -10.15625 36.117188 -10.140625 37.203125 -10.140625 C 40.203125 -10.140625 42.894531 -10.28125 45.28125 -10.5625 C 47.675781 -10.851562 49.75 -11.15625 51.5 -11.46875 C 53.257812 -11.789062 54.648438 -12.109375 55.671875 -12.421875 C 56.691406 -12.742188 57.328125 -12.972656 57.578125 -13.109375 C 54.203125 -10.804688 51.394531 -8.828125 49.15625 -7.171875 C 46.925781 -5.515625 44.921875 -4.160156 43.140625 -3.109375 C 41.359375 -2.054688 39.617188 -1.273438 37.921875 -0.765625 C 36.234375 -0.253906 34.242188 0 31.953125 0 C 28.890625 0 26.273438 -0.125 24.109375 -0.375 C 21.941406 -0.632812 19.769531 -0.765625 17.59375 -0.765625 C 16.507812 -0.765625 15.410156 -0.71875 14.296875 -0.625 C 13.179688 -0.53125 11.957031 -0.320312 10.625 0 C 12.40625 -1.53125 14.03125 -3.203125 15.5 -5.015625 C 16.96875 -6.835938 18.226562 -9.054688 19.28125 -11.671875 C 20.332031 -14.285156 21.144531 -17.410156 21.71875 -21.046875 C 22.289062 -24.679688 22.578125 -29.082031 22.578125 -34.25 L 22.578125 -72.3125 C 21.109375 -72 19.671875 -71.648438 18.265625 -71.265625 C 16.867188 -70.878906 15.46875 -70.429688 14.0625 -69.921875 C 15.46875 -71.203125 16.867188 -72.382812 18.265625 -73.46875 C 19.671875 -74.550781 21.109375 -75.601562 22.578125 -76.625 L 22.578125 -130.859375 C 20.597656 -130.671875 18.203125 -130.429688 15.390625 -130.140625 C 12.585938 -129.859375 9.398438 -129.460938 5.828125 -128.953125 C 9.273438 -131.753906 12.382812 -133.867188 15.15625 -135.296875 C 17.9375 -136.734375 20.3125 -137.804688 22.28125 -138.515625 C 24.582031 -139.273438 26.625 -139.71875 28.40625 -139.84375 C 30.644531 -139.84375 33.117188 -139.90625 35.828125 -140.03125 C 38.535156 -140.164062 41.148438 -140.34375 43.671875 -140.5625 C 46.191406 -140.789062 48.503906 -141.0625 50.609375 -141.375 C 52.710938 -141.695312 54.273438 -142.050781 55.296875 -142.4375 Z M 57.578125 -13.109375 L 57.578125 -13.203125 C 57.648438 -13.265625 57.71875 -13.296875 57.78125 -13.296875 Z M 144.734375 -13.109375 L 144.734375 -13.203125 L 144.828125 -13.203125 C 144.890625 -13.265625 144.953125 -13.296875 145.015625 -13.296875 Z M 144.734375 -13.109375 "/></g></g></g><g clip-path="url(#e31fa95975)"><g clip-path="url(#ae118b58ee)"><path fill="#ffffff" d="M 48.523438 187.5 L 300.851562 187.5 L 300.851562 215.1875 L 48.523438 215.1875 Z M 48.523438 187.5 " fill-opacity="1" fill-rule="nonzero"/></g></g><g fill="#004aad" fill-opacity="1"><g transform="translate(88.046371, 208.315204)"><g><path d="M 14.078125 -14.671875 C 13.953125 -14.503906 13.796875 -14.34375 13.609375 -14.1875 C 13.453125 -14.050781 13.257812 -13.90625 13.03125 -13.75 C 12.800781 -13.601562 12.53125 -13.472656 12.21875 -13.359375 C 12.320312 -13.484375 12.332031 -13.617188 12.25 -13.765625 C 12.164062 -13.910156 11.984375 -14.039062 11.703125 -14.15625 C 11.429688 -14.28125 11.054688 -14.378906 10.578125 -14.453125 C 10.109375 -14.535156 9.53125 -14.578125 8.84375 -14.578125 C 8.445312 -14.578125 8.019531 -14.535156 7.5625 -14.453125 C 7.101562 -14.367188 6.648438 -14.226562 6.203125 -14.03125 C 5.753906 -13.832031 5.320312 -13.566406 4.90625 -13.234375 C 4.488281 -12.910156 4.117188 -12.5 3.796875 -12 C 3.472656 -11.507812 3.21875 -10.921875 3.03125 -10.234375 C 2.84375 -9.554688 2.75 -8.773438 2.75 -7.890625 C 2.75 -6.992188 2.859375 -6.207031 3.078125 -5.53125 C 3.296875 -4.863281 3.582031 -4.285156 3.9375 -3.796875 C 4.300781 -3.304688 4.710938 -2.898438 5.171875 -2.578125 C 5.640625 -2.253906 6.113281 -1.992188 6.59375 -1.796875 C 7.082031 -1.597656 7.554688 -1.457031 8.015625 -1.375 C 8.484375 -1.300781 8.90625 -1.265625 9.28125 -1.265625 C 9.71875 -1.273438 10.171875 -1.304688 10.640625 -1.359375 C 11.046875 -1.410156 11.492188 -1.484375 11.984375 -1.578125 C 12.472656 -1.679688 12.953125 -1.820312 13.421875 -2 C 12.722656 -1.445312 12.078125 -1.023438 11.484375 -0.734375 C 10.898438 -0.441406 10.382812 -0.222656 9.9375 -0.078125 C 9.414062 0.078125 8.9375 0.164062 8.5 0.1875 C 7.445312 0.1875 6.453125 0.0351562 5.515625 -0.265625 C 4.585938 -0.578125 3.773438 -1.023438 3.078125 -1.609375 C 2.378906 -2.203125 1.828125 -2.925781 1.421875 -3.78125 C 1.015625 -4.632812 0.8125 -5.601562 0.8125 -6.6875 C 0.8125 -7.363281 0.875 -7.992188 1 -8.578125 C 1.132812 -9.160156 1.304688 -9.691406 1.515625 -10.171875 C 1.722656 -10.648438 1.957031 -11.082031 2.21875 -11.46875 C 2.476562 -11.863281 2.742188 -12.207031 3.015625 -12.5 C 3.296875 -12.800781 3.566406 -13.050781 3.828125 -13.25 C 4.085938 -13.445312 4.3125 -13.597656 4.5 -13.703125 C 4.6875 -13.804688 4.921875 -13.925781 5.203125 -14.0625 C 5.492188 -14.195312 5.8125 -14.332031 6.15625 -14.46875 C 6.507812 -14.613281 6.875 -14.753906 7.25 -14.890625 C 7.632812 -15.023438 8.023438 -15.144531 8.421875 -15.25 C 8.828125 -15.351562 9.21875 -15.4375 9.59375 -15.5 C 9.976562 -15.570312 10.34375 -15.609375 10.6875 -15.609375 C 11.445312 -15.609375 12.0625 -15.570312 12.53125 -15.5 C 13 -15.425781 13.351562 -15.335938 13.59375 -15.234375 C 13.84375 -15.128906 14 -15.023438 14.0625 -14.921875 C 14.125 -14.816406 14.128906 -14.734375 14.078125 -14.671875 Z M 14.078125 -14.671875 "/></g></g></g><g fill="#004aad" fill-opacity="1"><g transform="translate(103.915873, 208.315204)"><g><path d="M 16.015625 -8.28125 C 16.015625 -7.375 15.863281 -6.535156 15.5625 -5.765625 C 15.269531 -5.003906 14.878906 -4.304688 14.390625 -3.671875 C 13.898438 -3.035156 13.335938 -2.472656 12.703125 -1.984375 C 12.078125 -1.503906 11.429688 -1.097656 10.765625 -0.765625 C 10.109375 -0.429688 9.460938 -0.175781 8.828125 0 C 8.203125 0.164062 7.632812 0.25 7.125 0.25 C 6.695312 0.25 6.242188 0.179688 5.765625 0.046875 C 5.296875 -0.0859375 4.828125 -0.28125 4.359375 -0.53125 C 3.890625 -0.789062 3.441406 -1.113281 3.015625 -1.5 C 2.585938 -1.894531 2.210938 -2.347656 1.890625 -2.859375 C 1.566406 -3.367188 1.304688 -3.9375 1.109375 -4.5625 C 0.921875 -5.1875 0.828125 -5.875 0.828125 -6.625 C 0.828125 -7.625 0.96875 -8.535156 1.25 -9.359375 C 1.53125 -10.179688 1.898438 -10.921875 2.359375 -11.578125 C 2.816406 -12.242188 3.335938 -12.820312 3.921875 -13.3125 C 4.503906 -13.800781 5.101562 -14.207031 5.71875 -14.53125 C 6.34375 -14.851562 6.953125 -15.09375 7.546875 -15.25 C 8.140625 -15.414062 8.675781 -15.5 9.15625 -15.5 C 9.664062 -15.5 10.1875 -15.441406 10.71875 -15.328125 C 11.25 -15.222656 11.769531 -15.050781 12.28125 -14.8125 C 12.789062 -14.582031 13.269531 -14.28125 13.71875 -13.90625 C 14.175781 -13.539062 14.570312 -13.085938 14.90625 -12.546875 C 15.25 -12.015625 15.519531 -11.394531 15.71875 -10.6875 C 15.914062 -9.976562 16.015625 -9.175781 16.015625 -8.28125 Z M 14.078125 -7.625 C 14.078125 -8.414062 13.976562 -9.128906 13.78125 -9.765625 C 13.59375 -10.398438 13.335938 -10.960938 13.015625 -11.453125 C 12.691406 -11.953125 12.316406 -12.378906 11.890625 -12.734375 C 11.472656 -13.097656 11.035156 -13.394531 10.578125 -13.625 C 10.117188 -13.863281 9.648438 -14.035156 9.171875 -14.140625 C 8.703125 -14.253906 8.257812 -14.3125 7.84375 -14.3125 C 7.175781 -14.3125 6.53125 -14.1875 5.90625 -13.9375 C 5.28125 -13.6875 4.722656 -13.289062 4.234375 -12.75 C 3.742188 -12.207031 3.351562 -11.515625 3.0625 -10.671875 C 2.769531 -9.828125 2.625 -8.8125 2.625 -7.625 C 2.625 -6.84375 2.738281 -6.132812 2.96875 -5.5 C 3.195312 -4.875 3.492188 -4.320312 3.859375 -3.84375 C 4.234375 -3.363281 4.648438 -2.953125 5.109375 -2.609375 C 5.578125 -2.273438 6.050781 -2 6.53125 -1.78125 C 7.019531 -1.570312 7.488281 -1.414062 7.9375 -1.3125 C 8.382812 -1.207031 8.773438 -1.15625 9.109375 -1.15625 C 9.441406 -1.15625 9.796875 -1.207031 10.171875 -1.3125 C 10.546875 -1.414062 10.914062 -1.570312 11.28125 -1.78125 C 11.65625 -2 12.007812 -2.28125 12.34375 -2.625 C 12.675781 -2.96875 12.972656 -3.375 13.234375 -3.84375 C 13.492188 -4.320312 13.695312 -4.875 13.84375 -5.5 C 14 -6.132812 14.078125 -6.84375 14.078125 -7.625 Z M 14.078125 -7.625 "/></g></g></g><g fill="#004aad" fill-opacity="1"><g transform="translate(122.390063, 208.315204)"><g><path d="M 11.390625 -11.453125 C 11.328125 -10.921875 11.179688 -10.453125 10.953125 -10.046875 C 10.734375 -9.648438 10.460938 -9.296875 10.140625 -8.984375 C 9.816406 -8.679688 9.472656 -8.421875 9.109375 -8.203125 C 8.742188 -7.992188 8.394531 -7.816406 8.0625 -7.671875 C 8.695312 -6.992188 9.265625 -6.390625 9.765625 -5.859375 C 10.265625 -5.335938 10.707031 -4.875 11.09375 -4.46875 C 11.488281 -4.0625 11.828125 -3.710938 12.109375 -3.421875 C 12.398438 -3.128906 12.648438 -2.878906 12.859375 -2.671875 C 13.347656 -2.203125 13.6875 -1.890625 13.875 -1.734375 C 14.070312 -1.578125 14.285156 -1.46875 14.515625 -1.40625 C 14.753906 -1.34375 14.984375 -1.3125 15.203125 -1.3125 C 15.390625 -1.3125 15.566406 -1.328125 15.734375 -1.359375 C 15.910156 -1.398438 16.050781 -1.441406 16.15625 -1.484375 C 15.8125 -1.253906 15.507812 -1.046875 15.25 -0.859375 C 14.988281 -0.679688 14.75 -0.523438 14.53125 -0.390625 C 14.3125 -0.253906 14.101562 -0.148438 13.90625 -0.078125 C 13.71875 -0.015625 13.519531 0.015625 13.3125 0.015625 C 13.164062 0.015625 13.023438 -0.00390625 12.890625 -0.046875 C 12.753906 -0.0859375 12.609375 -0.15625 12.453125 -0.25 C 12.296875 -0.34375 12.128906 -0.457031 11.953125 -0.59375 C 11.785156 -0.738281 11.597656 -0.910156 11.390625 -1.109375 C 11.253906 -1.242188 11.050781 -1.460938 10.78125 -1.765625 C 10.507812 -2.066406 10.207031 -2.40625 9.875 -2.78125 C 9.539062 -3.15625 9.191406 -3.546875 8.828125 -3.953125 C 8.460938 -4.359375 8.117188 -4.734375 7.796875 -5.078125 C 7.484375 -5.421875 7.203125 -5.71875 6.953125 -5.96875 C 6.703125 -6.21875 6.535156 -6.367188 6.453125 -6.421875 C 6.335938 -6.484375 6.222656 -6.539062 6.109375 -6.59375 C 6.003906 -6.632812 5.882812 -6.671875 5.75 -6.703125 C 5.625 -6.734375 5.5 -6.742188 5.375 -6.734375 L 6.921875 -7.796875 C 7.273438 -7.796875 7.613281 -7.878906 7.9375 -8.046875 C 8.269531 -8.210938 8.550781 -8.453125 8.78125 -8.765625 C 9.019531 -9.085938 9.207031 -9.472656 9.34375 -9.921875 C 9.476562 -10.378906 9.535156 -10.894531 9.515625 -11.46875 C 9.492188 -11.8125 9.414062 -12.125 9.28125 -12.40625 C 9.144531 -12.6875 8.96875 -12.9375 8.75 -13.15625 C 8.53125 -13.375 8.28125 -13.566406 8 -13.734375 C 7.726562 -13.898438 7.445312 -14.035156 7.15625 -14.140625 C 6.863281 -14.253906 6.570312 -14.335938 6.28125 -14.390625 C 5.988281 -14.441406 5.722656 -14.46875 5.484375 -14.46875 C 5.316406 -14.46875 5.140625 -14.460938 4.953125 -14.453125 C 4.765625 -14.453125 4.570312 -14.453125 4.375 -14.453125 C 4.351562 -13.117188 4.328125 -11.925781 4.296875 -10.875 C 4.273438 -9.832031 4.253906 -8.90625 4.234375 -8.09375 C 4.210938 -7.289062 4.191406 -6.59375 4.171875 -6 C 4.160156 -5.414062 4.144531 -4.914062 4.125 -4.5 C 4.082031 -3.53125 4.039062 -2.878906 4 -2.546875 C 3.976562 -2.398438 3.941406 -2.253906 3.890625 -2.109375 C 3.847656 -1.972656 3.789062 -1.832031 3.71875 -1.6875 C 3.644531 -1.539062 3.550781 -1.394531 3.4375 -1.25 C 3.738281 -1.21875 4.007812 -1.195312 4.25 -1.1875 C 4.5 -1.1875 4.726562 -1.1875 4.9375 -1.1875 C 5.425781 -1.1875 5.785156 -1.195312 6.015625 -1.21875 C 6.253906 -1.25 6.390625 -1.273438 6.421875 -1.296875 C 6.054688 -1.109375 5.707031 -0.9375 5.375 -0.78125 C 5.050781 -0.625 4.738281 -0.484375 4.4375 -0.359375 C 4.132812 -0.242188 3.847656 -0.148438 3.578125 -0.078125 C 3.304688 -0.015625 3.039062 0.015625 2.78125 0.015625 L 0.921875 0.015625 L 1.859375 -0.609375 C 1.910156 -0.796875 1.957031 -1.015625 2 -1.265625 C 2.050781 -1.523438 2.09375 -1.800781 2.125 -2.09375 C 2.15625 -2.394531 2.179688 -2.703125 2.203125 -3.015625 C 2.234375 -3.328125 2.257812 -3.640625 2.28125 -3.953125 C 2.320312 -4.648438 2.351562 -5.394531 2.375 -6.1875 C 2.394531 -7.28125 2.410156 -8.332031 2.421875 -9.34375 C 2.429688 -9.78125 2.4375 -10.226562 2.4375 -10.6875 C 2.445312 -11.144531 2.453125 -11.59375 2.453125 -12.03125 C 2.460938 -12.46875 2.46875 -12.882812 2.46875 -13.28125 C 2.476562 -13.675781 2.484375 -14.023438 2.484375 -14.328125 L 0.5625 -14.1875 L 2.640625 -15.4375 C 2.765625 -15.414062 2.898438 -15.398438 3.046875 -15.390625 C 3.191406 -15.390625 3.34375 -15.390625 3.5 -15.390625 C 3.800781 -15.390625 4.101562 -15.398438 4.40625 -15.421875 C 4.707031 -15.453125 5.003906 -15.484375 5.296875 -15.515625 C 5.597656 -15.546875 5.890625 -15.570312 6.171875 -15.59375 C 6.453125 -15.625 6.738281 -15.640625 7.03125 -15.640625 C 7.601562 -15.640625 8.160156 -15.546875 8.703125 -15.359375 C 9.253906 -15.171875 9.738281 -14.894531 10.15625 -14.53125 C 10.570312 -14.164062 10.894531 -13.722656 11.125 -13.203125 C 11.363281 -12.679688 11.453125 -12.097656 11.390625 -11.453125 Z M 16.1875 -1.5 C 16.164062 -1.5 16.15625 -1.5 16.15625 -1.5 L 16.15625 -1.484375 L 16.15625 -1.5 C 16.164062 -1.5 16.175781 -1.5 16.1875 -1.5 Z M 16.1875 -1.5 "/></g></g></g><g fill="#004aad" fill-opacity="1"><g transform="translate(138.761288, 208.315204)"><g><path d="M 11.765625 -11.453125 C 11.710938 -10.972656 11.601562 -10.53125 11.4375 -10.125 C 11.269531 -9.726562 11.0625 -9.363281 10.8125 -9.03125 C 10.570312 -8.695312 10.3125 -8.398438 10.03125 -8.140625 C 9.75 -7.890625 9.472656 -7.664062 9.203125 -7.46875 C 8.929688 -7.269531 8.671875 -7.101562 8.421875 -6.96875 C 8.179688 -6.84375 7.988281 -6.742188 7.84375 -6.671875 C 7.632812 -6.578125 7.410156 -6.492188 7.171875 -6.421875 C 6.960938 -6.367188 6.722656 -6.316406 6.453125 -6.265625 C 6.179688 -6.210938 5.890625 -6.195312 5.578125 -6.21875 L 6.671875 -6.734375 C 7.078125 -6.703125 7.484375 -6.804688 7.890625 -7.046875 C 8.296875 -7.285156 8.65625 -7.617188 8.96875 -8.046875 C 9.28125 -8.484375 9.523438 -8.992188 9.703125 -9.578125 C 9.890625 -10.160156 9.957031 -10.789062 9.90625 -11.46875 C 9.863281 -11.988281 9.722656 -12.441406 9.484375 -12.828125 C 9.242188 -13.222656 8.957031 -13.554688 8.625 -13.828125 C 8.289062 -14.097656 7.925781 -14.304688 7.53125 -14.453125 C 7.144531 -14.597656 6.769531 -14.671875 6.40625 -14.671875 C 6.15625 -14.671875 5.851562 -14.660156 5.5 -14.640625 C 5.15625 -14.617188 4.785156 -14.59375 4.390625 -14.5625 C 4.367188 -13.21875 4.347656 -12.015625 4.328125 -10.953125 C 4.304688 -9.898438 4.285156 -8.960938 4.265625 -8.140625 C 4.242188 -7.328125 4.222656 -6.625 4.203125 -6.03125 C 4.179688 -5.4375 4.160156 -4.9375 4.140625 -4.53125 C 4.097656 -3.550781 4.0625 -2.890625 4.03125 -2.546875 C 4 -2.398438 3.960938 -2.253906 3.921875 -2.109375 C 3.878906 -1.972656 3.816406 -1.832031 3.734375 -1.6875 C 3.660156 -1.539062 3.566406 -1.394531 3.453125 -1.25 C 3.765625 -1.21875 4.039062 -1.195312 4.28125 -1.1875 C 4.53125 -1.1875 4.757812 -1.1875 4.96875 -1.1875 C 5.457031 -1.1875 5.816406 -1.195312 6.046875 -1.21875 C 6.273438 -1.25 6.410156 -1.273438 6.453125 -1.296875 C 6.078125 -1.109375 5.722656 -0.9375 5.390625 -0.78125 C 5.066406 -0.625 4.753906 -0.484375 4.453125 -0.359375 C 4.160156 -0.242188 3.875 -0.148438 3.59375 -0.078125 C 3.320312 -0.015625 3.054688 0.015625 2.796875 0.015625 L 0.9375 0.015625 L 1.875 -0.609375 C 1.925781 -0.796875 1.972656 -1.015625 2.015625 -1.265625 C 2.066406 -1.523438 2.109375 -1.800781 2.140625 -2.09375 C 2.179688 -2.394531 2.210938 -2.703125 2.234375 -3.015625 C 2.265625 -3.328125 2.289062 -3.640625 2.3125 -3.953125 C 2.351562 -4.648438 2.382812 -5.394531 2.40625 -6.1875 C 2.414062 -7.28125 2.425781 -8.34375 2.4375 -9.375 C 2.445312 -9.800781 2.453125 -10.242188 2.453125 -10.703125 C 2.460938 -11.171875 2.46875 -11.628906 2.46875 -12.078125 C 2.476562 -12.523438 2.488281 -12.941406 2.5 -13.328125 C 2.507812 -13.722656 2.515625 -14.078125 2.515625 -14.390625 L 0.59375 -14.1875 L 2.671875 -15.4375 C 2.867188 -15.414062 3.0625 -15.398438 3.25 -15.390625 C 3.445312 -15.390625 3.648438 -15.390625 3.859375 -15.390625 C 4.210938 -15.390625 4.550781 -15.398438 4.875 -15.421875 C 5.207031 -15.453125 5.53125 -15.484375 5.84375 -15.515625 C 6.164062 -15.546875 6.484375 -15.570312 6.796875 -15.59375 C 7.109375 -15.625 7.421875 -15.640625 7.734375 -15.640625 C 8.296875 -15.640625 8.832031 -15.546875 9.34375 -15.359375 C 9.863281 -15.171875 10.3125 -14.894531 10.6875 -14.53125 C 11.070312 -14.164062 11.363281 -13.722656 11.5625 -13.203125 C 11.757812 -12.679688 11.828125 -12.097656 11.765625 -11.453125 Z M 11.765625 -11.453125 "/></g></g></g><g fill="#004aad" fill-opacity="1"><g transform="translate(152.378376, 208.315204)"><g><path d="M 16.015625 -8.28125 C 16.015625 -7.375 15.863281 -6.535156 15.5625 -5.765625 C 15.269531 -5.003906 14.878906 -4.304688 14.390625 -3.671875 C 13.898438 -3.035156 13.335938 -2.472656 12.703125 -1.984375 C 12.078125 -1.503906 11.429688 -1.097656 10.765625 -0.765625 C 10.109375 -0.429688 9.460938 -0.175781 8.828125 0 C 8.203125 0.164062 7.632812 0.25 7.125 0.25 C 6.695312 0.25 6.242188 0.179688 5.765625 0.046875 C 5.296875 -0.0859375 4.828125 -0.28125 4.359375 -0.53125 C 3.890625 -0.789062 3.441406 -1.113281 3.015625 -1.5 C 2.585938 -1.894531 2.210938 -2.347656 1.890625 -2.859375 C 1.566406 -3.367188 1.304688 -3.9375 1.109375 -4.5625 C 0.921875 -5.1875 0.828125 -5.875 0.828125 -6.625 C 0.828125 -7.625 0.96875 -8.535156 1.25 -9.359375 C 1.53125 -10.179688 1.898438 -10.921875 2.359375 -11.578125 C 2.816406 -12.242188 3.335938 -12.820312 3.921875 -13.3125 C 4.503906 -13.800781 5.101562 -14.207031 5.71875 -14.53125 C 6.34375 -14.851562 6.953125 -15.09375 7.546875 -15.25 C 8.140625 -15.414062 8.675781 -15.5 9.15625 -15.5 C 9.664062 -15.5 10.1875 -15.441406 10.71875 -15.328125 C 11.25 -15.222656 11.769531 -15.050781 12.28125 -14.8125 C 12.789062 -14.582031 13.269531 -14.28125 13.71875 -13.90625 C 14.175781 -13.539062 14.570312 -13.085938 14.90625 -12.546875 C 15.25 -12.015625 15.519531 -11.394531 15.71875 -10.6875 C 15.914062 -9.976562 16.015625 -9.175781 16.015625 -8.28125 Z M 14.078125 -7.625 C 14.078125 -8.414062 13.976562 -9.128906 13.78125 -9.765625 C 13.59375 -10.398438 13.335938 -10.960938 13.015625 -11.453125 C 12.691406 -11.953125 12.316406 -12.378906 11.890625 -12.734375 C 11.472656 -13.097656 11.035156 -13.394531 10.578125 -13.625 C 10.117188 -13.863281 9.648438 -14.035156 9.171875 -14.140625 C 8.703125 -14.253906 8.257812 -14.3125 7.84375 -14.3125 C 7.175781 -14.3125 6.53125 -14.1875 5.90625 -13.9375 C 5.28125 -13.6875 4.722656 -13.289062 4.234375 -12.75 C 3.742188 -12.207031 3.351562 -11.515625 3.0625 -10.671875 C 2.769531 -9.828125 2.625 -8.8125 2.625 -7.625 C 2.625 -6.84375 2.738281 -6.132812 2.96875 -5.5 C 3.195312 -4.875 3.492188 -4.320312 3.859375 -3.84375 C 4.234375 -3.363281 4.648438 -2.953125 5.109375 -2.609375 C 5.578125 -2.273438 6.050781 -2 6.53125 -1.78125 C 7.019531 -1.570312 7.488281 -1.414062 7.9375 -1.3125 C 8.382812 -1.207031 8.773438 -1.15625 9.109375 -1.15625 C 9.441406 -1.15625 9.796875 -1.207031 10.171875 -1.3125 C 10.546875 -1.414062 10.914062 -1.570312 11.28125 -1.78125 C 11.65625 -2 12.007812 -2.28125 12.34375 -2.625 C 12.675781 -2.96875 12.972656 -3.375 13.234375 -3.84375 C 13.492188 -4.320312 13.695312 -4.875 13.84375 -5.5 C 14 -6.132812 14.078125 -6.84375 14.078125 -7.625 Z M 14.078125 -7.625 "/></g></g></g><g fill="#004aad" fill-opacity="1"><g transform="translate(170.852566, 208.315204)"><g><path d="M 11.390625 -11.453125 C 11.328125 -10.921875 11.179688 -10.453125 10.953125 -10.046875 C 10.734375 -9.648438 10.460938 -9.296875 10.140625 -8.984375 C 9.816406 -8.679688 9.472656 -8.421875 9.109375 -8.203125 C 8.742188 -7.992188 8.394531 -7.816406 8.0625 -7.671875 C 8.695312 -6.992188 9.265625 -6.390625 9.765625 -5.859375 C 10.265625 -5.335938 10.707031 -4.875 11.09375 -4.46875 C 11.488281 -4.0625 11.828125 -3.710938 12.109375 -3.421875 C 12.398438 -3.128906 12.648438 -2.878906 12.859375 -2.671875 C 13.347656 -2.203125 13.6875 -1.890625 13.875 -1.734375 C 14.070312 -1.578125 14.285156 -1.46875 14.515625 -1.40625 C 14.753906 -1.34375 14.984375 -1.3125 15.203125 -1.3125 C 15.390625 -1.3125 15.566406 -1.328125 15.734375 -1.359375 C 15.910156 -1.398438 16.050781 -1.441406 16.15625 -1.484375 C 15.8125 -1.253906 15.507812 -1.046875 15.25 -0.859375 C 14.988281 -0.679688 14.75 -0.523438 14.53125 -0.390625 C 14.3125 -0.253906 14.101562 -0.148438 13.90625 -0.078125 C 13.71875 -0.015625 13.519531 0.015625 13.3125 0.015625 C 13.164062 0.015625 13.023438 -0.00390625 12.890625 -0.046875 C 12.753906 -0.0859375 12.609375 -0.15625 12.453125 -0.25 C 12.296875 -0.34375 12.128906 -0.457031 11.953125 -0.59375 C 11.785156 -0.738281 11.597656 -0.910156 11.390625 -1.109375 C 11.253906 -1.242188 11.050781 -1.460938 10.78125 -1.765625 C 10.507812 -2.066406 10.207031 -2.40625 9.875 -2.78125 C 9.539062 -3.15625 9.191406 -3.546875 8.828125 -3.953125 C 8.460938 -4.359375 8.117188 -4.734375 7.796875 -5.078125 C 7.484375 -5.421875 7.203125 -5.71875 6.953125 -5.96875 C 6.703125 -6.21875 6.535156 -6.367188 6.453125 -6.421875 C 6.335938 -6.484375 6.222656 -6.539062 6.109375 -6.59375 C 6.003906 -6.632812 5.882812 -6.671875 5.75 -6.703125 C 5.625 -6.734375 5.5 -6.742188 5.375 -6.734375 L 6.921875 -7.796875 C 7.273438 -7.796875 7.613281 -7.878906 7.9375 -8.046875 C 8.269531 -8.210938 8.550781 -8.453125 8.78125 -8.765625 C 9.019531 -9.085938 9.207031 -9.472656 9.34375 -9.921875 C 9.476562 -10.378906 9.535156 -10.894531 9.515625 -11.46875 C 9.492188 -11.8125 9.414062 -12.125 9.28125 -12.40625 C 9.144531 -12.6875 8.96875 -12.9375 8.75 -13.15625 C 8.53125 -13.375 8.28125 -13.566406 8 -13.734375 C 7.726562 -13.898438 7.445312 -14.035156 7.15625 -14.140625 C 6.863281 -14.253906 6.570312 -14.335938 6.28125 -14.390625 C 5.988281 -14.441406 5.722656 -14.46875 5.484375 -14.46875 C 5.316406 -14.46875 5.140625 -14.460938 4.953125 -14.453125 C 4.765625 -14.453125 4.570312 -14.453125 4.375 -14.453125 C 4.351562 -13.117188 4.328125 -11.925781 4.296875 -10.875 C 4.273438 -9.832031 4.253906 -8.90625 4.234375 -8.09375 C 4.210938 -7.289062 4.191406 -6.59375 4.171875 -6 C 4.160156 -5.414062 4.144531 -4.914062 4.125 -4.5 C 4.082031 -3.53125 4.039062 -2.878906 4 -2.546875 C 3.976562 -2.398438 3.941406 -2.253906 3.890625 -2.109375 C 3.847656 -1.972656 3.789062 -1.832031 3.71875 -1.6875 C 3.644531 -1.539062 3.550781 -1.394531 3.4375 -1.25 C 3.738281 -1.21875 4.007812 -1.195312 4.25 -1.1875 C 4.5 -1.1875 4.726562 -1.1875 4.9375 -1.1875 C 5.425781 -1.1875 5.785156 -1.195312 6.015625 -1.21875 C 6.253906 -1.25 6.390625 -1.273438 6.421875 -1.296875 C 6.054688 -1.109375 5.707031 -0.9375 5.375 -0.78125 C 5.050781 -0.625 4.738281 -0.484375 4.4375 -0.359375 C 4.132812 -0.242188 3.847656 -0.148438 3.578125 -0.078125 C 3.304688 -0.015625 3.039062 0.015625 2.78125 0.015625 L 0.921875 0.015625 L 1.859375 -0.609375 C 1.910156 -0.796875 1.957031 -1.015625 2 -1.265625 C 2.050781 -1.523438 2.09375 -1.800781 2.125 -2.09375 C 2.15625 -2.394531 2.179688 -2.703125 2.203125 -3.015625 C 2.234375 -3.328125 2.257812 -3.640625 2.28125 -3.953125 C 2.320312 -4.648438 2.351562 -5.394531 2.375 -6.1875 C 2.394531 -7.28125 2.410156 -8.332031 2.421875 -9.34375 C 2.429688 -9.78125 2.4375 -10.226562 2.4375 -10.6875 C 2.445312 -11.144531 2.453125 -11.59375 2.453125 -12.03125 C 2.460938 -12.46875 2.46875 -12.882812 2.46875 -13.28125 C 2.476562 -13.675781 2.484375 -14.023438 2.484375 -14.328125 L 0.5625 -14.1875 L 2.640625 -15.4375 C 2.765625 -15.414062 2.898438 -15.398438 3.046875 -15.390625 C 3.191406 -15.390625 3.34375 -15.390625 3.5 -15.390625 C 3.800781 -15.390625 4.101562 -15.398438 4.40625 -15.421875 C 4.707031 -15.453125 5.003906 -15.484375 5.296875 -15.515625 C 5.597656 -15.546875 5.890625 -15.570312 6.171875 -15.59375 C 6.453125 -15.625 6.738281 -15.640625 7.03125 -15.640625 C 7.601562 -15.640625 8.160156 -15.546875 8.703125 -15.359375 C 9.253906 -15.171875 9.738281 -14.894531 10.15625 -14.53125 C 10.570312 -14.164062 10.894531 -13.722656 11.125 -13.203125 C 11.363281 -12.679688 11.453125 -12.097656 11.390625 -11.453125 Z M 16.1875 -1.5 C 16.164062 -1.5 16.15625 -1.5 16.15625 -1.5 L 16.15625 -1.484375 L 16.15625 -1.5 C 16.164062 -1.5 16.175781 -1.5 16.1875 -1.5 Z M 16.1875 -1.5 "/></g></g></g><g fill="#004aad" fill-opacity="1"><g transform="translate(187.22379, 208.315204)"><g><path d="M 4.265625 -1.109375 C 3.878906 -0.898438 3.515625 -0.722656 3.171875 -0.578125 C 2.828125 -0.429688 2.503906 -0.316406 2.203125 -0.234375 C 1.910156 -0.148438 1.644531 -0.0859375 1.40625 -0.046875 C 1.164062 -0.015625 0.960938 0 0.796875 0 L -0.8125 0 L 0.359375 -0.65625 C 0.472656 -0.8125 0.585938 -0.96875 0.703125 -1.125 C 0.816406 -1.28125 0.914062 -1.425781 1 -1.5625 C 1.082031 -1.707031 1.164062 -1.851562 1.25 -2 C 1.46875 -2.445312 1.796875 -3.175781 2.234375 -4.1875 C 2.410156 -4.613281 2.617188 -5.117188 2.859375 -5.703125 C 3.109375 -6.296875 3.390625 -6.984375 3.703125 -7.765625 C 4.023438 -8.546875 4.382812 -9.4375 4.78125 -10.4375 C 5.175781 -11.4375 5.613281 -12.554688 6.09375 -13.796875 L 7.953125 -15.5 L 12.140625 -1.3125 C 12.429688 -1.238281 12.710938 -1.1875 12.984375 -1.15625 C 13.265625 -1.132812 13.523438 -1.125 13.765625 -1.125 C 13.898438 -1.125 14.019531 -1.125 14.125 -1.125 C 14.226562 -1.132812 14.320312 -1.144531 14.40625 -1.15625 C 14.488281 -1.15625 14.566406 -1.164062 14.640625 -1.1875 C 14.234375 -0.988281 13.875 -0.816406 13.5625 -0.671875 C 13.257812 -0.523438 12.988281 -0.398438 12.75 -0.296875 C 12.507812 -0.203125 12.285156 -0.128906 12.078125 -0.078125 C 11.878906 -0.0234375 11.675781 0 11.46875 0 L 9.765625 0 L 10.328125 -0.359375 L 8.609375 -6.015625 C 8.398438 -5.953125 8.160156 -5.894531 7.890625 -5.84375 C 7.628906 -5.789062 7.3125 -5.742188 6.9375 -5.703125 C 6.5625 -5.660156 6.125 -5.617188 5.625 -5.578125 C 5.132812 -5.546875 4.566406 -5.515625 3.921875 -5.484375 C 3.617188 -4.847656 3.34375 -4.285156 3.09375 -3.796875 C 2.84375 -3.304688 2.617188 -2.878906 2.421875 -2.515625 C 2.222656 -2.148438 2.046875 -1.84375 1.890625 -1.59375 C 1.742188 -1.351562 1.613281 -1.15625 1.5 -1 C 1.625 -0.976562 1.757812 -0.960938 1.90625 -0.953125 C 2.0625 -0.941406 2.210938 -0.9375 2.359375 -0.9375 C 2.585938 -0.9375 2.8125 -0.945312 3.03125 -0.96875 C 3.257812 -0.988281 3.46875 -1.007812 3.65625 -1.03125 C 3.863281 -1.050781 4.066406 -1.078125 4.265625 -1.109375 Z M 5.75 -6.75 C 6.707031 -6.75 7.582031 -6.773438 8.375 -6.828125 L 6.734375 -12.25 C 6.296875 -11.113281 5.890625 -10.097656 5.515625 -9.203125 C 5.148438 -8.316406 4.804688 -7.5 4.484375 -6.75 Z M 5.75 -6.75 "/></g></g></g><g fill="#004aad" fill-opacity="1"><g transform="translate(202.8371, 208.315204)"><g><path d="M 13.5625 -14.90625 C 13.476562 -14.863281 13.351562 -14.796875 13.1875 -14.703125 C 13.050781 -14.628906 12.859375 -14.519531 12.609375 -14.375 C 12.367188 -14.226562 12.050781 -14.039062 11.65625 -13.8125 C 11.78125 -13.96875 11.835938 -14.078125 11.828125 -14.140625 C 11.816406 -14.210938 11.78125 -14.257812 11.71875 -14.28125 C 11.644531 -14.3125 11.550781 -14.316406 11.4375 -14.296875 C 11.363281 -14.273438 11.207031 -14.253906 10.96875 -14.234375 C 10.738281 -14.222656 10.445312 -14.207031 10.09375 -14.1875 C 9.738281 -14.175781 9.335938 -14.160156 8.890625 -14.140625 C 8.441406 -14.128906 7.96875 -14.125 7.46875 -14.125 C 7.4375 -12.9375 7.410156 -11.867188 7.390625 -10.921875 C 7.367188 -9.984375 7.347656 -9.148438 7.328125 -8.421875 C 7.316406 -7.703125 7.304688 -7.078125 7.296875 -6.546875 C 7.285156 -6.015625 7.273438 -5.554688 7.265625 -5.171875 C 7.242188 -4.296875 7.234375 -3.6875 7.234375 -3.34375 C 7.222656 -3.082031 7.1875 -2.820312 7.125 -2.5625 C 7.070312 -2.34375 6.988281 -2.101562 6.875 -1.84375 C 6.757812 -1.59375 6.59375 -1.363281 6.375 -1.15625 C 6.507812 -1.144531 6.640625 -1.132812 6.765625 -1.125 C 6.890625 -1.125 7.007812 -1.125 7.125 -1.125 C 7.457031 -1.125 7.757812 -1.140625 8.03125 -1.171875 C 8.300781 -1.210938 8.53125 -1.25 8.71875 -1.28125 C 8.914062 -1.3125 9.070312 -1.34375 9.1875 -1.375 C 9.300781 -1.414062 9.375 -1.445312 9.40625 -1.46875 C 9.03125 -1.207031 8.71875 -0.984375 8.46875 -0.796875 C 8.21875 -0.609375 7.992188 -0.457031 7.796875 -0.34375 C 7.597656 -0.226562 7.398438 -0.140625 7.203125 -0.078125 C 7.015625 -0.0234375 6.789062 0 6.53125 0 C 6.1875 0 5.894531 -0.0078125 5.65625 -0.03125 C 5.425781 -0.0625 5.1875 -0.078125 4.9375 -0.078125 C 4.820312 -0.078125 4.703125 -0.0703125 4.578125 -0.0625 C 4.453125 -0.0507812 4.3125 -0.03125 4.15625 0 C 4.351562 -0.164062 4.535156 -0.347656 4.703125 -0.546875 C 4.867188 -0.753906 5.007812 -1.003906 5.125 -1.296875 C 5.238281 -1.585938 5.328125 -1.9375 5.390625 -2.34375 C 5.453125 -2.75 5.484375 -3.242188 5.484375 -3.828125 L 5.484375 -14.0625 C 4.867188 -14.039062 4.265625 -14.023438 3.671875 -14.015625 C 3.078125 -14.003906 2.539062 -13.992188 2.0625 -13.984375 C 1.582031 -13.972656 1.179688 -13.957031 0.859375 -13.9375 C 0.535156 -13.925781 0.332031 -13.914062 0.25 -13.90625 C 0.0507812 -13.882812 -0.0859375 -13.890625 -0.171875 -13.921875 C -0.265625 -13.960938 -0.304688 -14.019531 -0.296875 -14.09375 C -0.285156 -14.164062 -0.234375 -14.253906 -0.140625 -14.359375 C -0.046875 -14.472656 0.0820312 -14.585938 0.25 -14.703125 L 1.703125 -15.765625 C 1.597656 -15.640625 1.566406 -15.539062 1.609375 -15.46875 C 1.648438 -15.40625 1.710938 -15.359375 1.796875 -15.328125 C 1.890625 -15.296875 2.019531 -15.273438 2.1875 -15.265625 C 2.300781 -15.265625 2.53125 -15.265625 2.875 -15.265625 C 3.226562 -15.273438 3.65625 -15.285156 4.15625 -15.296875 C 4.65625 -15.304688 5.210938 -15.316406 5.828125 -15.328125 C 6.441406 -15.335938 7.0625 -15.351562 7.6875 -15.375 C 8.320312 -15.394531 8.945312 -15.410156 9.5625 -15.421875 C 10.175781 -15.429688 10.734375 -15.441406 11.234375 -15.453125 C 11.734375 -15.472656 12.15625 -15.488281 12.5 -15.5 C 12.851562 -15.507812 13.085938 -15.515625 13.203125 -15.515625 C 13.421875 -15.523438 13.578125 -15.507812 13.671875 -15.46875 C 13.773438 -15.425781 13.832031 -15.367188 13.84375 -15.296875 C 13.851562 -15.222656 13.828125 -15.148438 13.765625 -15.078125 C 13.710938 -15.003906 13.644531 -14.945312 13.5625 -14.90625 Z M 9.40625 -1.46875 C 9.40625 -1.476562 9.410156 -1.484375 9.421875 -1.484375 Z M 9.40625 -1.46875 "/></g></g></g><g fill="#004aad" fill-opacity="1"><g transform="translate(217.809912, 208.315204)"><g><path d="M 9.375 -8.375 C 9.3125 -8.34375 9.21875 -8.285156 9.09375 -8.203125 C 8.976562 -8.128906 8.816406 -8.023438 8.609375 -7.890625 C 8.398438 -7.753906 8.125 -7.566406 7.78125 -7.328125 C 7.832031 -7.429688 7.828125 -7.507812 7.765625 -7.5625 C 7.710938 -7.625 7.632812 -7.664062 7.53125 -7.6875 C 7.414062 -7.71875 7.273438 -7.726562 7.109375 -7.71875 C 6.847656 -7.695312 6.476562 -7.671875 6 -7.640625 C 5.519531 -7.609375 4.976562 -7.582031 4.375 -7.5625 C 4.375 -6.425781 4.363281 -5.5 4.34375 -4.78125 C 4.332031 -4.070312 4.328125 -3.515625 4.328125 -3.109375 C 4.304688 -2.640625 4.289062 -2.296875 4.28125 -2.078125 C 4.269531 -1.941406 4.226562 -1.804688 4.15625 -1.671875 C 4.09375 -1.546875 4 -1.414062 3.875 -1.28125 C 3.75 -1.144531 3.578125 -1.023438 3.359375 -0.921875 L 8.203125 -0.921875 C 8.421875 -0.921875 8.648438 -0.929688 8.890625 -0.953125 C 9.085938 -0.984375 9.300781 -1.019531 9.53125 -1.0625 C 9.757812 -1.113281 9.976562 -1.191406 10.1875 -1.296875 C 9.832031 -0.960938 9.476562 -0.703125 9.125 -0.515625 C 8.78125 -0.335938 8.460938 -0.210938 8.171875 -0.140625 C 7.828125 -0.046875 7.5 0.00390625 7.1875 0.015625 C 6.488281 0.015625 5.832031 0.0195312 5.21875 0.03125 C 4.601562 0.0390625 4.046875 0.0546875 3.546875 0.078125 C 3.046875 0.0976562 2.617188 0.125 2.265625 0.15625 C 1.910156 0.1875 1.65625 0.222656 1.5 0.265625 C 1.71875 0.046875 1.890625 -0.164062 2.015625 -0.375 C 2.140625 -0.59375 2.234375 -0.832031 2.296875 -1.09375 C 2.367188 -1.363281 2.410156 -1.660156 2.421875 -1.984375 C 2.441406 -2.316406 2.445312 -2.710938 2.4375 -3.171875 L 2.4375 -7.546875 C 2.238281 -7.546875 2.039062 -7.546875 1.84375 -7.546875 C 1.644531 -7.554688 1.453125 -7.570312 1.265625 -7.59375 L 2.4375 -8.203125 C 2.4375 -8.585938 2.4375 -8.988281 2.4375 -9.40625 C 2.4375 -9.832031 2.4375 -10.285156 2.4375 -10.765625 C 2.4375 -11.253906 2.429688 -11.773438 2.421875 -12.328125 C 2.421875 -12.890625 2.421875 -13.5 2.421875 -14.15625 C 2.097656 -14.15625 1.796875 -14.160156 1.515625 -14.171875 C 1.234375 -14.179688 0.96875 -14.191406 0.71875 -14.203125 L 2.71875 -15.265625 C 4.0625 -15.265625 5.210938 -15.269531 6.171875 -15.28125 C 7.128906 -15.300781 7.921875 -15.320312 8.546875 -15.34375 C 9.273438 -15.375 9.878906 -15.40625 10.359375 -15.4375 C 10.609375 -15.4375 10.769531 -15.414062 10.84375 -15.375 C 10.925781 -15.332031 10.957031 -15.285156 10.9375 -15.234375 C 10.925781 -15.191406 10.882812 -15.144531 10.8125 -15.09375 C 10.738281 -15.050781 10.675781 -15.019531 10.625 -15 C 10.5625 -14.96875 10.453125 -14.90625 10.296875 -14.8125 C 10.160156 -14.738281 9.96875 -14.617188 9.71875 -14.453125 C 9.476562 -14.285156 9.144531 -14.054688 8.71875 -13.765625 C 8.863281 -13.921875 8.925781 -14.035156 8.90625 -14.109375 C 8.882812 -14.191406 8.832031 -14.25 8.75 -14.28125 C 8.65625 -14.3125 8.53125 -14.328125 8.375 -14.328125 C 8.238281 -14.316406 8.035156 -14.304688 7.765625 -14.296875 C 7.492188 -14.285156 7.175781 -14.269531 6.8125 -14.25 C 6.457031 -14.238281 6.066406 -14.226562 5.640625 -14.21875 C 5.222656 -14.207031 4.796875 -14.195312 4.359375 -14.1875 C 4.359375 -13.050781 4.359375 -12.03125 4.359375 -11.125 C 4.367188 -10.21875 4.375 -9.390625 4.375 -8.640625 C 5.101562 -8.640625 5.753906 -8.648438 6.328125 -8.671875 C 6.910156 -8.691406 7.410156 -8.710938 7.828125 -8.734375 C 8.304688 -8.765625 8.734375 -8.789062 9.109375 -8.8125 C 9.347656 -8.8125 9.503906 -8.789062 9.578125 -8.75 C 9.660156 -8.71875 9.691406 -8.675781 9.671875 -8.625 C 9.660156 -8.582031 9.617188 -8.535156 9.546875 -8.484375 C 9.484375 -8.429688 9.425781 -8.394531 9.375 -8.375 Z M 9.375 -8.375 "/></g></g></g><g fill="#004aad" fill-opacity="1"><g transform="translate(230.626384, 208.315204)"><g/></g></g><g fill="#004aad" fill-opacity="1"><g transform="translate(237.710409, 208.315204)"><g><path d="M 6.171875 -15.890625 C 5.835938 -15.671875 5.535156 -15.488281 5.265625 -15.34375 C 4.992188 -15.195312 4.738281 -15.070312 4.5 -14.96875 C 4.488281 -14.363281 4.472656 -13.796875 4.453125 -13.265625 C 4.441406 -12.742188 4.429688 -12.25 4.421875 -11.78125 C 4.410156 -11.320312 4.398438 -10.882812 4.390625 -10.46875 C 4.390625 -10.0625 4.382812 -9.664062 4.375 -9.28125 C 4.75 -9.363281 5.140625 -9.40625 5.546875 -9.40625 C 5.941406 -9.40625 6.394531 -9.398438 6.90625 -9.390625 C 7.425781 -9.378906 7.960938 -9.363281 8.515625 -9.34375 C 9.066406 -9.320312 9.625 -9.304688 10.1875 -9.296875 C 10.75 -9.285156 11.273438 -9.28125 11.765625 -9.28125 L 12.265625 -9.28125 L 12.265625 -14.59375 C 12.046875 -14.570312 11.773438 -14.546875 11.453125 -14.515625 C 11.140625 -14.484375 10.785156 -14.441406 10.390625 -14.390625 C 10.773438 -14.703125 11.117188 -14.9375 11.421875 -15.09375 C 11.722656 -15.257812 11.984375 -15.378906 12.203125 -15.453125 C 12.460938 -15.535156 12.691406 -15.585938 12.890625 -15.609375 C 13.148438 -15.609375 13.425781 -15.613281 13.71875 -15.625 C 14.019531 -15.632812 14.3125 -15.648438 14.59375 -15.671875 C 14.882812 -15.703125 15.144531 -15.734375 15.375 -15.765625 C 15.601562 -15.804688 15.773438 -15.847656 15.890625 -15.890625 C 15.554688 -15.671875 15.253906 -15.488281 14.984375 -15.34375 C 14.722656 -15.195312 14.472656 -15.070312 14.234375 -14.96875 C 14.191406 -13.675781 14.160156 -12.519531 14.140625 -11.5 C 14.117188 -10.488281 14.097656 -9.585938 14.078125 -8.796875 C 14.066406 -8.015625 14.054688 -7.332031 14.046875 -6.75 C 14.035156 -6.175781 14.023438 -5.6875 14.015625 -5.28125 C 13.992188 -4.332031 13.988281 -3.6875 14 -3.34375 C 13.988281 -3.082031 13.953125 -2.820312 13.890625 -2.5625 C 13.828125 -2.34375 13.738281 -2.101562 13.625 -1.84375 C 13.507812 -1.59375 13.347656 -1.363281 13.140625 -1.15625 C 13.265625 -1.144531 13.382812 -1.132812 13.5 -1.125 C 13.625 -1.125 13.75 -1.125 13.875 -1.125 C 14.207031 -1.125 14.503906 -1.140625 14.765625 -1.171875 C 15.035156 -1.210938 15.269531 -1.25 15.46875 -1.28125 C 15.664062 -1.3125 15.820312 -1.34375 15.9375 -1.375 C 16.050781 -1.414062 16.125 -1.445312 16.15625 -1.46875 C 15.769531 -1.207031 15.453125 -0.984375 15.203125 -0.796875 C 14.960938 -0.609375 14.738281 -0.457031 14.53125 -0.34375 C 14.332031 -0.226562 14.140625 -0.140625 13.953125 -0.078125 C 13.765625 -0.0234375 13.539062 0 13.28125 0 C 12.945312 0 12.660156 -0.0078125 12.421875 -0.03125 C 12.179688 -0.0625 11.941406 -0.078125 11.703125 -0.078125 C 11.578125 -0.078125 11.453125 -0.0703125 11.328125 -0.0625 C 11.203125 -0.0507812 11.0625 -0.03125 10.90625 0 C 11.132812 -0.101562 11.332031 -0.210938 11.5 -0.328125 C 11.675781 -0.453125 11.816406 -0.617188 11.921875 -0.828125 C 12.035156 -1.035156 12.117188 -1.3125 12.171875 -1.65625 C 12.234375 -2 12.265625 -2.460938 12.265625 -3.046875 L 12.265625 -8.59375 C 12.054688 -8.550781 11.820312 -8.515625 11.5625 -8.484375 C 11.3125 -8.453125 11.019531 -8.4375 10.6875 -8.4375 C 10.21875 -8.4375 9.675781 -8.453125 9.0625 -8.484375 C 8.445312 -8.515625 7.769531 -8.53125 7.03125 -8.53125 C 6.59375 -8.53125 6.148438 -8.519531 5.703125 -8.5 C 5.265625 -8.476562 4.816406 -8.441406 4.359375 -8.390625 C 4.328125 -7.347656 4.304688 -6.5 4.296875 -5.84375 C 4.285156 -5.1875 4.273438 -4.671875 4.265625 -4.296875 C 4.265625 -3.867188 4.265625 -3.550781 4.265625 -3.34375 C 4.253906 -3.082031 4.21875 -2.820312 4.15625 -2.5625 C 4.09375 -2.34375 4.003906 -2.101562 3.890625 -1.84375 C 3.773438 -1.59375 3.613281 -1.363281 3.40625 -1.15625 C 3.539062 -1.144531 3.664062 -1.132812 3.78125 -1.125 C 3.90625 -1.125 4.03125 -1.125 4.15625 -1.125 C 4.488281 -1.125 4.785156 -1.140625 5.046875 -1.171875 C 5.316406 -1.210938 5.550781 -1.25 5.75 -1.28125 C 5.945312 -1.3125 6.097656 -1.34375 6.203125 -1.375 C 6.316406 -1.414062 6.390625 -1.445312 6.421875 -1.46875 C 6.046875 -1.207031 5.734375 -0.984375 5.484375 -0.796875 C 5.234375 -0.609375 5.007812 -0.457031 4.8125 -0.34375 C 4.613281 -0.226562 4.421875 -0.140625 4.234375 -0.078125 C 4.046875 -0.0234375 3.820312 0 3.5625 0 C 3.21875 0 2.925781 -0.0078125 2.6875 -0.03125 C 2.445312 -0.0625 2.207031 -0.078125 1.96875 -0.078125 C 1.84375 -0.078125 1.71875 -0.0703125 1.59375 -0.0625 C 1.46875 -0.0507812 1.332031 -0.03125 1.1875 0 C 1.382812 -0.164062 1.5625 -0.347656 1.71875 -0.546875 C 1.882812 -0.753906 2.023438 -1.003906 2.140625 -1.296875 C 2.265625 -1.585938 2.359375 -1.9375 2.421875 -2.34375 C 2.484375 -2.75 2.515625 -3.242188 2.515625 -3.828125 L 2.515625 -8.0625 C 2.359375 -8.03125 2.195312 -7.992188 2.03125 -7.953125 C 1.875 -7.910156 1.71875 -7.859375 1.5625 -7.796875 C 1.71875 -7.941406 1.875 -8.070312 2.03125 -8.1875 C 2.195312 -8.3125 2.359375 -8.429688 2.515625 -8.546875 L 2.515625 -14.59375 C 2.296875 -14.570312 2.03125 -14.546875 1.71875 -14.515625 C 1.40625 -14.484375 1.050781 -14.441406 0.65625 -14.390625 C 1.039062 -14.703125 1.382812 -14.9375 1.6875 -15.09375 C 2 -15.257812 2.265625 -15.378906 2.484375 -15.453125 C 2.742188 -15.535156 2.972656 -15.585938 3.171875 -15.609375 C 3.421875 -15.609375 3.695312 -15.613281 4 -15.625 C 4.300781 -15.632812 4.59375 -15.648438 4.875 -15.671875 C 5.15625 -15.703125 5.410156 -15.734375 5.640625 -15.765625 C 5.878906 -15.804688 6.054688 -15.847656 6.171875 -15.890625 Z M 6.421875 -1.46875 C 6.429688 -1.476562 6.441406 -1.484375 6.453125 -1.484375 Z M 16.15625 -1.46875 C 16.164062 -1.476562 16.175781 -1.484375 16.1875 -1.484375 Z M 16.15625 -1.46875 "/></g></g></g><g fill="#004aad" fill-opacity="1"><g transform="translate(255.896381, 208.315204)"><g><path d="M 6.078125 -15.40625 C 5.785156 -15.207031 5.46875 -15 5.125 -14.78125 C 4.78125 -14.5625 4.445312 -14.382812 4.125 -14.25 C 4.101562 -13.34375 4.082031 -12.515625 4.0625 -11.765625 C 4.039062 -11.015625 4.019531 -10.335938 4 -9.734375 C 3.988281 -9.140625 3.976562 -8.609375 3.96875 -8.140625 C 3.957031 -7.679688 3.953125 -7.273438 3.953125 -6.921875 C 3.929688 -6.109375 3.925781 -5.488281 3.9375 -5.0625 C 3.925781 -4.5625 4 -4.070312 4.15625 -3.59375 C 4.3125 -3.113281 4.5625 -2.6875 4.90625 -2.3125 C 5.257812 -1.9375 5.722656 -1.632812 6.296875 -1.40625 C 6.867188 -1.175781 7.5625 -1.0625 8.375 -1.0625 C 8.8125 -1.082031 9.269531 -1.148438 9.75 -1.265625 C 10.15625 -1.359375 10.601562 -1.503906 11.09375 -1.703125 C 11.582031 -1.898438 12.0625 -2.191406 12.53125 -2.578125 L 12.53125 -14.125 C 12.425781 -14.132812 12.320312 -14.140625 12.21875 -14.140625 C 12.113281 -14.140625 12.007812 -14.140625 11.90625 -14.140625 C 11.707031 -14.140625 11.507812 -14.132812 11.3125 -14.125 C 11.125 -14.113281 10.945312 -14.097656 10.78125 -14.078125 C 11.113281 -14.378906 11.410156 -14.609375 11.671875 -14.765625 C 11.929688 -14.921875 12.15625 -15.035156 12.34375 -15.109375 C 12.550781 -15.191406 12.734375 -15.242188 12.890625 -15.265625 C 13.023438 -15.265625 13.195312 -15.265625 13.40625 -15.265625 C 13.613281 -15.273438 13.832031 -15.28125 14.0625 -15.28125 C 14.289062 -15.289062 14.523438 -15.300781 14.765625 -15.3125 C 15.003906 -15.320312 15.222656 -15.332031 15.421875 -15.34375 C 15.628906 -15.351562 15.804688 -15.363281 15.953125 -15.375 C 16.097656 -15.382812 16.195312 -15.394531 16.25 -15.40625 C 16 -15.226562 15.71875 -15.039062 15.40625 -14.84375 C 15.09375 -14.65625 14.796875 -14.492188 14.515625 -14.359375 L 14.515625 -3.359375 C 14.503906 -3.015625 14.484375 -2.691406 14.453125 -2.390625 C 14.421875 -2.128906 14.375 -1.875 14.3125 -1.625 C 14.25 -1.382812 14.15625 -1.21875 14.03125 -1.125 C 14.4375 -1.070312 14.789062 -1.035156 15.09375 -1.015625 C 15.394531 -1.003906 15.660156 -1 15.890625 -1 C 16.296875 -1 16.585938 -1.015625 16.765625 -1.046875 C 16.941406 -1.078125 17.039062 -1.097656 17.0625 -1.109375 C 16.726562 -0.921875 16.421875 -0.753906 16.140625 -0.609375 C 15.867188 -0.472656 15.609375 -0.359375 15.359375 -0.265625 C 15.117188 -0.179688 14.878906 -0.113281 14.640625 -0.0625 C 14.410156 -0.0195312 14.179688 0 13.953125 0 L 11.875 0 C 12.03125 -0.0507812 12.148438 -0.171875 12.234375 -0.359375 C 12.328125 -0.554688 12.398438 -0.757812 12.453125 -0.96875 C 12.492188 -1.207031 12.519531 -1.46875 12.53125 -1.75 L 12.53125 -2.25 C 11.78125 -1.632812 11.0625 -1.164062 10.375 -0.84375 C 9.6875 -0.519531 9.078125 -0.28125 8.546875 -0.125 C 7.929688 0.0507812 7.347656 0.148438 6.796875 0.171875 C 5.898438 0.171875 5.144531 0.0507812 4.53125 -0.1875 C 3.925781 -0.425781 3.441406 -0.757812 3.078125 -1.1875 C 2.710938 -1.613281 2.453125 -2.125 2.296875 -2.71875 C 2.148438 -3.320312 2.085938 -3.984375 2.109375 -4.703125 C 2.097656 -5.285156 2.097656 -6.023438 2.109375 -6.921875 C 2.117188 -7.691406 2.128906 -8.671875 2.140625 -9.859375 C 2.160156 -11.046875 2.191406 -12.472656 2.234375 -14.140625 L 1.75 -14.140625 C 1.550781 -14.140625 1.351562 -14.132812 1.15625 -14.125 C 0.957031 -14.113281 0.773438 -14.097656 0.609375 -14.078125 C 0.941406 -14.378906 1.238281 -14.609375 1.5 -14.765625 C 1.757812 -14.921875 1.984375 -15.035156 2.171875 -15.109375 C 2.378906 -15.191406 2.566406 -15.242188 2.734375 -15.265625 C 2.867188 -15.265625 3.035156 -15.265625 3.234375 -15.265625 C 3.441406 -15.273438 3.660156 -15.28125 3.890625 -15.28125 C 4.128906 -15.289062 4.367188 -15.300781 4.609375 -15.3125 C 4.847656 -15.320312 5.066406 -15.332031 5.265625 -15.34375 C 5.472656 -15.351562 5.644531 -15.363281 5.78125 -15.375 C 5.925781 -15.382812 6.023438 -15.394531 6.078125 -15.40625 Z M 17.0625 -1.109375 L 17.0625 -1.125 L 17.078125 -1.125 C 17.085938 -1.125 17.09375 -1.125 17.09375 -1.125 Z M 17.0625 -1.109375 "/></g></g></g><g fill="#004aad" fill-opacity="1"><g transform="translate(274.498676, 208.315204)"><g><path d="M 11.640625 -5.15625 C 11.640625 -4.476562 11.5 -3.878906 11.21875 -3.359375 C 10.945312 -2.847656 10.59375 -2.398438 10.15625 -2.015625 C 9.71875 -1.640625 9.222656 -1.320312 8.671875 -1.0625 C 8.128906 -0.800781 7.582031 -0.59375 7.03125 -0.4375 C 6.488281 -0.28125 5.96875 -0.164062 5.46875 -0.09375 C 4.96875 -0.03125 4.550781 0 4.21875 0 L 1.296875 0 C 1.398438 -0.0078125 1.492188 -0.0390625 1.578125 -0.09375 C 1.660156 -0.15625 1.734375 -0.234375 1.796875 -0.328125 C 1.867188 -0.421875 1.925781 -0.523438 1.96875 -0.640625 C 2.007812 -0.765625 2.050781 -0.890625 2.09375 -1.015625 C 2.164062 -1.296875 2.210938 -1.625 2.234375 -2 C 2.253906 -2.46875 2.28125 -3.222656 2.3125 -4.265625 C 2.332031 -4.703125 2.351562 -5.222656 2.375 -5.828125 C 2.394531 -6.441406 2.414062 -7.15625 2.4375 -7.96875 C 2.457031 -8.78125 2.484375 -9.703125 2.515625 -10.734375 C 2.554688 -11.765625 2.597656 -12.921875 2.640625 -14.203125 C 2.378906 -14.191406 2.078125 -14.179688 1.734375 -14.171875 C 1.398438 -14.160156 1.023438 -14.164062 0.609375 -14.1875 L 2.609375 -15.3125 C 2.847656 -15.289062 3.101562 -15.269531 3.375 -15.25 C 3.644531 -15.238281 3.910156 -15.234375 4.171875 -15.234375 C 4.429688 -15.234375 4.675781 -15.234375 4.90625 -15.234375 C 5.144531 -15.234375 5.359375 -15.242188 5.546875 -15.265625 C 5.742188 -15.273438 5.929688 -15.289062 6.109375 -15.3125 C 6.628906 -15.3125 7.15625 -15.265625 7.6875 -15.171875 C 8.226562 -15.085938 8.71875 -14.929688 9.15625 -14.703125 C 9.59375 -14.472656 9.945312 -14.148438 10.21875 -13.734375 C 10.5 -13.328125 10.640625 -12.796875 10.640625 -12.140625 C 10.609375 -11.640625 10.46875 -11.171875 10.21875 -10.734375 C 10.113281 -10.535156 9.984375 -10.335938 9.828125 -10.140625 C 9.671875 -9.953125 9.476562 -9.765625 9.25 -9.578125 C 9.019531 -9.398438 8.75 -9.238281 8.4375 -9.09375 C 8.125 -8.945312 7.757812 -8.820312 7.34375 -8.71875 C 7.46875 -8.726562 7.582031 -8.738281 7.6875 -8.75 C 7.800781 -8.757812 7.914062 -8.765625 8.03125 -8.765625 C 8.476562 -8.765625 8.875 -8.710938 9.21875 -8.609375 C 9.5625 -8.503906 9.859375 -8.363281 10.109375 -8.1875 C 10.359375 -8.019531 10.570312 -7.828125 10.75 -7.609375 C 10.925781 -7.398438 11.070312 -7.179688 11.1875 -6.953125 C 11.445312 -6.421875 11.597656 -5.820312 11.640625 -5.15625 Z M 4.125 -2.625 C 4.101562 -2.394531 4.050781 -2.171875 3.96875 -1.953125 C 3.90625 -1.765625 3.816406 -1.582031 3.703125 -1.40625 C 3.597656 -1.226562 3.457031 -1.101562 3.28125 -1.03125 C 3.988281 -0.957031 4.59375 -0.910156 5.09375 -0.890625 C 5.601562 -0.867188 6.019531 -0.859375 6.34375 -0.859375 C 6.5 -0.859375 6.640625 -0.859375 6.765625 -0.859375 C 6.890625 -0.859375 6.992188 -0.863281 7.078125 -0.875 C 7.171875 -0.882812 7.242188 -0.890625 7.296875 -0.890625 C 7.515625 -0.921875 7.75 -1.019531 8 -1.1875 C 8.25 -1.351562 8.484375 -1.570312 8.703125 -1.84375 C 8.929688 -2.113281 9.125 -2.429688 9.28125 -2.796875 C 9.4375 -3.160156 9.539062 -3.5625 9.59375 -4 C 9.65625 -4.59375 9.625 -5.125 9.5 -5.59375 C 9.375 -6.0625 9.15625 -6.457031 8.84375 -6.78125 C 8.53125 -7.113281 8.125 -7.363281 7.625 -7.53125 C 7.125 -7.707031 6.53125 -7.796875 5.84375 -7.796875 C 5.71875 -7.796875 5.585938 -7.789062 5.453125 -7.78125 C 5.316406 -7.78125 5.179688 -7.773438 5.046875 -7.765625 C 5.515625 -7.984375 5.957031 -8.191406 6.375 -8.390625 C 6.789062 -8.585938 7.15625 -8.828125 7.46875 -9.109375 C 7.789062 -9.390625 8.039062 -9.734375 8.21875 -10.140625 C 8.40625 -10.554688 8.5 -11.085938 8.5 -11.734375 C 8.5 -12.109375 8.4375 -12.429688 8.3125 -12.703125 C 8.1875 -12.972656 8.015625 -13.195312 7.796875 -13.375 C 7.585938 -13.5625 7.34375 -13.710938 7.0625 -13.828125 C 6.789062 -13.941406 6.507812 -14.03125 6.21875 -14.09375 C 5.925781 -14.164062 5.632812 -14.210938 5.34375 -14.234375 C 5.050781 -14.253906 4.78125 -14.265625 4.53125 -14.265625 C 4.5 -12.960938 4.46875 -11.800781 4.4375 -10.78125 C 4.414062 -9.757812 4.390625 -8.851562 4.359375 -8.0625 C 4.335938 -7.269531 4.316406 -6.585938 4.296875 -6.015625 C 4.285156 -5.441406 4.269531 -4.953125 4.25 -4.546875 C 4.207031 -3.597656 4.164062 -2.957031 4.125 -2.625 Z M 4.125 -2.625 "/></g></g></g></svg>