<svg xmlns="http://www.w3.org/2000/svg" xmlns:xlink="http://www.w3.org/1999/xlink" width="500" zoomAndPan="magnify" viewBox="0 0 375 374.999991" height="500" preserveAspectRatio="xMidYMid meet" version="1.0"><defs><g/><clipPath id="5f2516f0c6"><path d="M 187.5 0 C 83.945312 0 0 83.945312 0 187.5 C 0 291.054688 83.945312 375 187.5 375 C 291.054688 375 375 291.054688 375 187.5 C 375 83.945312 291.054688 0 187.5 0 Z M 187.5 0 " clip-rule="nonzero"/></clipPath><clipPath id="660c2729e3"><path d="M 104.636719 96 L 218 96 L 218 203.214844 L 104.636719 203.214844 Z M 104.636719 96 " clip-rule="nonzero"/></clipPath><clipPath id="b1222d35ee"><path d="M 156 37.5 L 270.351562 37.5 L 270.351562 132 L 156 132 Z M 156 37.5 " clip-rule="nonzero"/></clipPath></defs><g clip-path="url(#5f2516f0c6)"><rect x="-37.5" width="450" fill="#0b8fac" y="-37.499999" height="449.999989" fill-opacity="1"/></g><g clip-path="url(#660c2729e3)"><path fill="#ffffff" d="M 210.867188 165.3125 C 208.476562 162.921875 206.273438 160.367188 204.257812 157.652344 L 204.257812 173.441406 C 204.269531 173.996094 204.25 174.550781 204.207031 175.105469 C 204.164062 175.660156 204.09375 176.210938 203.992188 176.757812 C 203.894531 177.308594 203.769531 177.847656 203.617188 178.382812 C 203.464844 178.917969 203.285156 179.441406 203.078125 179.960938 C 202.875 180.476562 202.644531 180.984375 202.390625 181.476562 C 202.132812 181.96875 201.855469 182.449219 201.550781 182.917969 C 201.25 183.382812 200.921875 183.832031 200.574219 184.265625 C 200.226562 184.703125 199.859375 185.117188 199.46875 185.515625 C 199.078125 185.910156 198.671875 186.289062 198.246094 186.644531 C 197.820312 187 197.375 187.335938 196.914062 187.648438 C 196.453125 187.960938 195.980469 188.25 195.492188 188.515625 C 195.003906 188.78125 194.503906 189.019531 193.988281 189.234375 C 193.476562 189.453125 192.953125 189.640625 192.421875 189.804688 C 191.890625 189.96875 191.351562 190.105469 190.808594 190.214844 C 190.261719 190.324219 189.714844 190.40625 189.160156 190.460938 C 188.605469 190.515625 188.050781 190.542969 187.496094 190.542969 C 186.941406 190.542969 186.386719 190.515625 185.832031 190.460938 C 185.277344 190.40625 184.730469 190.324219 184.183594 190.214844 C 183.636719 190.105469 183.101562 189.96875 182.570312 189.804688 C 182.035156 189.640625 181.515625 189.453125 181.003906 189.234375 C 180.488281 189.019531 179.988281 188.78125 179.5 188.515625 C 179.011719 188.25 178.535156 187.960938 178.078125 187.648438 C 177.617188 187.335938 177.171875 187 176.746094 186.644531 C 176.320312 186.289062 175.910156 185.910156 175.523438 185.515625 C 175.132812 185.117188 174.765625 184.703125 174.417969 184.265625 C 174.070312 183.832031 173.742188 183.382812 173.441406 182.917969 C 173.136719 182.449219 172.859375 181.96875 172.601562 181.476562 C 172.347656 180.984375 172.117188 180.476562 171.910156 179.960938 C 171.707031 179.441406 171.527344 178.917969 171.375 178.382812 C 171.222656 177.847656 171.097656 177.308594 171 176.757812 C 170.898438 176.210938 170.828125 175.660156 170.785156 175.105469 C 170.738281 174.550781 170.722656 173.996094 170.734375 173.441406 L 170.734375 137.117188 L 134.425781 137.117188 C 133.542969 137.117188 132.667969 137.050781 131.800781 136.914062 C 130.929688 136.773438 130.074219 136.570312 129.238281 136.296875 C 128.398438 136.023438 127.589844 135.6875 126.804688 135.285156 C 126.019531 134.886719 125.269531 134.425781 124.558594 133.90625 C 123.847656 133.390625 123.179688 132.816406 122.558594 132.195312 C 121.933594 131.570312 121.367188 130.902344 120.851562 130.1875 C 120.332031 129.472656 119.875 128.726562 119.476562 127.9375 C 119.078125 127.152344 118.746094 126.339844 118.476562 125.503906 C 118.207031 124.664062 118.003906 123.808594 117.867188 122.9375 C 117.730469 122.066406 117.667969 121.191406 117.667969 120.3125 C 117.671875 119.429688 117.746094 118.554688 117.886719 117.683594 C 118.027344 116.816406 118.234375 115.960938 118.511719 115.125 C 118.785156 114.289062 119.125 113.480469 119.527344 112.695312 C 119.933594 111.914062 120.394531 111.167969 120.917969 110.457031 C 121.4375 109.746094 122.011719 109.082031 122.636719 108.460938 C 123.261719 107.84375 123.933594 107.273438 124.648438 106.761719 L 125.921875 105.847656 C 124.28125 104.484375 122.757812 103 121.347656 101.398438 C 119.855469 99.703125 118.457031 97.929688 117.152344 96.078125 L 116.535156 96.539062 C 115.292969 97.472656 114.132812 98.496094 113.050781 99.609375 C 111.96875 100.726562 110.980469 101.917969 110.085938 103.1875 C 109.1875 104.453125 108.398438 105.785156 107.710938 107.179688 C 107.023438 108.570312 106.449219 110.007812 105.988281 111.492188 C 105.523438 112.976562 105.179688 114.484375 104.953125 116.023438 C 104.726562 117.558594 104.621094 119.101562 104.636719 120.65625 C 104.652344 122.210938 104.789062 123.75 105.046875 125.285156 C 105.300781 126.816406 105.675781 128.316406 106.167969 129.792969 C 106.660156 131.265625 107.261719 132.691406 107.976562 134.070312 C 108.691406 135.449219 109.507812 136.765625 110.429688 138.015625 C 111.351562 139.265625 112.363281 140.4375 113.464844 141.53125 C 114.570312 142.625 115.75 143.625 117.011719 144.53125 C 118.269531 145.441406 119.59375 146.246094 120.980469 146.945312 C 122.367188 147.648438 123.796875 148.238281 125.277344 148.714844 C 126.753906 149.191406 128.261719 149.550781 129.792969 149.792969 C 131.328125 150.035156 132.871094 150.15625 134.425781 150.15625 L 157.699219 150.15625 L 157.699219 173.414062 C 157.683594 174.398438 157.71875 175.382812 157.800781 176.363281 C 157.882812 177.347656 158.011719 178.324219 158.191406 179.292969 C 158.371094 180.261719 158.597656 181.21875 158.875 182.164062 C 159.148438 183.109375 159.46875 184.042969 159.835938 184.957031 C 160.203125 185.871094 160.613281 186.765625 161.070312 187.640625 C 161.523438 188.511719 162.019531 189.363281 162.5625 190.1875 C 163.101562 191.011719 163.679688 191.808594 164.296875 192.574219 C 164.917969 193.339844 165.574219 194.074219 166.265625 194.777344 C 166.957031 195.480469 167.679688 196.144531 168.4375 196.777344 C 169.195312 197.40625 169.980469 198 170.796875 198.550781 C 171.613281 199.101562 172.457031 199.613281 173.324219 200.082031 C 174.191406 200.550781 175.078125 200.976562 175.988281 201.355469 C 176.894531 201.734375 177.820312 202.070312 178.765625 202.359375 C 179.707031 202.648438 180.660156 202.890625 181.625 203.082031 C 182.59375 203.277344 183.566406 203.421875 184.546875 203.519531 C 185.527344 203.617188 186.511719 203.667969 187.496094 203.667969 C 188.480469 203.667969 189.464844 203.617188 190.445312 203.519531 C 191.425781 203.421875 192.398438 203.277344 193.363281 203.082031 C 194.332031 202.890625 195.285156 202.648438 196.226562 202.359375 C 197.171875 202.070312 198.09375 201.734375 199.003906 201.355469 C 199.914062 200.976562 200.800781 200.550781 201.667969 200.082031 C 202.535156 199.613281 203.378906 199.101562 204.191406 198.550781 C 205.007812 198 205.796875 197.40625 206.554688 196.777344 C 207.3125 196.144531 208.035156 195.480469 208.726562 194.777344 C 209.417969 194.074219 210.074219 193.339844 210.691406 192.574219 C 211.3125 191.808594 211.890625 191.011719 212.429688 190.1875 C 212.96875 189.363281 213.46875 188.511719 213.921875 187.640625 C 214.378906 186.765625 214.789062 185.871094 215.15625 184.957031 C 215.523438 184.042969 215.84375 183.109375 216.117188 182.164062 C 216.394531 181.21875 216.621094 180.261719 216.800781 179.292969 C 216.976562 178.324219 217.109375 177.347656 217.191406 176.363281 C 217.273438 175.382812 217.308594 174.398438 217.292969 173.414062 L 217.292969 170.738281 C 215 169.105469 212.859375 167.296875 210.867188 165.3125 Z M 210.867188 165.3125 " fill-opacity="1" fill-rule="nonzero"/></g><g clip-path="url(#b1222d35ee)"><path fill="#ffffff" d="M 160.511719 96.304688 C 159.523438 98.621094 158.148438 100.679688 156.394531 102.484375 L 156.828125 103.464844 L 156.828125 103.570312 L 170.734375 103.570312 L 170.734375 67.289062 C 170.757812 66.199219 170.882812 65.128906 171.113281 64.066406 C 171.34375 63.003906 171.675781 61.972656 172.105469 60.976562 C 172.539062 59.980469 173.0625 59.03125 173.675781 58.136719 C 174.289062 57.242188 174.984375 56.414062 175.761719 55.652344 C 176.539062 54.890625 177.378906 54.214844 178.289062 53.617188 C 179.195312 53.019531 180.152344 52.515625 181.160156 52.105469 C 182.164062 51.695312 183.199219 51.386719 184.265625 51.175781 C 185.332031 50.964844 186.410156 50.863281 187.496094 50.863281 C 188.582031 50.863281 189.660156 50.964844 190.726562 51.175781 C 191.789062 51.386719 192.828125 51.695312 193.832031 52.105469 C 194.839844 52.515625 195.796875 53.019531 196.703125 53.617188 C 197.613281 54.214844 198.453125 54.890625 199.230469 55.652344 C 200.003906 56.414062 200.699219 57.242188 201.316406 58.136719 C 201.929688 59.03125 202.453125 59.980469 202.886719 60.976562 C 203.316406 61.972656 203.648438 63.003906 203.878906 64.066406 C 204.109375 65.128906 204.234375 66.199219 204.257812 67.289062 L 204.257812 103.597656 L 210.492188 103.597656 C 211.515625 103.101562 212.585938 102.722656 213.695312 102.46875 C 214.804688 102.214844 215.929688 102.085938 217.070312 102.085938 C 218.210938 102.085938 219.335938 102.214844 220.445312 102.46875 C 221.554688 102.722656 222.625 103.101562 223.652344 103.597656 L 240.550781 103.597656 C 241.101562 103.597656 241.648438 103.625 242.195312 103.679688 C 242.738281 103.734375 243.28125 103.8125 243.820312 103.921875 C 244.359375 104.03125 244.890625 104.164062 245.414062 104.324219 C 245.9375 104.480469 246.453125 104.667969 246.960938 104.878906 C 247.46875 105.085938 247.964844 105.324219 248.449219 105.582031 C 248.929688 105.839844 249.402344 106.121094 249.855469 106.425781 C 250.3125 106.730469 250.753906 107.058594 251.175781 107.40625 C 251.601562 107.753906 252.007812 108.121094 252.394531 108.511719 C 252.785156 108.898438 253.152344 109.304688 253.5 109.730469 C 253.847656 110.152344 254.175781 110.59375 254.480469 111.050781 C 254.785156 111.503906 255.066406 111.976562 255.324219 112.457031 C 255.582031 112.941406 255.816406 113.4375 256.027344 113.945312 C 256.238281 114.449219 256.425781 114.96875 256.582031 115.492188 C 256.742188 116.015625 256.875 116.546875 256.984375 117.085938 C 257.09375 117.625 257.171875 118.167969 257.226562 118.710938 C 257.28125 119.257812 257.308594 119.804688 257.308594 120.355469 C 257.308594 121.375 257.214844 122.386719 257.027344 123.386719 C 261.757812 124.328125 265.726562 126.183594 268.066406 130.335938 C 268.191406 130.554688 268.292969 130.78125 268.402344 131.023438 L 268.84375 129.703125 C 269.027344 129.148438 269.195312 128.585938 269.34375 128.019531 C 269.496094 127.449219 269.628906 126.878906 269.746094 126.304688 C 269.863281 125.730469 269.964844 125.152344 270.046875 124.570312 C 270.128906 123.992188 270.195312 123.40625 270.246094 122.824219 C 270.292969 122.238281 270.324219 121.652344 270.335938 121.066406 C 270.351562 120.480469 270.347656 119.894531 270.328125 119.308594 C 270.308594 118.722656 270.269531 118.136719 270.214844 117.550781 C 270.15625 116.96875 270.085938 116.386719 269.996094 115.804688 C 269.90625 115.226562 269.800781 114.648438 269.675781 114.074219 C 269.550781 113.503906 269.410156 112.933594 269.253906 112.367188 C 269.097656 111.800781 268.921875 111.242188 268.730469 110.6875 C 268.542969 110.132812 268.335938 109.582031 268.113281 109.042969 C 267.886719 108.5 267.648438 107.964844 267.394531 107.433594 C 267.140625 106.90625 266.871094 106.386719 266.585938 105.871094 C 266.300781 105.359375 266 104.855469 265.683594 104.359375 C 265.371094 103.867188 265.039062 103.382812 264.695312 102.90625 C 264.351562 102.429688 263.996094 101.964844 263.625 101.511719 C 263.253906 101.058594 262.867188 100.613281 262.46875 100.183594 C 262.074219 99.75 261.664062 99.332031 261.242188 98.925781 C 260.820312 98.515625 260.386719 98.121094 259.9375 97.742188 C 259.492188 97.359375 259.039062 96.992188 258.570312 96.636719 C 258.101562 96.28125 257.625 95.941406 257.136719 95.613281 C 256.652344 95.289062 256.152344 94.976562 255.648438 94.679688 C 255.140625 94.382812 254.628906 94.097656 254.105469 93.832031 C 253.582031 93.566406 253.054688 93.3125 252.515625 93.078125 C 251.976562 92.84375 251.433594 92.625 250.882812 92.421875 C 250.332031 92.21875 249.777344 92.03125 249.214844 91.859375 C 248.65625 91.6875 248.089844 91.535156 247.519531 91.398438 C 246.949219 91.261719 246.375 91.140625 245.796875 91.039062 C 245.21875 90.933594 244.640625 90.847656 244.054688 90.78125 C 243.472656 90.710938 242.890625 90.660156 242.304688 90.625 C 241.71875 90.589844 241.132812 90.574219 240.546875 90.574219 L 217.292969 90.574219 L 217.292969 67.289062 C 217.277344 66.320312 217.21875 65.355469 217.109375 64.398438 C 217 63.4375 216.84375 62.484375 216.644531 61.539062 C 216.445312 60.59375 216.195312 59.660156 215.90625 58.738281 C 215.613281 57.816406 215.277344 56.910156 214.898438 56.023438 C 214.515625 55.132812 214.09375 54.265625 213.628906 53.417969 C 213.164062 52.570312 212.660156 51.746094 212.117188 50.949219 C 211.570312 50.148438 210.988281 49.378906 210.371094 48.636719 C 209.75 47.894531 209.097656 47.1875 208.40625 46.507812 C 207.71875 45.828125 207 45.1875 206.25 44.578125 C 205.496094 43.96875 204.71875 43.398438 203.910156 42.867188 C 203.105469 42.335938 202.273438 41.84375 201.417969 41.390625 C 200.566406 40.9375 199.691406 40.53125 198.796875 40.164062 C 197.902344 39.796875 196.992188 39.476562 196.066406 39.195312 C 195.140625 38.917969 194.203125 38.6875 193.253906 38.5 C 192.304688 38.3125 191.351562 38.171875 190.390625 38.078125 C 189.425781 37.984375 188.460938 37.9375 187.496094 37.9375 C 186.527344 37.9375 185.566406 37.984375 184.601562 38.078125 C 183.640625 38.171875 182.6875 38.3125 181.738281 38.5 C 180.789062 38.6875 179.851562 38.917969 178.925781 39.195312 C 178 39.476562 177.089844 39.796875 176.195312 40.164062 C 175.300781 40.53125 174.425781 40.9375 173.574219 41.390625 C 172.71875 41.84375 171.886719 42.335938 171.082031 42.867188 C 170.273438 43.398438 169.496094 43.96875 168.742188 44.578125 C 167.992188 45.1875 167.273438 45.828125 166.582031 46.507812 C 165.894531 47.1875 165.242188 47.894531 164.621094 48.636719 C 164 49.378906 163.417969 50.148438 162.875 50.949219 C 162.332031 51.746094 161.824219 52.570312 161.363281 53.417969 C 160.898438 54.265625 160.476562 55.132812 160.09375 56.023438 C 159.714844 56.910156 159.378906 57.816406 159.085938 58.738281 C 158.792969 59.660156 158.546875 60.59375 158.347656 61.539062 C 158.144531 62.484375 157.992188 63.4375 157.882812 64.398438 C 157.773438 65.355469 157.710938 66.320312 157.699219 67.289062 L 157.699219 67.835938 C 161.199219 76.375 163.203125 89.769531 160.511719 96.304688 Z M 160.511719 96.304688 " fill-opacity="1" fill-rule="nonzero"/></g><path fill="#ffffff" d="M 114.0625 81.015625 C 114.632812 85.308594 119 92.976562 124.222656 98.867188 C 126.375 101.28125 129.566406 104.394531 132.570312 105.5 C 135.332031 106.445312 138.15625 106.707031 141.042969 106.28125 L 142.546875 109.714844 C 142.773438 110.230469 143.105469 110.660156 143.550781 111.007812 C 143.996094 111.351562 144.496094 111.570312 145.054688 111.664062 L 145.210938 112.164062 L 146.789062 111.476562 C 146.949219 111.921875 147.113281 112.328125 147.285156 112.71875 C 148.332031 115.121094 149.726562 117.300781 151.464844 119.261719 C 154.527344 122.644531 158.210938 125.074219 162.523438 126.558594 C 168.660156 128.761719 173.816406 128.027344 178.375 127.375 C 186.175781 126.257812 191.328125 125.523438 198.414062 140.476562 C 202.492188 149.097656 207.882812 156.945312 213.566406 162.59375 C 220.328125 169.292969 227.507812 172.890625 234.332031 173.070312 C 244.464844 173.261719 253.375 166.308594 260.789062 152.304688 C 265.835938 142.800781 267.09375 136.398438 264.730469 132.222656 C 261.804688 127.035156 254.605469 126.628906 246.257812 126.15625 C 239.898438 125.796875 232.71875 125.394531 227.035156 122.722656 C 227.257812 122.320312 227.453125 121.90625 227.628906 121.480469 C 227.800781 121.050781 227.945312 120.617188 228.0625 120.171875 C 228.183594 119.726562 228.277344 119.277344 228.339844 118.824219 C 228.40625 118.367188 228.441406 117.910156 228.449219 117.449219 C 228.457031 116.988281 228.4375 116.53125 228.390625 116.074219 C 228.34375 115.613281 228.269531 115.160156 228.167969 114.714844 C 228.066406 114.265625 227.9375 113.824219 227.78125 113.390625 C 227.625 112.957031 227.445312 112.535156 227.238281 112.125 C 227.027344 111.714844 226.796875 111.316406 226.542969 110.9375 C 226.285156 110.554688 226.007812 110.1875 225.710938 109.839844 C 225.410156 109.488281 225.089844 109.160156 224.75 108.851562 C 224.410156 108.539062 224.050781 108.253906 223.675781 107.984375 C 223.300781 107.71875 222.910156 107.476562 222.507812 107.257812 C 222.101562 107.039062 221.683594 106.847656 221.257812 106.675781 C 220.828125 106.507812 220.390625 106.367188 219.945312 106.253906 C 219.5 106.136719 219.050781 106.050781 218.59375 105.988281 C 218.136719 105.929688 217.679688 105.898438 217.21875 105.894531 C 216.761719 105.886719 216.300781 105.910156 215.84375 105.964844 C 215.386719 106.015625 214.933594 106.09375 214.488281 106.199219 C 214.039062 106.304688 213.601562 106.441406 213.167969 106.601562 C 212.738281 106.757812 212.316406 106.945312 211.910156 107.15625 C 211.5 107.367188 211.105469 107.601562 210.726562 107.859375 C 210.34375 108.121094 209.980469 108.402344 209.636719 108.703125 C 209.289062 109.007812 208.964844 109.332031 208.65625 109.675781 C 208.351562 110.015625 208.066406 110.378906 207.800781 110.753906 C 207.539062 111.132812 207.300781 111.523438 207.085938 111.929688 C 206.871094 112.339844 206.679688 112.757812 206.515625 113.1875 C 206.351562 113.617188 206.214844 114.054688 206.105469 114.5 C 205.992188 114.945312 205.910156 115.398438 205.855469 115.855469 C 205.796875 116.3125 205.769531 116.769531 205.769531 117.230469 C 205.769531 117.691406 205.796875 118.148438 205.851562 118.605469 C 205.910156 119.0625 205.992188 119.515625 206.101562 119.960938 C 206.214844 120.40625 206.351562 120.84375 206.515625 121.273438 C 206.679688 121.703125 206.867188 122.125 207.082031 122.53125 C 207.296875 122.9375 207.535156 123.328125 207.796875 123.707031 C 208.0625 124.085938 208.347656 124.445312 208.652344 124.789062 C 208.957031 125.132812 209.285156 125.453125 209.628906 125.757812 C 209.976562 126.0625 210.339844 126.34375 210.71875 126.601562 C 211.101562 126.863281 211.492188 127.097656 211.902344 127.308594 C 212.3125 127.519531 212.730469 127.703125 213.164062 127.863281 C 213.59375 128.023438 214.035156 128.160156 214.480469 128.265625 C 214.929688 128.371094 215.378906 128.453125 215.839844 128.503906 C 216.296875 128.554688 216.753906 128.578125 217.214844 128.574219 C 217.675781 128.570312 218.132812 128.539062 218.589844 128.476562 C 219.042969 128.417969 219.496094 128.332031 219.941406 128.214844 C 220.386719 128.101562 220.824219 127.960938 221.25 127.792969 C 221.679688 127.625 222.097656 127.429688 222.5 127.210938 C 222.90625 126.992188 223.296875 126.75 223.671875 126.484375 C 230.535156 130.121094 238.734375 130.601562 246.003906 131 C 252.632812 131.371094 258.894531 131.730469 260.507812 134.597656 C 261.492188 136.328125 261.585938 140.40625 256.507812 150.003906 C 250 162.265625 242.5625 168.410156 234.441406 168.203125 C 221.398438 167.914062 209.246094 151.972656 202.820312 138.414062 C 194.191406 120.214844 185.804688 121.417969 177.683594 122.578125 C 173.496094 123.175781 169.167969 123.800781 164.171875 122 C 156.257812 119.160156 152.761719 113.796875 151.222656 109.554688 L 151.5625 109.410156 C 151.964844 109.234375 152.320312 108.988281 152.625 108.667969 C 152.929688 108.351562 153.164062 107.988281 153.324219 107.574219 C 153.484375 107.164062 153.5625 106.738281 153.554688 106.300781 C 153.546875 105.859375 153.453125 105.433594 153.277344 105.03125 L 151.765625 101.597656 C 154.042969 99.769531 155.769531 97.519531 156.949219 94.851562 C 159.847656 87.882812 156.105469 70.136719 151.566406 64.644531 C 149.507812 62.195312 146.382812 60.777344 142.429688 60.523438 C 142.175781 60.054688 141.863281 59.628906 141.496094 59.246094 C 141.125 58.859375 140.714844 58.53125 140.253906 58.261719 C 139.796875 57.988281 139.3125 57.78125 138.796875 57.640625 C 138.28125 57.5 137.757812 57.429688 137.226562 57.429688 C 136.984375 57.429688 136.742188 57.445312 136.5 57.476562 C 136.257812 57.507812 136.019531 57.550781 135.785156 57.613281 C 135.550781 57.671875 135.320312 57.746094 135.09375 57.835938 C 134.867188 57.921875 134.644531 58.027344 134.433594 58.140625 C 134.21875 58.257812 134.011719 58.386719 133.816406 58.527344 C 133.617188 58.667969 133.429688 58.820312 133.25 58.984375 C 133.070312 59.152344 132.902344 59.324219 132.746094 59.511719 C 132.589844 59.695312 132.445312 59.890625 132.308594 60.09375 C 132.175781 60.296875 132.058594 60.507812 131.949219 60.726562 C 131.84375 60.945312 131.75 61.167969 131.671875 61.398438 C 131.59375 61.628906 131.527344 61.863281 131.476562 62.101562 C 131.425781 62.339844 131.390625 62.578125 131.371094 62.820312 C 131.351562 63.0625 131.34375 63.304688 131.355469 63.550781 C 131.363281 63.792969 131.386719 64.035156 131.425781 64.273438 C 131.464844 64.511719 131.519531 64.75 131.589844 64.984375 C 131.65625 65.214844 131.742188 65.445312 131.835938 65.667969 C 132.070312 66.203125 132.378906 66.691406 132.761719 67.136719 C 133.140625 67.582031 133.578125 67.960938 134.070312 68.273438 C 134.5625 68.589844 135.089844 68.824219 135.65625 68.984375 C 136.21875 69.140625 136.792969 69.210938 137.378906 69.199219 C 137.960938 69.183594 138.53125 69.085938 139.085938 68.902344 C 139.644531 68.71875 140.160156 68.460938 140.636719 68.121094 C 141.117188 67.785156 141.535156 67.386719 141.894531 66.925781 C 142.253906 66.464844 142.535156 65.960938 142.746094 65.414062 C 144.957031 65.640625 146.617188 66.367188 147.703125 67.589844 L 147.8125 67.71875 C 149.417969 69.65625 151.191406 74.625 152.21875 80.078125 C 153.25 85.527344 153.351562 90.753906 152.445312 92.929688 C 150.792969 96.917969 146.269531 99.59375 144.859375 100.355469 C 143.328125 100.886719 138.3125 102.375 134.253906 100.878906 C 132.042969 100.066406 128.316406 96.492188 124.980469 91.953125 C 121.644531 87.414062 119.226562 82.808594 118.898438 80.28125 C 118.671875 78.613281 119.261719 76.851562 120.648438 74.996094 C 120.871094 75.085938 121.101562 75.164062 121.335938 75.222656 C 121.570312 75.285156 121.804688 75.332031 122.046875 75.363281 C 122.285156 75.398438 122.527344 75.414062 122.769531 75.417969 C 123.011719 75.417969 123.25 75.40625 123.492188 75.378906 C 123.730469 75.355469 123.96875 75.3125 124.207031 75.257812 C 124.441406 75.199219 124.671875 75.128906 124.898438 75.042969 C 125.125 74.960938 125.34375 74.863281 125.558594 74.75 C 125.773438 74.636719 125.980469 74.515625 126.179688 74.375 C 126.378906 74.238281 126.570312 74.089844 126.75 73.929688 C 126.933594 73.769531 127.101562 73.597656 127.261719 73.417969 C 127.421875 73.234375 127.570312 73.042969 127.707031 72.84375 C 127.84375 72.644531 127.964844 72.4375 128.078125 72.222656 C 128.1875 72.007812 128.285156 71.785156 128.367188 71.558594 C 128.453125 71.332031 128.523438 71.101562 128.578125 70.863281 C 128.632812 70.628906 128.671875 70.390625 128.699219 70.152344 C 128.722656 69.910156 128.734375 69.667969 128.730469 69.425781 C 128.726562 69.183594 128.707031 68.945312 128.675781 68.707031 C 128.640625 68.464844 128.59375 68.230469 128.53125 67.996094 C 128.46875 67.761719 128.390625 67.53125 128.300781 67.308594 C 128.210938 67.085938 128.105469 66.867188 127.988281 66.65625 C 127.871094 66.445312 127.742188 66.238281 127.597656 66.042969 C 127.457031 65.847656 127.300781 65.664062 127.136719 65.488281 C 126.972656 65.308594 126.796875 65.144531 126.609375 64.988281 C 126.425781 64.835938 126.230469 64.691406 126.027344 64.5625 C 125.824219 64.429688 125.613281 64.3125 125.394531 64.207031 C 125.175781 64.101562 124.953125 64.011719 124.722656 63.933594 C 124.492188 63.855469 124.261719 63.792969 124.023438 63.746094 C 123.785156 63.695312 123.546875 63.660156 123.308594 63.640625 C 123.066406 63.621094 122.824219 63.617188 122.582031 63.628906 C 122.339844 63.640625 122.101562 63.664062 121.863281 63.703125 C 121.625 63.742188 121.386719 63.796875 121.15625 63.867188 C 120.925781 63.9375 120.699219 64.019531 120.476562 64.117188 C 120.136719 64.265625 119.8125 64.441406 119.503906 64.652344 C 119.199219 64.859375 118.914062 65.097656 118.648438 65.359375 C 118.386719 65.621094 118.152344 65.90625 117.941406 66.214844 C 117.734375 66.519531 117.554688 66.84375 117.40625 67.183594 C 117.261719 67.527344 117.144531 67.878906 117.0625 68.238281 C 116.980469 68.601562 116.933594 68.96875 116.921875 69.339844 C 116.910156 69.710938 116.933594 70.082031 116.988281 70.449219 C 117.046875 70.816406 117.136719 71.171875 117.261719 71.523438 C 114.75 74.589844 113.644531 77.867188 114.0625 81.015625 Z M 114.0625 81.015625 " fill-opacity="1" fill-rule="nonzero"/><g fill="#ffffff" fill-opacity="1"><g transform="translate(60.016006, 262.900692)"><g><path d="M 52.859375 2.046875 C 50.171875 6 46.171875 7.453125 42.46875 7.453125 C 37.015625 7.453125 31.984375 4.265625 27.984375 -1.328125 L 23.21875 -7.96875 C 21.8125 -9.921875 20.75 -10.390625 19.671875 -10.046875 L 14.859375 -5.234375 C 14.09375 -4.46875 13.203125 -3.5 13.078125 -2.5625 C 9.03125 -5.75 6.515625 -11.625 6.515625 -17.46875 C 6.515625 -24.65625 10.390625 -29.640625 16.3125 -29.640625 C 24.234375 -29.640625 29.4375 -20.953125 29.4375 -12.3125 C 29.4375 -8.78125 28.53125 -5.53125 27.09375 -4.125 L 27.265625 -3.921875 C 30.703125 -5.453125 33.984375 -8.859375 33.984375 -15.15625 C 33.984375 -24.453125 27.125 -30.40625 18.015625 -30.40625 C 9.078125 -30.40625 1.921875 -24.484375 1.921875 -14.90625 C 1.921875 -5.328125 9.078125 0.59375 17.796875 0.59375 C 19.84375 0.59375 21.6875 0.296875 23.296875 -0.34375 C 27.734375 5.453125 32.40625 9.109375 39.359375 9.109375 C 47.234375 9.109375 51.75 4.5625 53.03125 2.046875 Z M 19.671875 -0.171875 C 18.0625 -0.171875 16.5625 -0.546875 15.203125 -1.234375 C 13.75 -2.09375 13.96875 -3.875 15.765625 -5.5 C 17 -6.609375 18.234375 -7.109375 20.28125 -4.390625 L 22.828125 -0.9375 L 22.953125 -0.765625 C 21.984375 -0.390625 20.875 -0.171875 19.671875 -0.171875 Z M 19.671875 -0.171875 "/></g></g></g><g fill="#ffffff" fill-opacity="1"><g transform="translate(96.010968, 262.900692)"><g><path d="M 15.421875 0.59375 C 21.515625 0.59375 26.578125 -3.28125 26.578125 -11.375 L 26.578125 -23.078125 C 26.578125 -28.875 28.0625 -29.34375 29.8125 -29.5625 L 29.8125 -29.765625 L 22.015625 -29.765625 L 22.015625 -29.5625 C 24.1875 -29.34375 25.6875 -28.03125 25.6875 -22.234375 L 25.6875 -10.640625 C 25.6875 -3.359375 20.28125 -0.71875 16.734375 -0.71875 C 13.453125 -0.71875 8.21875 -2.984375 8.21875 -10.5625 L 8.21875 -27.390625 C 8.21875 -28.921875 9.71875 -29.390625 11.453125 -29.609375 L 11.453125 -29.8125 L 0.640625 -29.8125 L 0.640625 -29.609375 C 2.390625 -29.390625 3.875 -28.921875 3.875 -27.390625 L 3.875 -11.28125 C 3.875 -1.484375 11.078125 0.59375 15.421875 0.59375 Z M 15.421875 0.59375 "/></g></g></g><g fill="#ffffff" fill-opacity="1"><g transform="translate(126.468249, 262.900692)"><g><path d="M 0.640625 0 L 11.453125 0 L 11.453125 -0.21875 C 9.71875 -0.421875 8.21875 -0.890625 8.21875 -2.421875 L 8.21875 -27.390625 C 8.21875 -28.921875 9.71875 -29.390625 11.453125 -29.609375 L 11.453125 -29.8125 L 0.640625 -29.8125 L 0.640625 -29.609375 C 2.390625 -29.390625 3.875 -28.921875 3.875 -27.390625 L 3.875 -2.421875 C 3.875 -0.890625 2.390625 -0.421875 0.640625 -0.21875 Z M 0.640625 0 "/></g></g></g><g fill="#ffffff" fill-opacity="1"><g transform="translate(138.56597, 262.900692)"><g><path d="M 29.34375 -4.734375 L 29.046875 -4.9375 C 27.21875 -2.6875 23.515625 -1.359375 20.3125 -1.359375 C 12.78125 -1.359375 6.6875 -8.515625 6.6875 -17.375 C 6.6875 -25.34375 11.375 -29.515625 17.078125 -29.515625 C 23.59375 -29.515625 26.75 -24.109375 24.453125 -18.484375 L 24.578125 -18.4375 L 29.984375 -25.9375 C 28.03125 -28.328125 24.578125 -30.40625 19.171875 -30.40625 C 10.390625 -30.40625 1.921875 -24.75 1.921875 -14.90625 C 1.921875 -5.75 9.25 0.59375 18.234375 0.59375 C 23.765625 0.59375 27.515625 -1.828125 29.34375 -4.734375 Z M 29.34375 -4.734375 "/></g></g></g><g fill="#ffffff" fill-opacity="1"><g transform="translate(169.8326, 262.900692)"><g><path d="M 29.609375 0 C 27.390625 -1.109375 26.1875 -2.09375 23.25 -5.625 L 13.15625 -17.59375 L 20.4375 -24.65625 C 24.1875 -28.328125 26.921875 -29.34375 28.703125 -29.5625 L 28.796875 -29.8125 L 20.4375 -29.8125 L 20.359375 -29.5625 C 23.515625 -29.21875 23.078125 -28.28125 22.28125 -27.515625 L 8.21875 -13.890625 L 8.21875 -27.390625 C 8.21875 -28.921875 9.71875 -29.390625 11.453125 -29.609375 L 11.453125 -29.8125 L 0.640625 -29.8125 L 0.640625 -29.609375 C 2.390625 -29.390625 3.875 -28.921875 3.875 -27.390625 L 3.875 -2.421875 C 3.875 -0.890625 2.390625 -0.421875 0.640625 -0.21875 L 0.640625 0 L 11.453125 0 L 11.453125 -0.21875 C 9.71875 -0.421875 8.21875 -0.890625 8.21875 -2.421875 L 8.21875 -13.84375 L 11.03125 -13.84375 L 21.9375 -0.71875 L 21.9375 0 Z M 29.609375 0 "/></g></g></g><g fill="#ffffff" fill-opacity="1"><g transform="translate(199.650911, 262.900692)"><g><path d="M 2.125 -10.09375 L 2.296875 -10.09375 C 3.15625 -11.28125 5.921875 -11.15625 9.96875 -10.640625 L 12.734375 -10.3125 L 14.265625 -13.71875 L 14.09375 -13.71875 C 13.25 -12.515625 10.484375 -12.65625 6.4375 -13.15625 L 3.65625 -13.5 Z M 2.125 -10.09375 "/></g></g></g><g fill="#ffffff" fill-opacity="1"><g transform="translate(216.05098, 262.900692)"><g><path d="M 13.890625 -29.8125 L 0.640625 -29.8125 L 0.640625 -29.609375 C 2.390625 -29.390625 3.875 -28.921875 3.875 -27.390625 L 3.875 -3.28125 C 3.875 -1.75 2.390625 -0.859375 0.640625 -0.21875 L 0.640625 0 L 13.03125 0 C 22.484375 0 30.03125 -5.578125 30.03125 -15.671875 C 30.03125 -24.625 24.1875 -29.8125 13.890625 -29.8125 Z M 14.09375 -0.6875 C 11.625 -0.6875 9.796875 -1.234375 8.21875 -2 L 8.21875 -29.140625 L 12.1875 -29.140625 C 21.546875 -29.140625 25.34375 -22.484375 25.34375 -13.421875 C 25.34375 -3.578125 20.90625 -0.6875 14.09375 -0.6875 Z M 14.09375 -0.6875 "/></g></g></g><g fill="#ffffff" fill-opacity="1"><g transform="translate(247.786188, 262.900692)"><g><path d="M 17.96875 -30.40625 C 9.078125 -30.40625 1.921875 -24.484375 1.921875 -14.90625 C 1.921875 -5.328125 9.078125 0.59375 17.96875 0.59375 C 26.828125 0.59375 33.984375 -5.328125 33.984375 -14.90625 C 33.984375 -24.484375 26.828125 -30.40625 17.96875 -30.40625 Z M 19.671875 -0.171875 C 12.015625 -0.171875 6.515625 -8.859375 6.515625 -17.46875 C 6.515625 -24.65625 10.34375 -29.640625 16.234375 -29.640625 C 23.890625 -29.640625 29.390625 -20.953125 29.390625 -12.390625 C 29.390625 -5.15625 25.5625 -0.171875 19.671875 -0.171875 Z M 19.671875 -0.171875 "/></g></g></g><g fill="#ffffff" fill-opacity="1"><g transform="translate(283.695961, 262.900692)"><g><path d="M 29.34375 -4.734375 L 29.046875 -4.9375 C 27.21875 -2.6875 23.515625 -1.359375 20.3125 -1.359375 C 12.78125 -1.359375 6.6875 -8.515625 6.6875 -17.375 C 6.6875 -25.34375 11.375 -29.515625 17.078125 -29.515625 C 23.59375 -29.515625 26.75 -24.109375 24.453125 -18.484375 L 24.578125 -18.4375 L 29.984375 -25.9375 C 28.03125 -28.328125 24.578125 -30.40625 19.171875 -30.40625 C 10.390625 -30.40625 1.921875 -24.75 1.921875 -14.90625 C 1.921875 -5.75 9.25 0.59375 18.234375 0.59375 C 23.765625 0.59375 27.515625 -1.828125 29.34375 -4.734375 Z M 29.34375 -4.734375 "/></g></g></g><g fill="#d2ebe7" fill-opacity="1"><g transform="translate(124.317498, 291.506026)"><g><path d="M 6.640625 0 L 6.640625 -0.28125 C 5.515625 -0.28125 5 -0.46875 5 -1.546875 L 5 -8.9375 L 7.75 -8.9375 C 10.15625 -8.9375 10.484375 -7.984375 10.484375 -5.015625 L 10.796875 -5.015625 L 10.796875 -12.890625 L 10.484375 -12.890625 C 10.484375 -10.21875 10.15625 -9.28125 7.75 -9.25 L 5 -9.25 L 5 -17.03125 L 7.796875 -17.03125 C 10.296875 -16.984375 11.96875 -16.796875 13.21875 -13.5625 L 13.53125 -13.5625 L 12.265625 -17.34375 L 0.71875 -17.34375 L 0.71875 -17.03125 C 1.859375 -17.03125 2.359375 -16.84375 2.359375 -15.75 L 2.359375 -1.59375 C 2.359375 -0.5 1.859375 -0.3125 0.71875 -0.3125 L 0.71875 0 Z M 6.640625 0 "/></g></g></g><g fill="#d2ebe7" fill-opacity="1"><g transform="translate(145.567586, 291.506026)"><g><path d="M 2.359375 -1.59375 C 2.359375 -0.46875 1.859375 -0.3125 0.71875 -0.3125 L 0.71875 0 L 6.640625 0 L 6.609375 -0.3125 C 5.5 -0.3125 4.96875 -0.46875 4.96875 -1.59375 L 4.96875 -15.75 C 4.96875 -16.859375 5.5 -17.03125 6.640625 -17.03125 L 6.640625 -17.34375 L 0.71875 -17.34375 L 0.71875 -17.03125 C 1.859375 -17.03125 2.359375 -16.859375 2.359375 -15.75 Z M 2.359375 -1.59375 "/></g></g></g><g fill="#d2ebe7" fill-opacity="1"><g transform="translate(160.044477, 291.506026)"><g><path d="M 0.59375 -17.34375 L 0.59375 -17.03125 C 1.671875 -17.03125 2.46875 -16.734375 3.046875 -15.796875 L 3.046875 -1.59375 C 3.046875 -0.328125 2.5 -0.3125 1.359375 -0.3125 L 1.359375 0 L 5.046875 0 L 5.046875 -0.3125 C 3.921875 -0.3125 3.359375 -0.328125 3.359375 -1.59375 L 3.359375 -15.359375 L 14.359375 0 L 14.671875 0 L 14.65625 -15.859375 C 14.703125 -17 15.25 -17.03125 16.34375 -17.03125 L 16.34375 -17.34375 L 12.671875 -17.34375 L 12.671875 -17.03125 C 13.796875 -17.03125 14.34375 -17 14.34375 -15.75 L 14.359375 -4.5 L 5.15625 -17.34375 Z M 0.59375 -17.34375 "/></g></g></g><g fill="#d2ebe7" fill-opacity="1"><g transform="translate(184.098901, 291.506026)"><g><path d="M 0.71875 0 L 7.84375 0 C 15.09375 0 17.484375 -4.234375 17.484375 -8.890625 C 17.484375 -16.546875 11.609375 -17.34375 8.46875 -17.34375 L 0.71875 -17.34375 L 0.71875 -17.03125 C 1.859375 -17.03125 2.359375 -16.84375 2.359375 -15.75 L 2.359375 -1.59375 C 2.359375 -0.46875 1.859375 -0.3125 0.71875 -0.3125 Z M 7.640625 -0.3125 C 5.703125 -0.3125 4.96875 -0.5 4.96875 -1.59375 L 4.96875 -15.765625 C 4.96875 -16.84375 5.796875 -17.03125 8.03125 -17.03125 C 11.96875 -17.03125 14.890625 -14.3125 14.890625 -8.890625 C 14.890625 -4.90625 13.609375 -0.3125 7.640625 -0.3125 Z M 7.640625 -0.3125 "/></g></g></g><g fill="#d2ebe7" fill-opacity="1"><g transform="translate(209.888217, 291.506026)"><g><path d="M 0.71875 0 L 13.578125 0 L 15.265625 -6.828125 L 14.953125 -6.828125 C 13.859375 -3.1875 12.25 -0.3125 8.1875 -0.3125 C 5.75 -0.3125 5 -0.5 5 -1.59375 L 5 -8.9375 L 7.734375 -8.9375 C 10.46875 -8.9375 10.46875 -7.4375 10.46875 -5.015625 L 10.765625 -5.015625 L 10.765625 -12.890625 L 10.46875 -12.890625 C 10.46875 -10.484375 10.296875 -9.28125 7.734375 -9.25 L 5 -9.25 L 5 -15.75 C 5 -16.859375 5.96875 -17 9.390625 -17 C 12.078125 -17 13.078125 -16.296875 13.953125 -13.578125 L 14.265625 -13.578125 L 13.015625 -17.34375 L 0.71875 -17.34375 L 0.71875 -17.03125 C 1.859375 -17.03125 2.359375 -16.859375 2.359375 -15.75 L 2.375 -1.359375 C 2.28125 -0.46875 1.765625 -0.3125 0.71875 -0.3125 Z M 0.71875 0 "/></g></g></g><g fill="#d2ebe7" fill-opacity="1"><g transform="translate(232.896962, 291.506026)"><g><path d="M 0.71875 0 L 6.609375 0 L 6.609375 -0.3125 C 5.46875 -0.3125 4.96875 -0.5 4.96875 -1.59375 L 4.96875 -8.78125 L 7.046875 -8.78125 L 11.203125 -2.734375 C 12.109375 -1.421875 13.203125 0 15.171875 0 L 17.53125 0 L 17.53125 -0.3125 C 16.625 -0.3125 15.84375 -0.578125 15.125 -1.59375 L 10.84375 -7.796875 C 10.484375 -7.515625 10.0625 -7.34375 9.609375 -7.34375 C 8.84375 -7.34375 8.015625 -7.796875 7.390625 -8.78125 L 8.390625 -8.78125 C 11.171875 -8.78125 14.65625 -9.375 14.65625 -13.109375 C 14.65625 -16.90625 10.984375 -17.34375 7.46875 -17.34375 L 0.71875 -17.34375 L 0.71875 -17.03125 C 1.828125 -17.03125 2.359375 -16.859375 2.359375 -15.75 L 2.359375 -1.59375 C 2.359375 -0.5 1.828125 -0.3125 0.71875 -0.3125 Z M 4.96875 -9.078125 L 4.96875 -17.03125 L 7.9375 -17.03125 C 10.578125 -17.03125 12.0625 -15.640625 12.0625 -13.078125 C 12.0625 -9.890625 10.015625 -9.078125 7.484375 -9.078125 Z M 4.96875 -9.078125 "/></g></g></g></svg>