<svg xmlns="http://www.w3.org/2000/svg" xmlns:xlink="http://www.w3.org/1999/xlink" width="500" zoomAndPan="magnify" viewBox="0 0 375 374.999991" height="500" preserveAspectRatio="xMidYMid meet" version="1.0"><defs><g/><clipPath id="fb45b0d4b4"><path d="M 71.527344 84.027344 L 290.972656 84.027344 L 290.972656 303.472656 L 71.527344 303.472656 Z M 71.527344 84.027344 " clip-rule="nonzero"/></clipPath><clipPath id="f0713da6fa"><path d="M 181.25 84.027344 C 120.652344 84.027344 71.527344 133.152344 71.527344 193.75 C 71.527344 254.347656 120.652344 303.472656 181.25 303.472656 C 241.847656 303.472656 290.972656 254.347656 290.972656 193.75 C 290.972656 133.152344 241.847656 84.027344 181.25 84.027344 Z M 181.25 84.027344 " clip-rule="nonzero"/></clipPath><clipPath id="94c522641d"><path d="M 125.082031 220.089844 L 158.785156 220.089844 L 158.785156 277.695312 L 125.082031 277.695312 Z M 125.082031 220.089844 " clip-rule="nonzero"/></clipPath><clipPath id="a5bdc6877f"><path d="M 125.082031 103.027344 L 158.785156 103.027344 L 158.785156 136.730469 L 125.082031 136.730469 Z M 125.082031 103.027344 " clip-rule="nonzero"/></clipPath><clipPath id="65fc8c838e"><path d="M 141.933594 103.027344 C 132.625 103.027344 125.082031 110.570312 125.082031 119.878906 C 125.082031 129.1875 132.625 136.730469 141.933594 136.730469 C 151.242188 136.730469 158.785156 129.1875 158.785156 119.878906 C 158.785156 110.570312 151.242188 103.027344 141.933594 103.027344 Z M 141.933594 103.027344 " clip-rule="nonzero"/></clipPath><clipPath id="6d9b0fdc3e"><path d="M 212.296875 206.71875 L 246 206.71875 L 246 241.828125 L 212.296875 241.828125 Z M 212.296875 206.71875 " clip-rule="nonzero"/></clipPath><clipPath id="e128984fcf"><path d="M 183.90625 131.050781 L 240.683594 131.050781 L 240.683594 160.824219 L 183.90625 160.824219 Z M 183.90625 131.050781 " clip-rule="nonzero"/></clipPath><clipPath id="f0577e8f01"><path d="M 187.960938 143.058594 L 202.609375 143.058594 L 202.609375 157.710938 L 187.960938 157.710938 Z M 187.960938 143.058594 " clip-rule="nonzero"/></clipPath><clipPath id="2f2cf06f0b"><path d="M 195.285156 143.058594 C 191.238281 143.058594 187.960938 146.335938 187.960938 150.382812 C 187.960938 154.429688 191.238281 157.710938 195.285156 157.710938 C 199.332031 157.710938 202.609375 154.429688 202.609375 150.382812 C 202.609375 146.335938 199.332031 143.058594 195.285156 143.058594 Z M 195.285156 143.058594 " clip-rule="nonzero"/></clipPath><clipPath id="26cbd66820"><path d="M 221.675781 143.058594 L 236.328125 143.058594 L 236.328125 157.710938 L 221.675781 157.710938 Z M 221.675781 143.058594 " clip-rule="nonzero"/></clipPath><clipPath id="5709fb7e0e"><path d="M 229.003906 143.058594 C 224.957031 143.058594 221.675781 146.335938 221.675781 150.382812 C 221.675781 154.429688 224.957031 157.710938 229.003906 157.710938 C 233.050781 157.710938 236.328125 154.429688 236.328125 150.382812 C 236.328125 146.335938 233.050781 143.058594 229.003906 143.058594 Z M 229.003906 143.058594 " clip-rule="nonzero"/></clipPath></defs><g clip-path="url(#fb45b0d4b4)"><g clip-path="url(#f0713da6fa)"><path fill="#ffffff" d="M 71.527344 84.027344 L 290.972656 84.027344 L 290.972656 303.472656 L 71.527344 303.472656 Z M 71.527344 84.027344 " fill-opacity="1" fill-rule="nonzero"/></g></g><g clip-path="url(#94c522641d)"><path fill="#38b6ff" d="M 125.082031 220.089844 L 158.785156 220.089844 L 158.785156 277.757812 L 125.082031 277.757812 Z M 125.082031 220.089844 " fill-opacity="1" fill-rule="nonzero"/></g><g clip-path="url(#a5bdc6877f)"><g clip-path="url(#65fc8c838e)"><path fill="#38b6ff" d="M 125.082031 103.027344 L 158.785156 103.027344 L 158.785156 136.730469 L 125.082031 136.730469 Z M 125.082031 103.027344 " fill-opacity="1" fill-rule="nonzero"/></g></g><g clip-path="url(#6d9b0fdc3e)"><path fill="#38b6ff" d="M 212.296875 206.71875 L 246 206.71875 L 246 241.871094 L 212.296875 241.871094 Z M 212.296875 206.71875 " fill-opacity="1" fill-rule="nonzero"/></g><g fill="#000000" fill-opacity="1"><g transform="translate(136.221382, 187.057572)"><g><path d="M 7.046875 0 L 7.046875 -68.453125 L 19.3125 -68.453125 L 19.3125 -42.46875 L 20.234375 -42.28125 C 21.859375 -44.675781 23.847656 -46.519531 26.203125 -47.8125 C 28.566406 -49.113281 31.421875 -49.765625 34.765625 -49.765625 C 45.535156 -49.765625 50.921875 -43.65625 50.921875 -31.4375 L 50.921875 0 L 38.65625 0 L 38.65625 -29.890625 C 38.65625 -33.222656 37.988281 -35.640625 36.65625 -37.140625 C 35.332031 -38.648438 33.269531 -39.40625 30.46875 -39.40625 C 27.039062 -39.40625 24.320312 -38.257812 22.3125 -35.96875 C 20.3125 -33.6875 19.3125 -30.125 19.3125 -25.28125 L 19.3125 0 Z M 7.046875 0 "/></g></g></g><g fill="#000000" fill-opacity="1"><g transform="translate(136.221382, 246.894588)"><g><path d="M 7.046875 19.796875 L 7.046875 -48.84375 L 19.3125 -48.84375 L 19.3125 -42.46875 L 20.234375 -42.28125 C 21.679688 -44.769531 23.613281 -46.640625 26.03125 -47.890625 C 28.457031 -49.140625 31.296875 -49.765625 34.546875 -49.765625 C 38.460938 -49.765625 41.890625 -48.832031 44.828125 -46.96875 C 47.765625 -45.113281 50.050781 -42.289062 51.6875 -38.5 C 53.332031 -34.707031 54.15625 -30.007812 54.15625 -24.40625 C 54.15625 -18.820312 53.289062 -14.140625 51.5625 -10.359375 C 49.832031 -6.578125 47.429688 -3.75 44.359375 -1.875 C 41.296875 0 37.753906 0.9375 33.734375 0.9375 C 30.703125 0.9375 28.078125 0.425781 25.859375 -0.59375 C 23.640625 -1.613281 21.765625 -3.203125 20.234375 -5.359375 L 19.3125 -5.1875 L 19.3125 19.796875 Z M 30.328125 -9.46875 C 33.992188 -9.46875 36.769531 -10.664062 38.65625 -13.0625 C 40.539062 -15.457031 41.484375 -19.238281 41.484375 -24.40625 C 41.484375 -29.5625 40.539062 -33.34375 38.65625 -35.75 C 36.769531 -38.15625 33.992188 -39.359375 30.328125 -39.359375 C 26.910156 -39.359375 24.195312 -38.117188 22.1875 -35.640625 C 20.175781 -33.160156 19.171875 -29.414062 19.171875 -24.40625 C 19.171875 -19.414062 20.175781 -15.675781 22.1875 -13.1875 C 24.195312 -10.707031 26.910156 -9.46875 30.328125 -9.46875 Z M 30.328125 -9.46875 "/></g></g></g><g fill="#000000" fill-opacity="1"><g transform="translate(189.720896, 246.894588)"><g><path d="M 48.265625 -21.65625 L 16.875 -21.65625 C 17.226562 -17.40625 18.4375 -14.3125 20.5 -12.375 C 22.570312 -10.4375 25.390625 -9.46875 28.953125 -9.46875 C 31.765625 -9.46875 34.039062 -9.992188 35.78125 -11.046875 C 37.519531 -12.097656 38.921875 -13.6875 39.984375 -15.8125 L 40.921875 -15.8125 L 49.0625 -10.578125 C 47.46875 -7.160156 45.0625 -4.382812 41.84375 -2.25 C 38.625 -0.125 34.328125 0.9375 28.953125 0.9375 C 23.910156 0.9375 19.550781 -0.0195312 15.875 -1.9375 C 12.195312 -3.863281 9.363281 -6.722656 7.375 -10.515625 C 5.382812 -14.304688 4.390625 -18.9375 4.390625 -24.40625 C 4.390625 -29.945312 5.4375 -34.617188 7.53125 -38.421875 C 9.625 -42.234375 12.457031 -45.078125 16.03125 -46.953125 C 19.601562 -48.828125 23.617188 -49.765625 28.078125 -49.765625 C 34.984375 -49.765625 40.273438 -47.9375 43.953125 -44.28125 C 47.628906 -40.625 49.46875 -35.25 49.46875 -28.15625 C 49.46875 -25.59375 49.378906 -23.601562 49.203125 -22.1875 Z M 37.734375 -29.578125 C 37.609375 -33.296875 36.738281 -36.003906 35.125 -37.703125 C 33.519531 -39.398438 31.171875 -40.25 28.078125 -40.25 C 21.878906 -40.25 18.234375 -36.691406 17.140625 -29.578125 Z M 37.734375 -29.578125 "/></g></g></g><g fill="#000000" fill-opacity="1"><g transform="translate(183.896562, 187.057572)"><g><path d="M 28.390625 0.9375 C 23.597656 0.9375 19.394531 -0.0390625 15.78125 -2 C 12.164062 -3.96875 9.363281 -6.847656 7.375 -10.640625 C 5.382812 -14.441406 4.390625 -19.03125 4.390625 -24.40625 C 4.390625 -29.769531 5.382812 -34.351562 7.375 -38.15625 C 9.363281 -41.96875 12.164062 -44.851562 15.78125 -46.8125 C 19.394531 -48.78125 23.597656 -49.765625 28.390625 -49.765625 C 33.171875 -49.765625 37.367188 -48.78125 40.984375 -46.8125 C 44.597656 -44.851562 47.40625 -41.96875 49.40625 -38.15625 C 51.414062 -34.351562 52.421875 -29.769531 52.421875 -24.40625 C 52.421875 -19.03125 51.414062 -14.441406 49.40625 -10.640625 C 47.40625 -6.847656 44.597656 -3.96875 40.984375 -2 C 37.367188 -0.0390625 33.171875 0.9375 28.390625 0.9375 Z M 28.390625 -9.46875 C 35.972656 -9.46875 39.765625 -14.445312 39.765625 -24.40625 C 39.765625 -29.5625 38.789062 -33.34375 36.84375 -35.75 C 34.894531 -38.15625 32.078125 -39.359375 28.390625 -39.359375 C 20.796875 -39.359375 17 -34.375 17 -24.40625 C 17 -14.445312 20.796875 -9.46875 28.390625 -9.46875 Z M 28.390625 -9.46875 "/></g></g></g><g clip-path="url(#e128984fcf)"><path fill="#38b6ff" d="M 183.90625 131.050781 L 240.664062 131.050781 L 240.664062 160.824219 L 183.90625 160.824219 Z M 183.90625 131.050781 " fill-opacity="1" fill-rule="nonzero"/></g><g clip-path="url(#f0577e8f01)"><g clip-path="url(#2f2cf06f0b)"><path fill="#ffffff" d="M 187.960938 143.058594 L 202.609375 143.058594 L 202.609375 157.710938 L 187.960938 157.710938 Z M 187.960938 143.058594 " fill-opacity="1" fill-rule="nonzero"/></g></g><g clip-path="url(#26cbd66820)"><g clip-path="url(#5709fb7e0e)"><path fill="#ffffff" d="M 221.675781 143.058594 L 236.328125 143.058594 L 236.328125 157.710938 L 221.675781 157.710938 Z M 221.675781 143.058594 " fill-opacity="1" fill-rule="nonzero"/></g></g></svg>