<svg xmlns="http://www.w3.org/2000/svg" xmlns:xlink="http://www.w3.org/1999/xlink" width="1366" zoomAndPan="magnify" viewBox="0 0 1024.5 576" height="768" preserveAspectRatio="xMidYMid meet" version="1.0"><defs><clipPath id="9a4aa076b0"><path d="M 0 0.140625 L 1024 0.140625 L 1024 575.859375 L 0 575.859375 Z M 0 0.140625 " clip-rule="nonzero"/></clipPath><clipPath id="80b2647395"><path d="M 795.78125 0.140625 L 1024 0.140625 L 1024 201.496094 L 795.78125 201.496094 Z M 795.78125 0.140625 " clip-rule="nonzero"/></clipPath><clipPath id="0d16aae923"><path d="M 930 -66.9375 C 855.875 -66.9375 795.78125 -6.84375 795.78125 67.28125 C 795.78125 141.40625 855.875 201.496094 930 201.496094 C 1004.125 201.496094 1064.214844 141.40625 1064.214844 67.28125 C 1064.214844 -6.84375 1004.125 -66.9375 930 -66.9375 Z M 930 -66.9375 " clip-rule="nonzero"/></clipPath><clipPath id="0df8b52711"><path d="M 0 359.355469 L 227.617188 359.355469 L 227.617188 575.859375 L 0 575.859375 Z M 0 359.355469 " clip-rule="nonzero"/></clipPath><clipPath id="cb1d1265fa"><path d="M 93.398438 359.355469 C 19.273438 359.355469 -40.816406 419.445312 -40.816406 493.570312 C -40.816406 567.695312 19.273438 627.785156 93.398438 627.785156 C 167.523438 627.785156 227.617188 567.695312 227.617188 493.570312 C 227.617188 419.445312 167.523438 359.355469 93.398438 359.355469 Z M 93.398438 359.355469 " clip-rule="nonzero"/></clipPath></defs><g clip-path="url(#9a4aa076b0)"><path fill="#ffffff" d="M 0 0.140625 L 1024 0.140625 L 1024 575.859375 L 0 575.859375 Z M 0 0.140625 " fill-opacity="1" fill-rule="nonzero"/><path fill="#f6e9b2" d="M 0 0.140625 L 1024 0.140625 L 1024 575.859375 L 0 575.859375 Z M 0 0.140625 " fill-opacity="1" fill-rule="nonzero"/></g><g clip-path="url(#80b2647395)"><g clip-path="url(#0d16aae923)"><path fill="#0a6847" d="M 795.78125 -66.9375 L 1064.214844 -66.9375 L 1064.214844 201.496094 L 795.78125 201.496094 Z M 795.78125 -66.9375 " fill-opacity="1" fill-rule="nonzero"/></g></g><g clip-path="url(#0df8b52711)"><g clip-path="url(#cb1d1265fa)"><path fill="#0a6847" d="M -40.816406 359.355469 L 227.617188 359.355469 L 227.617188 627.785156 L -40.816406 627.785156 Z M -40.816406 359.355469 " fill-opacity="1" fill-rule="nonzero"/></g></g></svg>