<svg xmlns="http://www.w3.org/2000/svg" xmlns:xlink="http://www.w3.org/1999/xlink" width="793" zoomAndPan="magnify" viewBox="0 0 595.5 842.249979" height="1122" preserveAspectRatio="xMidYMid meet" version="1.0"><defs><filter x="0%" y="0%" width="100%" height="100%" id="1bda4e82eb"><feColorMatrix values="0 0 0 0 1 0 0 0 0 1 0 0 0 0 1 0 0 0 1 0" color-interpolation-filters="sRGB"/></filter><clipPath id="be4b1e9c78"><path d="M 0.015625 0 L 594.984375 0 L 594.984375 841.5 L 0.015625 841.5 Z M 0.015625 0 " clip-rule="nonzero"/></clipPath><clipPath id="f32af126ee"><path d="M 38.128906 30.9375 L 556.648438 30.9375 L 556.648438 810.746094 L 38.128906 810.746094 Z M 38.128906 30.9375 " clip-rule="nonzero"/></clipPath><clipPath id="9b317b832a"><path d="M 65.851562 30.9375 L 528.921875 30.9375 C 536.277344 30.9375 543.328125 33.859375 548.527344 39.058594 C 553.726562 44.257812 556.648438 51.3125 556.648438 58.664062 L 556.648438 782.476562 C 556.648438 789.828125 553.726562 796.882812 548.527344 802.082031 C 543.328125 807.28125 536.277344 810.203125 528.921875 810.203125 L 65.851562 810.203125 C 58.5 810.203125 51.449219 807.28125 46.246094 802.082031 C 41.046875 796.882812 38.128906 789.828125 38.128906 782.476562 L 38.128906 58.664062 C 38.128906 51.3125 41.046875 44.257812 46.246094 39.058594 C 51.449219 33.859375 58.5 30.9375 65.851562 30.9375 Z M 65.851562 30.9375 " clip-rule="nonzero"/></clipPath><mask id="a7dd2cdb68"><g filter="url(#1bda4e82eb)"><rect x="-59.55" width="714.6" fill="#000000" y="-84.224998" height="1010.699974" fill-opacity="0.1"/></g></mask><clipPath id="b41b8c36f2"><path d="M 198 19 L 238.488281 19 L 238.488281 137 L 198 137 Z M 198 19 " clip-rule="nonzero"/></clipPath><clipPath id="98f540e250"><path d="M 233 47 L 238.488281 47 L 238.488281 95 L 233 95 Z M 233 47 " clip-rule="nonzero"/></clipPath><clipPath id="3d743e2062"><path d="M 120 192 L 136 192 L 136 238.5625 L 120 238.5625 Z M 120 192 " clip-rule="nonzero"/></clipPath><clipPath id="da61863c16"><path d="M 1.03125 118 L 12 118 L 12 138 L 1.03125 138 Z M 1.03125 118 " clip-rule="nonzero"/></clipPath><clipPath id="4fd707691e"><path d="M 168 121 L 238.488281 121 L 238.488281 214 L 168 214 Z M 168 121 " clip-rule="nonzero"/></clipPath><clipPath id="0d8522d0b1"><path d="M 1.03125 1.160156 L 59 1.160156 L 59 113 L 1.03125 113 Z M 1.03125 1.160156 " clip-rule="nonzero"/></clipPath><clipPath id="76f7471d6d"><path d="M 43 129 L 117 129 L 117 238.5625 L 43 238.5625 Z M 43 129 " clip-rule="nonzero"/></clipPath><clipPath id="bb1932c515"><path d="M 1.03125 1.160156 L 115 1.160156 L 115 171 L 1.03125 171 Z M 1.03125 1.160156 " clip-rule="nonzero"/></clipPath><clipPath id="130eaf5928"><path d="M 92 1.160156 L 136 1.160156 L 136 151 L 92 151 Z M 92 1.160156 " clip-rule="nonzero"/></clipPath><clipPath id="aa78504ff5"><path d="M 175 1.160156 L 238.488281 1.160156 L 238.488281 171 L 175 171 Z M 175 1.160156 " clip-rule="nonzero"/></clipPath><clipPath id="fde6cdf1d6"><path d="M 131 1.160156 L 213 1.160156 L 213 238.5625 L 131 238.5625 Z M 131 1.160156 " clip-rule="nonzero"/></clipPath><clipPath id="997a8a9b2b"><path d="M 40 43 L 176 43 L 176 238.5625 L 40 238.5625 Z M 40 43 " clip-rule="nonzero"/></clipPath><clipPath id="31b643ef30"><path d="M 1.03125 180 L 59 180 L 59 238.5625 L 1.03125 238.5625 Z M 1.03125 180 " clip-rule="nonzero"/></clipPath><clipPath id="99c968ab51"><rect x="0" width="239" y="0" height="239"/></clipPath><mask id="16d93c5f0f"><g filter="url(#1bda4e82eb)"><rect x="-59.55" width="714.6" fill="#000000" y="-84.224998" height="1010.699974" fill-opacity="0.1"/></g></mask><clipPath id="3db2667540"><path d="M 197 19 L 237.480469 19 L 237.480469 137 L 197 137 Z M 197 19 " clip-rule="nonzero"/></clipPath><clipPath id="98fe514978"><path d="M 232 47 L 237.480469 47 L 237.480469 95 L 232 95 Z M 232 47 " clip-rule="nonzero"/></clipPath><clipPath id="debbb381e0"><path d="M 119 192 L 135 192 L 135 238.5625 L 119 238.5625 Z M 119 192 " clip-rule="nonzero"/></clipPath><clipPath id="6d77bf5561"><path d="M 0.0976562 118 L 11 118 L 11 138 L 0.0976562 138 Z M 0.0976562 118 " clip-rule="nonzero"/></clipPath><clipPath id="6d8909433e"><path d="M 167 121 L 237.480469 121 L 237.480469 214 L 167 214 Z M 167 121 " clip-rule="nonzero"/></clipPath><clipPath id="0eef73002e"><path d="M 0.0976562 1.160156 L 58 1.160156 L 58 113 L 0.0976562 113 Z M 0.0976562 1.160156 " clip-rule="nonzero"/></clipPath><clipPath id="d2f83aa426"><path d="M 42 129 L 116 129 L 116 238.5625 L 42 238.5625 Z M 42 129 " clip-rule="nonzero"/></clipPath><clipPath id="4a23224614"><path d="M 0.0976562 1.160156 L 114 1.160156 L 114 171 L 0.0976562 171 Z M 0.0976562 1.160156 " clip-rule="nonzero"/></clipPath><clipPath id="265e560bc4"><path d="M 91 1.160156 L 135 1.160156 L 135 151 L 91 151 Z M 91 1.160156 " clip-rule="nonzero"/></clipPath><clipPath id="994f1e60b7"><path d="M 174 1.160156 L 237.480469 1.160156 L 237.480469 171 L 174 171 Z M 174 1.160156 " clip-rule="nonzero"/></clipPath><clipPath id="3abbae69c7"><path d="M 130 1.160156 L 212 1.160156 L 212 238.5625 L 130 238.5625 Z M 130 1.160156 " clip-rule="nonzero"/></clipPath><clipPath id="867c7a56ed"><path d="M 39 43 L 175 43 L 175 238.5625 L 39 238.5625 Z M 39 43 " clip-rule="nonzero"/></clipPath><clipPath id="368ce2b01b"><path d="M 0.0976562 180 L 58 180 L 58 238.5625 L 0.0976562 238.5625 Z M 0.0976562 180 " clip-rule="nonzero"/></clipPath><clipPath id="ed8dc69a76"><rect x="0" width="238" y="0" height="239"/></clipPath><clipPath id="1a3dd47fbf"><path d="M 510 30 L 594.984375 30 L 594.984375 269 L 510 269 Z M 510 30 " clip-rule="nonzero"/></clipPath><mask id="07a88e31ea"><g filter="url(#1bda4e82eb)"><rect x="-59.55" width="714.6" fill="#000000" y="-84.224998" height="1010.699974" fill-opacity="0.1"/></g></mask><clipPath id="00ccf49d71"><path d="M 1.996094 118 L 12 118 L 12 138 L 1.996094 138 Z M 1.996094 118 " clip-rule="nonzero"/></clipPath><clipPath id="9d1a2ad0ec"><path d="M 1.996094 29.125 L 46.957031 29.125 L 46.957031 113 L 1.996094 113 Z M 1.996094 29.125 " clip-rule="nonzero"/></clipPath><clipPath id="1bb587c016"><path d="M 43 129 L 46.957031 129 L 46.957031 237.4375 L 43 237.4375 Z M 43 129 " clip-rule="nonzero"/></clipPath><clipPath id="789ef89f4f"><path d="M 1.996094 29.125 L 46.957031 29.125 L 46.957031 171 L 1.996094 171 Z M 1.996094 29.125 " clip-rule="nonzero"/></clipPath><clipPath id="a3da316c98"><path d="M 40 43 L 46.957031 43 L 46.957031 237.4375 L 40 237.4375 Z M 40 43 " clip-rule="nonzero"/></clipPath><clipPath id="b56a8c1e16"><path d="M 1.996094 180 L 46.957031 180 L 46.957031 237.4375 L 1.996094 237.4375 Z M 1.996094 180 " clip-rule="nonzero"/></clipPath><clipPath id="8cbafc9fdb"><rect x="0" width="85" y="0" height="239"/></clipPath><mask id="9ae467069b"><g filter="url(#1bda4e82eb)"><rect x="-59.55" width="714.6" fill="#000000" y="-84.224998" height="1010.699974" fill-opacity="0.1"/></g></mask><clipPath id="099812a767"><path d="M 198 18 L 238.488281 18 L 238.488281 136 L 198 136 Z M 198 18 " clip-rule="nonzero"/></clipPath><clipPath id="0dd0912e15"><path d="M 233 46 L 238.488281 46 L 238.488281 95 L 233 95 Z M 233 46 " clip-rule="nonzero"/></clipPath><clipPath id="6bc6d7b991"><path d="M 120 191 L 136 191 L 136 237.949219 L 120 237.949219 Z M 120 191 " clip-rule="nonzero"/></clipPath><clipPath id="282984adce"><path d="M 1.03125 117 L 12 117 L 12 137 L 1.03125 137 Z M 1.03125 117 " clip-rule="nonzero"/></clipPath><clipPath id="10db58996b"><path d="M 168 120 L 238.488281 120 L 238.488281 213 L 168 213 Z M 168 120 " clip-rule="nonzero"/></clipPath><clipPath id="ac61743fe7"><path d="M 1.03125 0.464844 L 59 0.464844 L 59 113 L 1.03125 113 Z M 1.03125 0.464844 " clip-rule="nonzero"/></clipPath><clipPath id="d7c7bf51f2"><path d="M 43 128 L 117 128 L 117 237.949219 L 43 237.949219 Z M 43 128 " clip-rule="nonzero"/></clipPath><clipPath id="190902b3f1"><path d="M 1.03125 0.464844 L 115 0.464844 L 115 170 L 1.03125 170 Z M 1.03125 0.464844 " clip-rule="nonzero"/></clipPath><clipPath id="8f9db175a3"><path d="M 92 0.464844 L 136 0.464844 L 136 151 L 92 151 Z M 92 0.464844 " clip-rule="nonzero"/></clipPath><clipPath id="ef71e8a432"><path d="M 175 0.464844 L 238.488281 0.464844 L 238.488281 170 L 175 170 Z M 175 0.464844 " clip-rule="nonzero"/></clipPath><clipPath id="1fe12cbd15"><path d="M 131 0.464844 L 213 0.464844 L 213 237.949219 L 131 237.949219 Z M 131 0.464844 " clip-rule="nonzero"/></clipPath><clipPath id="c8722bbc09"><path d="M 40 43 L 176 43 L 176 237.949219 L 40 237.949219 Z M 40 43 " clip-rule="nonzero"/></clipPath><clipPath id="c86b5524ec"><path d="M 1.03125 180 L 59 180 L 59 237.949219 L 1.03125 237.949219 Z M 1.03125 180 " clip-rule="nonzero"/></clipPath><clipPath id="507d01d005"><rect x="0" width="239" y="0" height="238"/></clipPath><mask id="eae47bf666"><g filter="url(#1bda4e82eb)"><rect x="-59.55" width="714.6" fill="#000000" y="-84.224998" height="1010.699974" fill-opacity="0.1"/></g></mask><clipPath id="3df59d97b8"><path d="M 197 18 L 237.480469 18 L 237.480469 136 L 197 136 Z M 197 18 " clip-rule="nonzero"/></clipPath><clipPath id="3c183c2435"><path d="M 232 46 L 237.480469 46 L 237.480469 95 L 232 95 Z M 232 46 " clip-rule="nonzero"/></clipPath><clipPath id="e08a5cec37"><path d="M 119 191 L 135 191 L 135 237.949219 L 119 237.949219 Z M 119 191 " clip-rule="nonzero"/></clipPath><clipPath id="5e1f359d05"><path d="M 0.0976562 117 L 11 117 L 11 137 L 0.0976562 137 Z M 0.0976562 117 " clip-rule="nonzero"/></clipPath><clipPath id="0e43700dec"><path d="M 167 120 L 237.480469 120 L 237.480469 213 L 167 213 Z M 167 120 " clip-rule="nonzero"/></clipPath><clipPath id="9fe97026c5"><path d="M 0.0976562 0.464844 L 58 0.464844 L 58 113 L 0.0976562 113 Z M 0.0976562 0.464844 " clip-rule="nonzero"/></clipPath><clipPath id="5b1b06e18f"><path d="M 42 128 L 116 128 L 116 237.949219 L 42 237.949219 Z M 42 128 " clip-rule="nonzero"/></clipPath><clipPath id="da69b98ffa"><path d="M 0.0976562 0.464844 L 114 0.464844 L 114 170 L 0.0976562 170 Z M 0.0976562 0.464844 " clip-rule="nonzero"/></clipPath><clipPath id="43894a1d22"><path d="M 91 0.464844 L 135 0.464844 L 135 151 L 91 151 Z M 91 0.464844 " clip-rule="nonzero"/></clipPath><clipPath id="5ccd0bbc3c"><path d="M 174 0.464844 L 237.480469 0.464844 L 237.480469 170 L 174 170 Z M 174 0.464844 " clip-rule="nonzero"/></clipPath><clipPath id="2d9264f43b"><path d="M 130 0.464844 L 212 0.464844 L 212 237.949219 L 130 237.949219 Z M 130 0.464844 " clip-rule="nonzero"/></clipPath><clipPath id="fb18a6b4cc"><path d="M 39 43 L 175 43 L 175 237.949219 L 39 237.949219 Z M 39 43 " clip-rule="nonzero"/></clipPath><clipPath id="1720a25c7d"><path d="M 0.0976562 180 L 58 180 L 58 237.949219 L 0.0976562 237.949219 Z M 0.0976562 180 " clip-rule="nonzero"/></clipPath><clipPath id="e1a498a9c0"><rect x="0" width="238" y="0" height="238"/></clipPath><clipPath id="034f000b51"><path d="M 510 268 L 594.984375 268 L 594.984375 506 L 510 506 Z M 510 268 " clip-rule="nonzero"/></clipPath><mask id="fb3e32da4c"><g filter="url(#1bda4e82eb)"><rect x="-59.55" width="714.6" fill="#000000" y="-84.224998" height="1010.699974" fill-opacity="0.1"/></g></mask><clipPath id="322e69d1dd"><path d="M 1.996094 117 L 12 117 L 12 137 L 1.996094 137 Z M 1.996094 117 " clip-rule="nonzero"/></clipPath><clipPath id="78d56cc7c4"><path d="M 1.996094 28.425781 L 46.957031 28.425781 L 46.957031 113 L 1.996094 113 Z M 1.996094 28.425781 " clip-rule="nonzero"/></clipPath><clipPath id="743af5a1be"><path d="M 43 128 L 46.957031 128 L 46.957031 236.742188 L 43 236.742188 Z M 43 128 " clip-rule="nonzero"/></clipPath><clipPath id="febcc1f669"><path d="M 1.996094 28.425781 L 46.957031 28.425781 L 46.957031 170 L 1.996094 170 Z M 1.996094 28.425781 " clip-rule="nonzero"/></clipPath><clipPath id="44eb5d0159"><path d="M 40 43 L 46.957031 43 L 46.957031 236.742188 L 40 236.742188 Z M 40 43 " clip-rule="nonzero"/></clipPath><clipPath id="1cad9765a7"><path d="M 1.996094 180 L 46.957031 180 L 46.957031 236.742188 L 1.996094 236.742188 Z M 1.996094 180 " clip-rule="nonzero"/></clipPath><clipPath id="0f900bc417"><rect x="0" width="85" y="0" height="238"/></clipPath><mask id="a71a5b80a7"><g filter="url(#1bda4e82eb)"><rect x="-59.55" width="714.6" fill="#000000" y="-84.224998" height="1010.699974" fill-opacity="0.1"/></g></mask><clipPath id="570e894d01"><path d="M 197 18 L 237.53125 18 L 237.53125 136 L 197 136 Z M 197 18 " clip-rule="nonzero"/></clipPath><clipPath id="0b1521c382"><path d="M 232 46 L 237.53125 46 L 237.53125 95 L 232 95 Z M 232 46 " clip-rule="nonzero"/></clipPath><clipPath id="b5b70c37a6"><path d="M 119 191 L 135 191 L 135 238.097656 L 119 238.097656 Z M 119 191 " clip-rule="nonzero"/></clipPath><clipPath id="0e78d3fa0a"><path d="M 0.140625 117 L 11 117 L 11 137 L 0.140625 137 Z M 0.140625 117 " clip-rule="nonzero"/></clipPath><clipPath id="9e55b4585b"><path d="M 167 121 L 237.53125 121 L 237.53125 213 L 167 213 Z M 167 121 " clip-rule="nonzero"/></clipPath><clipPath id="0e42820ed6"><path d="M 0.140625 0.765625 L 58 0.765625 L 58 113 L 0.140625 113 Z M 0.140625 0.765625 " clip-rule="nonzero"/></clipPath><clipPath id="561a4bafa7"><path d="M 42 128 L 116 128 L 116 238.097656 L 42 238.097656 Z M 42 128 " clip-rule="nonzero"/></clipPath><clipPath id="b1fc139c53"><path d="M 0.140625 0.765625 L 114 0.765625 L 114 171 L 0.140625 171 Z M 0.140625 0.765625 " clip-rule="nonzero"/></clipPath><clipPath id="a3e3a9a6cc"><path d="M 91 0.765625 L 135 0.765625 L 135 151 L 91 151 Z M 91 0.765625 " clip-rule="nonzero"/></clipPath><clipPath id="5080105bd3"><path d="M 174 0.765625 L 237.53125 0.765625 L 237.53125 171 L 174 171 Z M 174 0.765625 " clip-rule="nonzero"/></clipPath><clipPath id="45754e7822"><path d="M 130 0.765625 L 212 0.765625 L 212 238.097656 L 130 238.097656 Z M 130 0.765625 " clip-rule="nonzero"/></clipPath><clipPath id="dc19d3c90f"><path d="M 39 43 L 175 43 L 175 238.097656 L 39 238.097656 Z M 39 43 " clip-rule="nonzero"/></clipPath><clipPath id="abc59c3612"><path d="M 0.140625 180 L 58 180 L 58 238.097656 L 0.140625 238.097656 Z M 0.140625 180 " clip-rule="nonzero"/></clipPath><clipPath id="a1a09465eb"><rect x="0" width="238" y="0" height="239"/></clipPath><mask id="bafece5b4d"><g filter="url(#1bda4e82eb)"><rect x="-59.55" width="714.6" fill="#000000" y="-84.224998" height="1010.699974" fill-opacity="0.1"/></g></mask><clipPath id="77a09f4208"><path d="M 197 18 L 237.730469 18 L 237.730469 136 L 197 136 Z M 197 18 " clip-rule="nonzero"/></clipPath><clipPath id="7515477567"><path d="M 232 46 L 237.730469 46 L 237.730469 95 L 232 95 Z M 232 46 " clip-rule="nonzero"/></clipPath><clipPath id="29ee59fd47"><path d="M 119 191 L 135 191 L 135 238.097656 L 119 238.097656 Z M 119 191 " clip-rule="nonzero"/></clipPath><clipPath id="902498bd19"><path d="M 0.195312 117 L 11 117 L 11 137 L 0.195312 137 Z M 0.195312 117 " clip-rule="nonzero"/></clipPath><clipPath id="1ed6a45530"><path d="M 167 121 L 237.730469 121 L 237.730469 213 L 167 213 Z M 167 121 " clip-rule="nonzero"/></clipPath><clipPath id="5ae6656bc4"><path d="M 0.195312 0.765625 L 58 0.765625 L 58 113 L 0.195312 113 Z M 0.195312 0.765625 " clip-rule="nonzero"/></clipPath><clipPath id="a801bf2bd0"><path d="M 42 128 L 116 128 L 116 238.097656 L 42 238.097656 Z M 42 128 " clip-rule="nonzero"/></clipPath><clipPath id="7387dd48fc"><path d="M 0.195312 0.765625 L 114 0.765625 L 114 171 L 0.195312 171 Z M 0.195312 0.765625 " clip-rule="nonzero"/></clipPath><clipPath id="b1545cc8bd"><path d="M 91 0.765625 L 135 0.765625 L 135 151 L 91 151 Z M 91 0.765625 " clip-rule="nonzero"/></clipPath><clipPath id="68e8c48e2e"><path d="M 174 0.765625 L 237.730469 0.765625 L 237.730469 171 L 174 171 Z M 174 0.765625 " clip-rule="nonzero"/></clipPath><clipPath id="4efa3ff969"><path d="M 131 0.765625 L 213 0.765625 L 213 238.097656 L 131 238.097656 Z M 131 0.765625 " clip-rule="nonzero"/></clipPath><clipPath id="ddcc10f58d"><path d="M 39 43 L 176 43 L 176 238.097656 L 39 238.097656 Z M 39 43 " clip-rule="nonzero"/></clipPath><clipPath id="9494005e62"><path d="M 0.195312 180 L 59 180 L 59 238.097656 L 0.195312 238.097656 Z M 0.195312 180 " clip-rule="nonzero"/></clipPath><clipPath id="de8f421291"><rect x="0" width="238" y="0" height="239"/></clipPath><clipPath id="bc06e0f381"><path d="M 510 505 L 594.984375 505 L 594.984375 744 L 510 744 Z M 510 505 " clip-rule="nonzero"/></clipPath><mask id="c92f6348c7"><g filter="url(#1bda4e82eb)"><rect x="-59.55" width="714.6" fill="#000000" y="-84.224998" height="1010.699974" fill-opacity="0.1"/></g></mask><clipPath id="58aa2ff66e"><path d="M 1.09375 117 L 11 117 L 11 137 L 1.09375 137 Z M 1.09375 117 " clip-rule="nonzero"/></clipPath><clipPath id="2dac12835e"><path d="M 1.09375 28.730469 L 46.050781 28.730469 L 46.050781 113 L 1.09375 113 Z M 1.09375 28.730469 " clip-rule="nonzero"/></clipPath><clipPath id="201ec8fbd1"><path d="M 42 128 L 46.050781 128 L 46.050781 237.046875 L 42 237.046875 Z M 42 128 " clip-rule="nonzero"/></clipPath><clipPath id="a642bab4ca"><path d="M 1.09375 28.730469 L 46.050781 28.730469 L 46.050781 171 L 1.09375 171 Z M 1.09375 28.730469 " clip-rule="nonzero"/></clipPath><clipPath id="a967fa4846"><path d="M 39 43 L 46.050781 43 L 46.050781 237.046875 L 39 237.046875 Z M 39 43 " clip-rule="nonzero"/></clipPath><clipPath id="4f2cb2c965"><path d="M 1.09375 180 L 46.050781 180 L 46.050781 237.046875 L 1.09375 237.046875 Z M 1.09375 180 " clip-rule="nonzero"/></clipPath><clipPath id="163ea2eb0b"><rect x="0" width="85" y="0" height="239"/></clipPath><clipPath id="44243a33c6"><path d="M 38 742 L 276 742 L 276 841.5 L 38 841.5 Z M 38 742 " clip-rule="nonzero"/></clipPath><mask id="c4484e0637"><g filter="url(#1bda4e82eb)"><rect x="-59.55" width="714.6" fill="#000000" y="-84.224998" height="1010.699974" fill-opacity="0.1"/></g></mask><clipPath id="dd6d84b203"><path d="M 197 18 L 237.53125 18 L 237.53125 65.511719 L 197 65.511719 Z M 197 18 " clip-rule="nonzero"/></clipPath><clipPath id="44f03ac0e7"><path d="M 232 46 L 237.53125 46 L 237.53125 65.511719 L 232 65.511719 Z M 232 46 " clip-rule="nonzero"/></clipPath><clipPath id="95cc61d5d1"><path d="M 13.308594 1.070312 L 58 1.070312 L 58 65.511719 L 13.308594 65.511719 Z M 13.308594 1.070312 " clip-rule="nonzero"/></clipPath><clipPath id="70bd9163a9"><path d="M 13.308594 1.070312 L 114 1.070312 L 114 65.511719 L 13.308594 65.511719 Z M 13.308594 1.070312 " clip-rule="nonzero"/></clipPath><clipPath id="607c0782ad"><path d="M 91 1.070312 L 135 1.070312 L 135 65.511719 L 91 65.511719 Z M 91 1.070312 " clip-rule="nonzero"/></clipPath><clipPath id="48ac028bdb"><path d="M 150 12 L 183 12 L 183 65.511719 L 150 65.511719 Z M 150 12 " clip-rule="nonzero"/></clipPath><clipPath id="faf7a74c74"><path d="M 174 1.070312 L 237.53125 1.070312 L 237.53125 65.511719 L 174 65.511719 Z M 174 1.070312 " clip-rule="nonzero"/></clipPath><clipPath id="510d5eacdc"><path d="M 130 1.070312 L 212 1.070312 L 212 65.511719 L 130 65.511719 Z M 130 1.070312 " clip-rule="nonzero"/></clipPath><clipPath id="575c0bf021"><path d="M 39 43 L 175 43 L 175 65.511719 L 39 65.511719 Z M 39 43 " clip-rule="nonzero"/></clipPath><clipPath id="ae76c6e823"><rect x="0" width="238" y="0" height="100"/></clipPath><clipPath id="f53df96b7f"><path d="M 273 742 L 511 742 L 511 841.5 L 273 841.5 Z M 273 742 " clip-rule="nonzero"/></clipPath><mask id="645fc17046"><g filter="url(#1bda4e82eb)"><rect x="-59.55" width="714.6" fill="#000000" y="-84.224998" height="1010.699974" fill-opacity="0.1"/></g></mask><clipPath id="cc1e8d7c87"><path d="M 197 18 L 216.75 18 L 216.75 67.011719 L 197 67.011719 Z M 197 18 " clip-rule="nonzero"/></clipPath><clipPath id="1c0d8a48ee"><path d="M 0.195312 1.070312 L 58 1.070312 L 58 67.011719 L 0.195312 67.011719 Z M 0.195312 1.070312 " clip-rule="nonzero"/></clipPath><clipPath id="10fb6170b6"><path d="M 0.195312 1.070312 L 114 1.070312 L 114 67.011719 L 0.195312 67.011719 Z M 0.195312 1.070312 " clip-rule="nonzero"/></clipPath><clipPath id="b3fc70fcb3"><path d="M 91 1.070312 L 135 1.070312 L 135 67.011719 L 91 67.011719 Z M 91 1.070312 " clip-rule="nonzero"/></clipPath><clipPath id="5b1c591fcf"><path d="M 150 12 L 183 12 L 183 67.011719 L 150 67.011719 Z M 150 12 " clip-rule="nonzero"/></clipPath><clipPath id="b6a21d9dae"><path d="M 174 1.070312 L 216.75 1.070312 L 216.75 67.011719 L 174 67.011719 Z M 174 1.070312 " clip-rule="nonzero"/></clipPath><clipPath id="255bea5b81"><path d="M 131 1.070312 L 213 1.070312 L 213 67.011719 L 131 67.011719 Z M 131 1.070312 " clip-rule="nonzero"/></clipPath><clipPath id="fa3eb1021e"><path d="M 39 43 L 176 43 L 176 67.011719 L 39 67.011719 Z M 39 43 " clip-rule="nonzero"/></clipPath><clipPath id="54f2c8d5f5"><rect x="0" width="238" y="0" height="100"/></clipPath><clipPath id="3cd46c9074"><path d="M 511 770 L 594.984375 770 L 594.984375 841.5 L 511 841.5 Z M 511 770 " clip-rule="nonzero"/></clipPath><mask id="3e29f9b2d8"><g filter="url(#1bda4e82eb)"><rect x="-59.55" width="714.6" fill="#000000" y="-84.224998" height="1010.699974" fill-opacity="0.1"/></g></mask><clipPath id="8d25f08768"><path d="M 0.09375 1.035156 L 28.566406 1.035156 L 28.566406 40 L 0.09375 40 Z M 0.09375 1.035156 " clip-rule="nonzero"/></clipPath><clipPath id="6e2a8a61e6"><rect x="0" width="84" y="0" height="72"/></clipPath></defs><g clip-path="url(#be4b1e9c78)"><path fill="#ffffff" d="M 0.015625 0 L 594.984375 0 L 594.984375 841.5 L 0.015625 841.5 Z M 0.015625 0 " fill-opacity="1" fill-rule="nonzero"/><path fill="#7aba78" d="M 0.015625 0 L 594.984375 0 L 594.984375 841.5 L 0.015625 841.5 Z M 0.015625 0 " fill-opacity="1" fill-rule="nonzero"/></g><g clip-path="url(#f32af126ee)"><g clip-path="url(#9b317b832a)"><path fill="#f6e9b2" d="M 38.128906 30.9375 L 556.648438 30.9375 L 556.648438 810.746094 L 38.128906 810.746094 Z M 38.128906 30.9375 " fill-opacity="1" fill-rule="nonzero"/></g></g><g mask="url(#a7dd2cdb68)"><g transform="matrix(1, 0, 0, 1, 38, 30)"><g clip-path="url(#99c968ab51)"><g clip-path="url(#b41b8c36f2)"><path fill="#0a6847" d="M 220.699219 60.210938 C 224.953125 35.730469 238.890625 21 231.476562 19.160156 C 221.75 16.746094 189.695312 57.605469 200.273438 93.863281 C 207.828125 119.765625 226.839844 132.402344 238.359375 136.089844 L 238.359375 118.378906 C 233.507812 112.316406 226.140625 102.550781 222.304688 90.628906 C 217.84375 76.742188 220.699219 60.210938 220.699219 60.210938 " fill-opacity="1" fill-rule="nonzero"/></g><g clip-path="url(#98f540e250)"><path fill="#0a6847" d="M 233.449219 72.773438 C 234.070312 81.269531 235.980469 88.730469 238.359375 94.847656 L 238.359375 47.019531 C 234.976562 53.558594 232.660156 62 233.449219 72.773438 " fill-opacity="1" fill-rule="nonzero"/></g><g clip-path="url(#3d743e2062)"><path fill="#0a6847" d="M 121.835938 192.476562 C 118.4375 195.019531 122.765625 205.605469 123.746094 217.265625 C 124.550781 226.855469 122.683594 238.453125 122.683594 238.453125 L 135.632812 238.453125 C 135.777344 214.75 125.230469 189.933594 121.835938 192.476562 " fill-opacity="1" fill-rule="nonzero"/></g><g clip-path="url(#da61863c16)"><path fill="#0a6847" d="M 10.082031 136.496094 C 13.589844 132.605469 7.730469 126.664062 3.242188 121.082031 C 2.605469 120.289062 1.867188 119.378906 1.066406 118.378906 L 1.066406 136.089844 C 5.671875 137.5625 9.082031 137.609375 10.082031 136.496094 " fill-opacity="1" fill-rule="nonzero"/></g><g clip-path="url(#4fd707691e)"><path fill="#0a6847" d="M 192.9375 158.789062 C 181.570312 146.480469 175.109375 121.925781 171.289062 121.5 C 167.46875 121.078125 165.691406 143.476562 178.082031 166.628906 C 196.335938 200.738281 224.988281 211.125 238.359375 213.027344 L 238.359375 180.824219 C 238.359375 180.824219 213.101562 180.613281 192.9375 158.789062 " fill-opacity="1" fill-rule="nonzero"/></g><g clip-path="url(#0d8522d0b1)"><path fill="#0a6847" d="M 14.445312 112.601562 C 17.257812 110.484375 12.570312 96.710938 12.101562 84.636719 C 11.632812 72.558594 12.460938 59.757812 19.242188 47.765625 C 24.867188 37.804688 34.90625 30.871094 46.175781 20.828125 C 56.972656 11.207031 58.363281 1.160156 58.363281 1.160156 L 34.894531 1.160156 C 33.402344 11.046875 31.210938 16.976562 15.851562 29.761719 C 12.4375 32.605469 5.734375 37.996094 1.066406 47.019531 L 1.066406 94.847656 C 5.863281 107.1875 12.5625 114.019531 14.445312 112.601562 " fill-opacity="1" fill-rule="nonzero"/></g><g clip-path="url(#76f7471d6d)"><path fill="#0a6847" d="M 67.511719 164.523438 C 56.234375 157.632812 51.488281 148.703125 54.777344 143.546875 C 58.054688 138.40625 65.222656 139.910156 71.332031 143.441406 C 77.378906 146.9375 84.71875 155.253906 89.371094 162.617188 C 101.257812 181.417969 102.957031 203.292969 102.957031 203.292969 C 97.4375 184.863281 81.730469 173.207031 67.511719 164.523438 Z M 109.527344 184.425781 C 98.707031 153.28125 78.75 129.339844 60.710938 129.339844 C 42.667969 129.339844 37.785156 147.136719 49.671875 163.875 C 61.316406 180.273438 80.871094 184.851562 89.785156 200.527344 C 97.191406 213.546875 98.097656 228.238281 92.757812 238.453125 L 114.40625 238.453125 C 114.40625 238.453125 120.96875 217.371094 109.527344 184.425781 " fill-opacity="1" fill-rule="nonzero"/></g><g clip-path="url(#bb1932c515)"><path fill="#0a6847" d="M 28.449219 159.851562 C 41.605469 145.441406 37.148438 119.171875 35.664062 100.3125 C 34.179688 81.460938 33.957031 61.113281 43.941406 50.316406 C 56.675781 36.542969 77.476562 35.90625 94.457031 26.582031 C 111.433594 17.261719 114.40625 1.160156 114.40625 1.160156 L 92.757812 1.160156 C 87.566406 10.679688 74.929688 9.847656 57.738281 19.804688 C 41.457031 29.234375 30.359375 46.078125 27.171875 63.875 C 23.988281 81.671875 30.292969 114.992188 24.414062 129.765625 C 17.75 146.515625 1.09375 146.503906 1.066406 146.503906 L 1.066406 170.441406 C 1.09375 170.445312 17.425781 171.917969 28.449219 159.851562 " fill-opacity="1" fill-rule="nonzero"/></g><g clip-path="url(#130eaf5928)"><path fill="#0a6847" d="M 111.222656 26.160156 C 103.617188 33.167969 94.164062 34.851562 92.921875 39.292969 C 91.882812 43.003906 97.957031 47.992188 102.628906 54.761719 C 105.09375 58.335938 113.558594 67.792969 116 90.039062 C 117.890625 107.265625 118.3125 137.1875 125.921875 147.226562 C 127.699219 149.570312 130.464844 151.457031 132.542969 150.589844 C 136.371094 148.984375 128.734375 133.257812 125.871094 119.59375 C 123.003906 105.929688 121.730469 84.320312 123.640625 61.4375 C 125.550781 38.554688 135.535156 27.027344 135.632812 1.160156 L 122.683594 1.160156 C 122.683594 1.160156 121.425781 16.761719 111.222656 26.160156 " fill-opacity="1" fill-rule="nonzero"/></g><path fill="#0a6847" d="M 179.035156 12.214844 C 176.226562 12.8125 177.226562 27.664062 171.316406 47.121094 C 167.0625 61.113281 162.734375 72.9375 159.847656 80.867188 C 155.234375 93.535156 151.386719 106.46875 151.636719 122.960938 C 151.871094 138.53125 156.496094 151.28125 157.988281 154.320312 C 159.484375 157.359375 167.476562 174.160156 171.199219 172.609375 C 174.921875 171.058594 160.710938 148.210938 163.203125 115.632812 C 166.320312 74.914062 179.109375 50.960938 182.566406 34.722656 C 186.019531 18.484375 181.535156 11.683594 179.035156 12.214844 " fill-opacity="1" fill-rule="nonzero"/><g clip-path="url(#aa78504ff5)"><path fill="#0a6847" d="M 185.980469 44.980469 C 174.710938 70.972656 170.597656 104.828125 183.386719 129.765625 C 196.96875 156.246094 219.226562 170.152344 238.359375 170.441406 L 238.359375 146.503906 C 238.332031 146.503906 229.050781 146.949219 220.40625 142.253906 C 208.449219 135.757812 196.421875 121.839844 190.6875 100.992188 C 180.578125 64.226562 212.332031 30.609375 212.890625 1.160156 L 198.667969 1.160156 C 198.667969 1.160156 199.402344 14.039062 185.980469 44.980469 " fill-opacity="1" fill-rule="nonzero"/></g><g clip-path="url(#fde6cdf1d6)"><path fill="#0a6847" d="M 187.632812 198.410156 C 162.257812 173.890625 149.183594 154.714844 145.792969 137.757812 C 141.515625 116.378906 144.082031 92.4375 159.902344 56.523438 C 166.511719 41.511719 171.042969 28.917969 173.285156 19.078125 C 174.082031 15.5625 174.671875 12.675781 175.054688 9.917969 C 175.757812 4.875 175.851562 1.160156 175.851562 1.160156 L 164.710938 1.160156 C 163.324219 43.699219 143.230469 71.492188 143.230469 71.492188 C 154.5625 38.570312 154.203125 1.160156 154.203125 1.160156 L 143.0625 1.160156 C 143.65625 45.410156 127.410156 82.179688 133.085938 123.621094 C 138.175781 160.789062 157.800781 178.605469 177.234375 198.832031 C 188.996094 211.082031 194.480469 219.003906 196.890625 225.945312 C 199.167969 232.527344 198.667969 238.453125 198.667969 238.453125 L 212.890625 238.453125 C 213.179688 219.058594 196.070312 206.5625 187.632812 198.410156 " fill-opacity="1" fill-rule="nonzero"/></g><g clip-path="url(#997a8a9b2b)"><path fill="#0a6847" d="M 60.921875 84.636719 C 47.851562 63.066406 60.921875 51.265625 71.429688 54.761719 C 81.933594 58.257812 92.441406 76.375 96.261719 90.355469 C 100.082031 104.339844 104.21875 133.257812 104.21875 133.257812 C 90.53125 109.105469 71.320312 101.796875 60.921875 84.636719 Z M 157.070312 200.316406 C 134.359375 176.902344 122.683594 160.589844 116 135.484375 C 109.3125 110.378906 112.179688 83.046875 101.035156 63.023438 C 89.894531 43.003906 61.875 37.917969 48.503906 51.265625 C 35.132812 64.613281 37.875 91.734375 60.285156 112.285156 C 87.664062 137.390625 145.289062 174.257812 143.0625 238.453125 L 154.203125 238.453125 C 154.242188 217.179688 147.078125 202.21875 147.078125 202.21875 C 166.074219 216.230469 164.710938 238.453125 164.710938 238.453125 L 175.851562 238.453125 C 175.851562 238.453125 176.902344 220.761719 157.070312 200.316406 " fill-opacity="1" fill-rule="nonzero"/></g><g clip-path="url(#31b643ef30)"><path fill="#0a6847" d="M 53.765625 204.25 C 48.632812 194.308594 40.726562 188.363281 33.082031 185.648438 C 24.796875 182.710938 15.792969 181.800781 1.066406 180.824219 L 1.066406 213.027344 C 1.066406 213.027344 13.0625 214.46875 17.851562 215.792969 C 21.617188 216.835938 27.9375 217.6875 32.28125 223.808594 C 35.808594 228.777344 34.894531 238.453125 34.894531 238.453125 L 58.363281 238.453125 C 58.363281 238.453125 61.066406 218.394531 53.765625 204.25 " fill-opacity="1" fill-rule="nonzero"/></g></g></g></g><g mask="url(#16d93c5f0f)"><g transform="matrix(1, 0, 0, 1, 274, 30)"><g clip-path="url(#ed8dc69a76)"><g clip-path="url(#3db2667540)"><path fill="#0a6847" d="M 219.765625 60.210938 C 224.019531 35.730469 237.957031 21 230.542969 19.160156 C 220.816406 16.746094 188.761719 57.605469 199.339844 93.863281 C 206.894531 119.765625 225.90625 132.402344 237.425781 136.089844 L 237.425781 118.378906 C 232.574219 112.316406 225.203125 102.550781 221.371094 90.628906 C 216.910156 76.742188 219.765625 60.210938 219.765625 60.210938 " fill-opacity="1" fill-rule="nonzero"/></g><g clip-path="url(#98fe514978)"><path fill="#0a6847" d="M 232.515625 72.773438 C 233.136719 81.269531 235.046875 88.730469 237.425781 94.847656 L 237.425781 47.019531 C 234.042969 53.558594 231.726562 62 232.515625 72.773438 " fill-opacity="1" fill-rule="nonzero"/></g><g clip-path="url(#debbb381e0)"><path fill="#0a6847" d="M 120.902344 192.476562 C 117.503906 195.019531 121.832031 205.605469 122.8125 217.265625 C 123.617188 226.855469 121.75 238.453125 121.75 238.453125 L 134.699219 238.453125 C 134.84375 214.75 124.296875 189.933594 120.902344 192.476562 " fill-opacity="1" fill-rule="nonzero"/></g><g clip-path="url(#6d77bf5561)"><path fill="#0a6847" d="M 9.148438 136.496094 C 12.65625 132.605469 6.796875 126.664062 2.308594 121.082031 C 1.671875 120.289062 0.933594 119.378906 0.132812 118.378906 L 0.132812 136.089844 C 4.738281 137.5625 8.148438 137.609375 9.148438 136.496094 " fill-opacity="1" fill-rule="nonzero"/></g><g clip-path="url(#6d8909433e)"><path fill="#0a6847" d="M 192.003906 158.789062 C 180.636719 146.480469 174.175781 121.925781 170.355469 121.5 C 166.535156 121.078125 164.757812 143.476562 177.148438 166.628906 C 195.402344 200.738281 224.054688 211.125 237.425781 213.027344 L 237.425781 180.824219 C 237.425781 180.824219 212.167969 180.613281 192.003906 158.789062 " fill-opacity="1" fill-rule="nonzero"/></g><g clip-path="url(#0eef73002e)"><path fill="#0a6847" d="M 13.511719 112.601562 C 16.324219 110.484375 11.636719 96.710938 11.167969 84.636719 C 10.699219 72.558594 11.527344 59.757812 18.308594 47.765625 C 23.933594 37.804688 33.972656 30.871094 45.242188 20.828125 C 56.039062 11.207031 57.429688 1.160156 57.429688 1.160156 L 33.960938 1.160156 C 32.46875 11.046875 30.277344 16.976562 14.917969 29.761719 C 11.503906 32.605469 4.800781 37.996094 0.132812 47.019531 L 0.132812 94.847656 C 4.929688 107.1875 11.628906 114.019531 13.511719 112.601562 " fill-opacity="1" fill-rule="nonzero"/></g><g clip-path="url(#d2f83aa426)"><path fill="#0a6847" d="M 66.578125 164.523438 C 55.300781 157.632812 50.554688 148.703125 53.84375 143.546875 C 57.121094 138.40625 64.289062 139.910156 70.398438 143.441406 C 76.445312 146.9375 83.785156 155.253906 88.4375 162.617188 C 100.324219 181.417969 102.023438 203.292969 102.023438 203.292969 C 96.503906 184.863281 80.796875 173.207031 66.578125 164.523438 Z M 108.59375 184.425781 C 97.773438 153.28125 77.816406 129.339844 59.777344 129.339844 C 41.734375 129.339844 36.851562 147.136719 48.738281 163.875 C 60.382812 180.273438 79.9375 184.851562 88.851562 200.527344 C 96.257812 213.546875 97.164062 228.238281 91.824219 238.453125 L 113.472656 238.453125 C 113.472656 238.453125 120.035156 217.371094 108.59375 184.425781 " fill-opacity="1" fill-rule="nonzero"/></g><g clip-path="url(#4a23224614)"><path fill="#0a6847" d="M 27.515625 159.851562 C 40.671875 145.441406 36.214844 119.171875 34.730469 100.3125 C 33.246094 81.460938 33.023438 61.113281 43.007812 50.316406 C 55.742188 36.542969 76.542969 35.90625 93.523438 26.582031 C 110.5 17.261719 113.472656 1.160156 113.472656 1.160156 L 91.824219 1.160156 C 86.632812 10.679688 73.996094 9.847656 56.804688 19.804688 C 40.523438 29.234375 29.425781 46.078125 26.238281 63.875 C 23.054688 81.671875 29.359375 114.992188 23.480469 129.765625 C 16.816406 146.515625 0.160156 146.503906 0.132812 146.503906 L 0.132812 170.441406 C 0.160156 170.445312 16.488281 171.917969 27.515625 159.851562 " fill-opacity="1" fill-rule="nonzero"/></g><g clip-path="url(#265e560bc4)"><path fill="#0a6847" d="M 110.289062 26.160156 C 102.683594 33.167969 93.230469 34.851562 91.988281 39.292969 C 90.949219 43.003906 97.023438 47.992188 101.695312 54.761719 C 104.160156 58.335938 112.625 67.792969 115.066406 90.039062 C 116.957031 107.265625 117.378906 137.1875 124.988281 147.226562 C 126.765625 149.570312 129.527344 151.457031 131.609375 150.589844 C 135.4375 148.984375 127.800781 133.257812 124.9375 119.59375 C 122.070312 105.929688 120.796875 84.320312 122.707031 61.4375 C 124.617188 38.554688 134.601562 27.027344 134.699219 1.160156 L 121.75 1.160156 C 121.75 1.160156 120.492188 16.761719 110.289062 26.160156 " fill-opacity="1" fill-rule="nonzero"/></g><path fill="#0a6847" d="M 178.101562 12.214844 C 175.292969 12.8125 176.292969 27.664062 170.382812 47.121094 C 166.128906 61.113281 161.800781 72.9375 158.914062 80.867188 C 154.300781 93.535156 150.453125 106.46875 150.703125 122.960938 C 150.9375 138.53125 155.5625 151.28125 157.054688 154.320312 C 158.550781 157.359375 166.542969 174.160156 170.265625 172.609375 C 173.988281 171.058594 159.777344 148.210938 162.269531 115.632812 C 165.386719 74.914062 178.175781 50.960938 181.632812 34.722656 C 185.085938 18.484375 180.601562 11.683594 178.101562 12.214844 " fill-opacity="1" fill-rule="nonzero"/><g clip-path="url(#994f1e60b7)"><path fill="#0a6847" d="M 185.046875 44.980469 C 173.773438 70.972656 169.664062 104.828125 182.453125 129.765625 C 196.035156 156.246094 218.292969 170.152344 237.425781 170.441406 L 237.425781 146.503906 C 237.398438 146.503906 228.117188 146.949219 219.472656 142.253906 C 207.515625 135.757812 195.488281 121.839844 189.753906 100.992188 C 179.644531 64.226562 211.398438 30.609375 211.957031 1.160156 L 197.734375 1.160156 C 197.734375 1.160156 198.46875 14.039062 185.046875 44.980469 " fill-opacity="1" fill-rule="nonzero"/></g><g clip-path="url(#3abbae69c7)"><path fill="#0a6847" d="M 186.699219 198.410156 C 161.324219 173.890625 148.25 154.714844 144.859375 137.757812 C 140.582031 116.378906 143.148438 92.4375 158.96875 56.523438 C 165.578125 41.511719 170.109375 28.917969 172.351562 19.078125 C 173.148438 15.5625 173.738281 12.675781 174.121094 9.917969 C 174.824219 4.875 174.917969 1.160156 174.917969 1.160156 L 163.777344 1.160156 C 162.390625 43.699219 142.296875 71.492188 142.296875 71.492188 C 153.628906 38.570312 153.269531 1.160156 153.269531 1.160156 L 142.128906 1.160156 C 142.722656 45.410156 126.476562 82.179688 132.152344 123.621094 C 137.242188 160.789062 156.867188 178.605469 176.300781 198.832031 C 188.0625 211.082031 193.546875 219.003906 195.957031 225.945312 C 198.234375 232.527344 197.734375 238.453125 197.734375 238.453125 L 211.957031 238.453125 C 212.246094 219.058594 195.136719 206.5625 186.699219 198.410156 " fill-opacity="1" fill-rule="nonzero"/></g><g clip-path="url(#867c7a56ed)"><path fill="#0a6847" d="M 59.988281 84.636719 C 46.917969 63.066406 59.988281 51.265625 70.492188 54.761719 C 81 58.257812 91.507812 76.375 95.328125 90.355469 C 99.148438 104.339844 103.285156 133.257812 103.285156 133.257812 C 89.597656 109.105469 70.386719 101.796875 59.988281 84.636719 Z M 156.136719 200.316406 C 133.425781 176.902344 121.75 160.589844 115.066406 135.484375 C 108.378906 110.378906 111.246094 83.046875 100.101562 63.023438 C 88.960938 43.003906 60.941406 37.917969 47.570312 51.265625 C 34.199219 64.613281 36.9375 91.734375 59.351562 112.285156 C 86.730469 137.390625 144.355469 174.257812 142.128906 238.453125 L 153.269531 238.453125 C 153.308594 217.179688 146.144531 202.21875 146.144531 202.21875 C 165.140625 216.230469 163.777344 238.453125 163.777344 238.453125 L 174.917969 238.453125 C 174.917969 238.453125 175.964844 220.761719 156.136719 200.316406 " fill-opacity="1" fill-rule="nonzero"/></g><g clip-path="url(#368ce2b01b)"><path fill="#0a6847" d="M 52.832031 204.25 C 47.699219 194.308594 39.792969 188.363281 32.148438 185.648438 C 23.863281 182.710938 14.859375 181.800781 0.132812 180.824219 L 0.132812 213.027344 C 0.132812 213.027344 12.128906 214.46875 16.917969 215.792969 C 20.683594 216.835938 27.003906 217.6875 31.347656 223.808594 C 34.875 228.777344 33.960938 238.453125 33.960938 238.453125 L 57.429688 238.453125 C 57.429688 238.453125 60.132812 218.394531 52.832031 204.25 " fill-opacity="1" fill-rule="nonzero"/></g></g></g></g><g clip-path="url(#1a3dd47fbf)"><g mask="url(#07a88e31ea)"><g transform="matrix(1, 0, 0, 1, 510, 30)"><g clip-path="url(#8cbafc9fdb)"><g clip-path="url(#00ccf49d71)"><path fill="#0a6847" d="M 9.96875 136.496094 C 13.476562 132.605469 7.613281 126.664062 3.125 121.082031 C 2.488281 120.289062 1.75 119.378906 0.949219 118.378906 L 0.949219 136.089844 C 5.554688 137.5625 8.964844 137.609375 9.96875 136.496094 " fill-opacity="1" fill-rule="nonzero"/></g><g clip-path="url(#9d1a2ad0ec)"><path fill="#0a6847" d="M 14.328125 112.601562 C 17.140625 110.484375 12.453125 96.710938 11.984375 84.636719 C 11.515625 72.558594 12.34375 59.757812 19.125 47.765625 C 24.75 37.804688 34.789062 30.871094 46.058594 20.828125 C 56.855469 11.207031 58.246094 1.160156 58.246094 1.160156 L 34.777344 1.160156 C 33.285156 11.046875 31.09375 16.976562 15.734375 29.761719 C 12.320312 32.605469 5.617188 37.996094 0.949219 47.019531 L 0.949219 94.847656 C 5.746094 107.1875 12.445312 114.019531 14.328125 112.601562 " fill-opacity="1" fill-rule="nonzero"/></g><g clip-path="url(#1bb587c016)"><path fill="#0a6847" d="M 67.394531 164.523438 C 56.117188 157.632812 51.371094 148.703125 54.660156 143.546875 C 57.9375 138.40625 65.105469 139.910156 71.214844 143.441406 C 77.261719 146.9375 84.601562 155.253906 89.253906 162.617188 C 101.140625 181.417969 102.839844 203.292969 102.839844 203.292969 C 97.320312 184.863281 81.613281 173.207031 67.394531 164.523438 Z M 109.410156 184.425781 C 98.589844 153.28125 78.632812 129.339844 60.59375 129.339844 C 42.550781 129.339844 37.667969 147.136719 49.554688 163.875 C 61.199219 180.273438 80.753906 184.851562 89.667969 200.527344 C 97.074219 213.546875 97.980469 228.238281 92.640625 238.453125 L 114.289062 238.453125 C 114.289062 238.453125 120.851562 217.371094 109.410156 184.425781 " fill-opacity="1" fill-rule="nonzero"/></g><g clip-path="url(#789ef89f4f)"><path fill="#0a6847" d="M 28.332031 159.851562 C 41.488281 145.441406 37.03125 119.171875 35.546875 100.3125 C 34.0625 81.460938 33.839844 61.113281 43.824219 50.316406 C 56.558594 36.542969 77.359375 35.90625 94.339844 26.582031 C 111.316406 17.261719 114.289062 1.160156 114.289062 1.160156 L 92.640625 1.160156 C 87.449219 10.679688 74.8125 9.847656 57.621094 19.804688 C 41.339844 29.234375 30.242188 46.078125 27.058594 63.875 C 23.871094 81.671875 30.175781 114.992188 24.296875 129.765625 C 17.632812 146.515625 0.976562 146.503906 0.949219 146.503906 L 0.949219 170.441406 C 0.976562 170.445312 17.308594 171.917969 28.332031 159.851562 " fill-opacity="1" fill-rule="nonzero"/></g><g clip-path="url(#a3da316c98)"><path fill="#0a6847" d="M 60.804688 84.636719 C 47.734375 63.066406 60.804688 51.265625 71.3125 54.761719 C 81.816406 58.257812 92.324219 76.375 96.144531 90.355469 C 99.964844 104.339844 104.101562 133.257812 104.101562 133.257812 C 90.414062 109.105469 71.203125 101.796875 60.804688 84.636719 Z M 156.953125 200.316406 C 134.242188 176.902344 122.566406 160.589844 115.882812 135.484375 C 109.195312 110.378906 112.0625 83.046875 100.917969 63.023438 C 89.777344 43.003906 61.757812 37.917969 48.386719 51.265625 C 35.015625 64.613281 37.757812 91.734375 60.167969 112.285156 C 87.546875 137.390625 145.171875 174.257812 142.945312 238.453125 L 154.085938 238.453125 C 154.125 217.179688 146.960938 202.21875 146.960938 202.21875 C 165.957031 216.230469 164.59375 238.453125 164.59375 238.453125 L 175.734375 238.453125 C 175.734375 238.453125 176.785156 220.761719 156.953125 200.316406 " fill-opacity="1" fill-rule="nonzero"/></g><g clip-path="url(#b56a8c1e16)"><path fill="#0a6847" d="M 53.648438 204.25 C 48.519531 194.308594 40.609375 188.363281 32.964844 185.648438 C 24.679688 182.710938 15.675781 181.800781 0.949219 180.824219 L 0.949219 213.027344 C 0.949219 213.027344 12.945312 214.46875 17.734375 215.792969 C 21.5 216.835938 27.820312 217.6875 32.164062 223.808594 C 35.691406 228.777344 34.777344 238.453125 34.777344 238.453125 L 58.246094 238.453125 C 58.246094 238.453125 60.949219 218.394531 53.648438 204.25 " fill-opacity="1" fill-rule="nonzero"/></g></g></g></g></g><g mask="url(#9ae467069b)"><g transform="matrix(1, 0, 0, 1, 38, 268)"><g clip-path="url(#507d01d005)"><g clip-path="url(#099812a767)"><path fill="#0a6847" d="M 220.699219 59.515625 C 224.953125 35.035156 238.890625 20.304688 231.476562 18.464844 C 221.75 16.050781 189.695312 56.910156 200.273438 93.164062 C 207.828125 119.070312 226.839844 131.707031 238.359375 135.394531 L 238.359375 117.683594 C 233.507812 111.621094 226.140625 101.851562 222.304688 89.933594 C 217.84375 76.046875 220.699219 59.515625 220.699219 59.515625 " fill-opacity="1" fill-rule="nonzero"/></g><g clip-path="url(#0dd0912e15)"><path fill="#0a6847" d="M 233.449219 72.074219 C 234.070312 80.570312 235.980469 88.035156 238.359375 94.152344 L 238.359375 46.324219 C 234.976562 52.863281 232.660156 61.304688 233.449219 72.074219 " fill-opacity="1" fill-rule="nonzero"/></g><g clip-path="url(#6bc6d7b991)"><path fill="#0a6847" d="M 121.835938 191.78125 C 118.4375 194.324219 122.765625 204.910156 123.746094 216.570312 C 124.550781 226.160156 122.683594 237.757812 122.683594 237.757812 L 135.632812 237.757812 C 135.777344 214.054688 125.230469 189.238281 121.835938 191.78125 " fill-opacity="1" fill-rule="nonzero"/></g><g clip-path="url(#282984adce)"><path fill="#0a6847" d="M 10.082031 135.800781 C 13.589844 131.90625 7.730469 125.96875 3.242188 120.386719 C 2.605469 119.59375 1.867188 118.683594 1.066406 117.683594 L 1.066406 135.394531 C 5.671875 136.867188 9.082031 136.910156 10.082031 135.800781 " fill-opacity="1" fill-rule="nonzero"/></g><g clip-path="url(#10db58996b)"><path fill="#0a6847" d="M 192.9375 158.09375 C 181.570312 145.785156 175.109375 121.226562 171.289062 120.804688 C 167.46875 120.382812 165.691406 142.78125 178.082031 165.933594 C 196.335938 200.042969 224.988281 210.425781 238.359375 212.332031 L 238.359375 180.128906 C 238.359375 180.128906 213.101562 179.914062 192.9375 158.09375 " fill-opacity="1" fill-rule="nonzero"/></g><g clip-path="url(#ac61743fe7)"><path fill="#0a6847" d="M 14.445312 111.90625 C 17.257812 109.789062 12.570312 96.015625 12.101562 83.941406 C 11.632812 71.863281 12.460938 59.0625 19.242188 47.066406 C 24.867188 37.109375 34.90625 30.175781 46.175781 20.132812 C 56.972656 10.511719 58.363281 0.464844 58.363281 0.464844 L 34.894531 0.464844 C 33.402344 10.351562 31.210938 16.28125 15.851562 29.066406 C 12.4375 31.90625 5.734375 37.300781 1.066406 46.324219 L 1.066406 94.152344 C 5.863281 106.492188 12.5625 113.324219 14.445312 111.90625 " fill-opacity="1" fill-rule="nonzero"/></g><g clip-path="url(#d7c7bf51f2)"><path fill="#0a6847" d="M 67.511719 163.824219 C 56.234375 156.9375 51.488281 148.007812 54.777344 142.851562 C 58.054688 137.710938 65.222656 139.214844 71.332031 142.746094 C 77.378906 146.238281 84.71875 154.554688 89.371094 161.917969 C 101.257812 180.722656 102.957031 202.597656 102.957031 202.597656 C 97.4375 184.164062 81.730469 172.511719 67.511719 163.824219 Z M 109.527344 183.730469 C 98.707031 152.582031 78.75 128.644531 60.710938 128.644531 C 42.667969 128.644531 37.785156 146.441406 49.671875 163.179688 C 61.316406 179.578125 80.871094 184.152344 89.785156 199.832031 C 97.191406 212.851562 98.097656 227.539062 92.757812 237.757812 L 114.40625 237.757812 C 114.40625 237.757812 120.96875 216.675781 109.527344 183.730469 " fill-opacity="1" fill-rule="nonzero"/></g><g clip-path="url(#190902b3f1)"><path fill="#0a6847" d="M 28.449219 159.152344 C 41.605469 144.746094 37.148438 118.472656 35.664062 99.617188 C 34.179688 80.761719 33.957031 60.414062 43.941406 49.617188 C 56.675781 35.847656 77.476562 35.210938 94.457031 25.886719 C 111.433594 16.566406 114.40625 0.464844 114.40625 0.464844 L 92.757812 0.464844 C 87.566406 9.980469 74.929688 9.148438 57.738281 19.109375 C 41.457031 28.539062 30.359375 45.382812 27.171875 63.179688 C 23.988281 80.972656 30.292969 114.296875 24.414062 129.070312 C 17.75 145.816406 1.09375 145.804688 1.066406 145.804688 L 1.066406 169.746094 C 1.09375 169.75 17.425781 171.222656 28.449219 159.152344 " fill-opacity="1" fill-rule="nonzero"/></g><g clip-path="url(#8f9db175a3)"><path fill="#0a6847" d="M 111.222656 25.464844 C 103.617188 32.472656 94.164062 34.15625 92.921875 38.597656 C 91.882812 42.308594 97.957031 47.296875 102.628906 54.066406 C 105.09375 57.640625 113.558594 67.097656 116 89.34375 C 117.890625 106.566406 118.3125 136.492188 125.921875 146.53125 C 127.699219 148.875 130.464844 150.761719 132.542969 149.890625 C 136.371094 148.289062 128.734375 132.5625 125.871094 118.898438 C 123.003906 105.234375 121.730469 83.621094 123.640625 60.742188 C 125.550781 37.859375 135.535156 26.328125 135.632812 0.464844 L 122.683594 0.464844 C 122.683594 0.464844 121.425781 16.066406 111.222656 25.464844 " fill-opacity="1" fill-rule="nonzero"/></g><path fill="#0a6847" d="M 179.035156 11.519531 C 176.226562 12.117188 177.226562 26.96875 171.316406 46.421875 C 167.0625 60.417969 162.734375 72.242188 159.847656 80.167969 C 155.234375 92.839844 151.386719 105.769531 151.636719 122.265625 C 151.871094 137.835938 156.496094 150.585938 157.988281 153.625 C 159.484375 156.660156 167.476562 173.460938 171.199219 171.914062 C 174.921875 170.359375 160.710938 147.511719 163.203125 114.933594 C 166.320312 74.214844 179.109375 50.265625 182.566406 34.027344 C 186.019531 17.789062 181.535156 10.984375 179.035156 11.519531 " fill-opacity="1" fill-rule="nonzero"/><g clip-path="url(#ef71e8a432)"><path fill="#0a6847" d="M 185.980469 44.28125 C 174.710938 70.277344 170.597656 104.128906 183.386719 129.066406 C 196.96875 155.550781 219.226562 169.453125 238.359375 169.746094 L 238.359375 145.804688 C 238.332031 145.808594 229.050781 146.253906 220.40625 141.558594 C 208.449219 135.0625 196.421875 121.140625 190.6875 100.296875 C 180.578125 63.53125 212.332031 29.910156 212.890625 0.464844 L 198.667969 0.464844 C 198.667969 0.464844 199.402344 13.34375 185.980469 44.28125 " fill-opacity="1" fill-rule="nonzero"/></g><g clip-path="url(#1fe12cbd15)"><path fill="#0a6847" d="M 187.632812 197.710938 C 162.257812 173.195312 149.183594 154.019531 145.792969 137.0625 C 141.515625 115.683594 144.082031 91.742188 159.902344 55.824219 C 166.511719 40.816406 171.042969 28.21875 173.285156 18.382812 C 174.082031 14.863281 174.671875 11.980469 175.054688 9.222656 C 175.757812 4.179688 175.851562 0.464844 175.851562 0.464844 L 164.710938 0.464844 C 163.324219 43.003906 143.230469 70.796875 143.230469 70.796875 C 154.5625 37.875 154.203125 0.464844 154.203125 0.464844 L 143.0625 0.464844 C 143.65625 44.714844 127.410156 81.484375 133.085938 122.921875 C 138.175781 160.09375 157.800781 177.910156 177.234375 198.136719 C 188.996094 210.382812 194.480469 218.304688 196.890625 225.25 C 199.167969 231.832031 198.667969 237.757812 198.667969 237.757812 L 212.890625 237.757812 C 213.179688 218.359375 196.070312 205.867188 187.632812 197.710938 " fill-opacity="1" fill-rule="nonzero"/></g><g clip-path="url(#c8722bbc09)"><path fill="#0a6847" d="M 60.921875 83.941406 C 47.851562 62.371094 60.921875 50.570312 71.429688 54.066406 C 81.933594 57.5625 92.441406 75.675781 96.261719 89.660156 C 100.082031 103.644531 104.21875 132.5625 104.21875 132.5625 C 90.53125 108.410156 71.320312 101.101562 60.921875 83.941406 Z M 157.070312 199.621094 C 134.359375 176.203125 122.683594 159.894531 116 134.789062 C 109.3125 109.683594 112.179688 82.351562 101.035156 62.328125 C 89.894531 42.308594 61.875 37.222656 48.503906 50.570312 C 35.132812 63.917969 37.875 91.039062 60.285156 111.589844 C 87.664062 136.695312 145.289062 173.558594 143.0625 237.757812 L 154.203125 237.757812 C 154.242188 216.484375 147.078125 201.519531 147.078125 201.519531 C 166.074219 215.535156 164.710938 237.757812 164.710938 237.757812 L 175.851562 237.757812 C 175.851562 237.757812 176.902344 220.066406 157.070312 199.621094 " fill-opacity="1" fill-rule="nonzero"/></g><g clip-path="url(#c86b5524ec)"><path fill="#0a6847" d="M 53.765625 203.550781 C 48.632812 193.609375 40.726562 187.667969 33.082031 184.953125 C 24.796875 182.015625 15.792969 181.105469 1.066406 180.128906 L 1.066406 212.332031 C 1.066406 212.332031 13.0625 213.769531 17.851562 215.097656 C 21.617188 216.140625 27.9375 216.992188 32.28125 223.113281 C 35.808594 228.082031 34.894531 237.757812 34.894531 237.757812 L 58.363281 237.757812 C 58.363281 237.757812 61.066406 217.699219 53.765625 203.550781 " fill-opacity="1" fill-rule="nonzero"/></g></g></g></g><g mask="url(#eae47bf666)"><g transform="matrix(1, 0, 0, 1, 274, 268)"><g clip-path="url(#e1a498a9c0)"><g clip-path="url(#3df59d97b8)"><path fill="#0a6847" d="M 219.765625 59.515625 C 224.019531 35.035156 237.957031 20.304688 230.542969 18.464844 C 220.816406 16.050781 188.761719 56.910156 199.339844 93.164062 C 206.894531 119.070312 225.90625 131.707031 237.425781 135.394531 L 237.425781 117.683594 C 232.574219 111.621094 225.203125 101.851562 221.371094 89.933594 C 216.910156 76.046875 219.765625 59.515625 219.765625 59.515625 " fill-opacity="1" fill-rule="nonzero"/></g><g clip-path="url(#3c183c2435)"><path fill="#0a6847" d="M 232.515625 72.074219 C 233.136719 80.570312 235.046875 88.035156 237.425781 94.152344 L 237.425781 46.324219 C 234.042969 52.863281 231.726562 61.304688 232.515625 72.074219 " fill-opacity="1" fill-rule="nonzero"/></g><g clip-path="url(#e08a5cec37)"><path fill="#0a6847" d="M 120.902344 191.78125 C 117.503906 194.324219 121.832031 204.910156 122.8125 216.570312 C 123.617188 226.160156 121.75 237.757812 121.75 237.757812 L 134.699219 237.757812 C 134.84375 214.054688 124.296875 189.238281 120.902344 191.78125 " fill-opacity="1" fill-rule="nonzero"/></g><g clip-path="url(#5e1f359d05)"><path fill="#0a6847" d="M 9.148438 135.800781 C 12.65625 131.90625 6.796875 125.96875 2.308594 120.386719 C 1.671875 119.59375 0.933594 118.683594 0.132812 117.683594 L 0.132812 135.394531 C 4.738281 136.867188 8.148438 136.910156 9.148438 135.800781 " fill-opacity="1" fill-rule="nonzero"/></g><g clip-path="url(#0e43700dec)"><path fill="#0a6847" d="M 192.003906 158.09375 C 180.636719 145.785156 174.175781 121.226562 170.355469 120.804688 C 166.535156 120.382812 164.757812 142.78125 177.148438 165.933594 C 195.402344 200.042969 224.054688 210.425781 237.425781 212.332031 L 237.425781 180.128906 C 237.425781 180.128906 212.167969 179.914062 192.003906 158.09375 " fill-opacity="1" fill-rule="nonzero"/></g><g clip-path="url(#9fe97026c5)"><path fill="#0a6847" d="M 13.511719 111.90625 C 16.324219 109.789062 11.636719 96.015625 11.167969 83.941406 C 10.699219 71.863281 11.527344 59.0625 18.308594 47.066406 C 23.933594 37.109375 33.972656 30.175781 45.242188 20.132812 C 56.039062 10.511719 57.429688 0.464844 57.429688 0.464844 L 33.960938 0.464844 C 32.46875 10.351562 30.277344 16.28125 14.917969 29.066406 C 11.503906 31.90625 4.800781 37.300781 0.132812 46.324219 L 0.132812 94.152344 C 4.929688 106.492188 11.628906 113.324219 13.511719 111.90625 " fill-opacity="1" fill-rule="nonzero"/></g><g clip-path="url(#5b1b06e18f)"><path fill="#0a6847" d="M 66.578125 163.824219 C 55.300781 156.9375 50.554688 148.007812 53.84375 142.851562 C 57.121094 137.710938 64.289062 139.214844 70.398438 142.746094 C 76.445312 146.238281 83.785156 154.554688 88.4375 161.917969 C 100.324219 180.722656 102.023438 202.597656 102.023438 202.597656 C 96.503906 184.164062 80.796875 172.511719 66.578125 163.824219 Z M 108.59375 183.730469 C 97.773438 152.582031 77.816406 128.644531 59.777344 128.644531 C 41.734375 128.644531 36.851562 146.441406 48.738281 163.179688 C 60.382812 179.578125 79.9375 184.152344 88.851562 199.832031 C 96.257812 212.851562 97.164062 227.539062 91.824219 237.757812 L 113.472656 237.757812 C 113.472656 237.757812 120.035156 216.675781 108.59375 183.730469 " fill-opacity="1" fill-rule="nonzero"/></g><g clip-path="url(#da69b98ffa)"><path fill="#0a6847" d="M 27.515625 159.152344 C 40.671875 144.746094 36.214844 118.472656 34.730469 99.617188 C 33.246094 80.761719 33.023438 60.414062 43.007812 49.617188 C 55.742188 35.847656 76.542969 35.210938 93.523438 25.886719 C 110.5 16.566406 113.472656 0.464844 113.472656 0.464844 L 91.824219 0.464844 C 86.632812 9.980469 73.996094 9.148438 56.804688 19.109375 C 40.523438 28.539062 29.425781 45.382812 26.238281 63.179688 C 23.054688 80.972656 29.359375 114.296875 23.480469 129.070312 C 16.816406 145.816406 0.160156 145.804688 0.132812 145.804688 L 0.132812 169.746094 C 0.160156 169.75 16.488281 171.222656 27.515625 159.152344 " fill-opacity="1" fill-rule="nonzero"/></g><g clip-path="url(#43894a1d22)"><path fill="#0a6847" d="M 110.289062 25.464844 C 102.683594 32.472656 93.230469 34.15625 91.988281 38.597656 C 90.949219 42.308594 97.023438 47.296875 101.695312 54.066406 C 104.160156 57.640625 112.625 67.097656 115.066406 89.34375 C 116.957031 106.566406 117.378906 136.492188 124.988281 146.53125 C 126.765625 148.875 129.527344 150.761719 131.609375 149.890625 C 135.4375 148.289062 127.800781 132.5625 124.9375 118.898438 C 122.070312 105.234375 120.796875 83.621094 122.707031 60.742188 C 124.617188 37.859375 134.601562 26.328125 134.699219 0.464844 L 121.75 0.464844 C 121.75 0.464844 120.492188 16.066406 110.289062 25.464844 " fill-opacity="1" fill-rule="nonzero"/></g><path fill="#0a6847" d="M 178.101562 11.519531 C 175.292969 12.117188 176.292969 26.96875 170.382812 46.421875 C 166.128906 60.417969 161.800781 72.242188 158.914062 80.167969 C 154.300781 92.839844 150.453125 105.769531 150.703125 122.265625 C 150.9375 137.835938 155.5625 150.585938 157.054688 153.625 C 158.550781 156.660156 166.542969 173.460938 170.265625 171.914062 C 173.988281 170.359375 159.777344 147.511719 162.269531 114.933594 C 165.386719 74.214844 178.175781 50.265625 181.632812 34.027344 C 185.085938 17.789062 180.601562 10.984375 178.101562 11.519531 " fill-opacity="1" fill-rule="nonzero"/><g clip-path="url(#5ccd0bbc3c)"><path fill="#0a6847" d="M 185.046875 44.28125 C 173.773438 70.277344 169.664062 104.128906 182.453125 129.066406 C 196.035156 155.550781 218.292969 169.453125 237.425781 169.746094 L 237.425781 145.804688 C 237.398438 145.808594 228.117188 146.253906 219.472656 141.558594 C 207.515625 135.0625 195.488281 121.140625 189.753906 100.296875 C 179.644531 63.53125 211.398438 29.910156 211.957031 0.464844 L 197.734375 0.464844 C 197.734375 0.464844 198.46875 13.34375 185.046875 44.28125 " fill-opacity="1" fill-rule="nonzero"/></g><g clip-path="url(#2d9264f43b)"><path fill="#0a6847" d="M 186.699219 197.710938 C 161.324219 173.195312 148.25 154.019531 144.859375 137.0625 C 140.582031 115.683594 143.148438 91.742188 158.96875 55.824219 C 165.578125 40.816406 170.109375 28.21875 172.351562 18.382812 C 173.148438 14.863281 173.738281 11.980469 174.121094 9.222656 C 174.824219 4.179688 174.917969 0.464844 174.917969 0.464844 L 163.777344 0.464844 C 162.390625 43.003906 142.296875 70.796875 142.296875 70.796875 C 153.628906 37.875 153.269531 0.464844 153.269531 0.464844 L 142.128906 0.464844 C 142.722656 44.714844 126.476562 81.484375 132.152344 122.921875 C 137.242188 160.09375 156.867188 177.910156 176.300781 198.136719 C 188.0625 210.382812 193.546875 218.304688 195.957031 225.25 C 198.234375 231.832031 197.734375 237.757812 197.734375 237.757812 L 211.957031 237.757812 C 212.246094 218.359375 195.136719 205.867188 186.699219 197.710938 " fill-opacity="1" fill-rule="nonzero"/></g><g clip-path="url(#fb18a6b4cc)"><path fill="#0a6847" d="M 59.988281 83.941406 C 46.917969 62.371094 59.988281 50.570312 70.492188 54.066406 C 81 57.5625 91.507812 75.675781 95.328125 89.660156 C 99.148438 103.644531 103.285156 132.5625 103.285156 132.5625 C 89.597656 108.410156 70.386719 101.101562 59.988281 83.941406 Z M 156.136719 199.621094 C 133.425781 176.203125 121.75 159.894531 115.066406 134.789062 C 108.378906 109.683594 111.246094 82.351562 100.101562 62.328125 C 88.960938 42.308594 60.941406 37.222656 47.570312 50.570312 C 34.199219 63.917969 36.9375 91.039062 59.351562 111.589844 C 86.730469 136.695312 144.355469 173.558594 142.128906 237.757812 L 153.269531 237.757812 C 153.308594 216.484375 146.144531 201.519531 146.144531 201.519531 C 165.140625 215.535156 163.777344 237.757812 163.777344 237.757812 L 174.917969 237.757812 C 174.917969 237.757812 175.964844 220.066406 156.136719 199.621094 " fill-opacity="1" fill-rule="nonzero"/></g><g clip-path="url(#1720a25c7d)"><path fill="#0a6847" d="M 52.832031 203.550781 C 47.699219 193.609375 39.792969 187.667969 32.148438 184.953125 C 23.863281 182.015625 14.859375 181.105469 0.132812 180.128906 L 0.132812 212.332031 C 0.132812 212.332031 12.128906 213.769531 16.917969 215.097656 C 20.683594 216.140625 27.003906 216.992188 31.347656 223.113281 C 34.875 228.082031 33.960938 237.757812 33.960938 237.757812 L 57.429688 237.757812 C 57.429688 237.757812 60.132812 217.699219 52.832031 203.550781 " fill-opacity="1" fill-rule="nonzero"/></g></g></g></g><g clip-path="url(#034f000b51)"><g mask="url(#fb3e32da4c)"><g transform="matrix(1, 0, 0, 1, 510, 268)"><g clip-path="url(#0f900bc417)"><g clip-path="url(#322e69d1dd)"><path fill="#0a6847" d="M 9.96875 135.800781 C 13.476562 131.90625 7.613281 125.96875 3.125 120.386719 C 2.488281 119.59375 1.75 118.683594 0.949219 117.683594 L 0.949219 135.394531 C 5.554688 136.867188 8.964844 136.910156 9.96875 135.800781 " fill-opacity="1" fill-rule="nonzero"/></g><g clip-path="url(#78d56cc7c4)"><path fill="#0a6847" d="M 14.328125 111.90625 C 17.140625 109.789062 12.453125 96.015625 11.984375 83.941406 C 11.515625 71.863281 12.34375 59.0625 19.125 47.066406 C 24.75 37.109375 34.789062 30.175781 46.058594 20.132812 C 56.855469 10.511719 58.246094 0.464844 58.246094 0.464844 L 34.777344 0.464844 C 33.285156 10.351562 31.09375 16.28125 15.734375 29.066406 C 12.320312 31.90625 5.617188 37.300781 0.949219 46.324219 L 0.949219 94.152344 C 5.746094 106.492188 12.445312 113.324219 14.328125 111.90625 " fill-opacity="1" fill-rule="nonzero"/></g><g clip-path="url(#743af5a1be)"><path fill="#0a6847" d="M 67.394531 163.824219 C 56.117188 156.9375 51.371094 148.007812 54.660156 142.851562 C 57.9375 137.710938 65.105469 139.214844 71.214844 142.746094 C 77.261719 146.238281 84.601562 154.554688 89.253906 161.917969 C 101.140625 180.722656 102.839844 202.597656 102.839844 202.597656 C 97.320312 184.164062 81.613281 172.511719 67.394531 163.824219 Z M 109.410156 183.730469 C 98.589844 152.582031 78.632812 128.644531 60.59375 128.644531 C 42.550781 128.644531 37.667969 146.441406 49.554688 163.179688 C 61.199219 179.578125 80.753906 184.152344 89.667969 199.832031 C 97.074219 212.851562 97.980469 227.539062 92.640625 237.757812 L 114.289062 237.757812 C 114.289062 237.757812 120.851562 216.675781 109.410156 183.730469 " fill-opacity="1" fill-rule="nonzero"/></g><g clip-path="url(#febcc1f669)"><path fill="#0a6847" d="M 28.332031 159.152344 C 41.488281 144.746094 37.03125 118.472656 35.546875 99.617188 C 34.0625 80.761719 33.839844 60.414062 43.824219 49.617188 C 56.558594 35.847656 77.359375 35.210938 94.339844 25.886719 C 111.316406 16.566406 114.289062 0.464844 114.289062 0.464844 L 92.640625 0.464844 C 87.449219 9.980469 74.8125 9.148438 57.621094 19.109375 C 41.339844 28.539062 30.242188 45.382812 27.058594 63.179688 C 23.871094 80.972656 30.175781 114.296875 24.296875 129.070312 C 17.632812 145.816406 0.976562 145.804688 0.949219 145.804688 L 0.949219 169.746094 C 0.976562 169.75 17.308594 171.222656 28.332031 159.152344 " fill-opacity="1" fill-rule="nonzero"/></g><g clip-path="url(#44eb5d0159)"><path fill="#0a6847" d="M 60.804688 83.941406 C 47.734375 62.371094 60.804688 50.570312 71.3125 54.066406 C 81.816406 57.5625 92.324219 75.675781 96.144531 89.660156 C 99.964844 103.644531 104.101562 132.5625 104.101562 132.5625 C 90.414062 108.410156 71.203125 101.101562 60.804688 83.941406 Z M 156.953125 199.621094 C 134.242188 176.203125 122.566406 159.894531 115.882812 134.789062 C 109.195312 109.683594 112.0625 82.351562 100.917969 62.328125 C 89.777344 42.308594 61.757812 37.222656 48.386719 50.570312 C 35.015625 63.917969 37.757812 91.039062 60.167969 111.589844 C 87.546875 136.695312 145.171875 173.558594 142.945312 237.757812 L 154.085938 237.757812 C 154.125 216.484375 146.960938 201.519531 146.960938 201.519531 C 165.957031 215.535156 164.59375 237.757812 164.59375 237.757812 L 175.734375 237.757812 C 175.734375 237.757812 176.785156 220.066406 156.953125 199.621094 " fill-opacity="1" fill-rule="nonzero"/></g><g clip-path="url(#1cad9765a7)"><path fill="#0a6847" d="M 53.648438 203.550781 C 48.519531 193.609375 40.609375 187.667969 32.964844 184.953125 C 24.679688 182.015625 15.675781 181.105469 0.949219 180.128906 L 0.949219 212.332031 C 0.949219 212.332031 12.945312 213.769531 17.734375 215.097656 C 21.5 216.140625 27.820312 216.992188 32.164062 223.113281 C 35.691406 228.082031 34.777344 237.757812 34.777344 237.757812 L 58.246094 237.757812 C 58.246094 237.757812 60.949219 217.699219 53.648438 203.550781 " fill-opacity="1" fill-rule="nonzero"/></g></g></g></g></g><g mask="url(#a71a5b80a7)"><g transform="matrix(1, 0, 0, 1, 38, 505)"><g clip-path="url(#a1a09465eb)"><g clip-path="url(#570e894d01)"><path fill="#0a6847" d="M 219.796875 59.820312 C 224.046875 35.339844 237.988281 20.609375 230.574219 18.765625 C 220.847656 16.355469 188.789062 57.214844 199.367188 93.46875 C 206.925781 119.371094 225.933594 132.007812 237.457031 135.695312 L 237.457031 117.988281 C 232.605469 111.925781 225.234375 102.15625 221.402344 90.238281 C 216.9375 76.347656 219.796875 59.820312 219.796875 59.820312 " fill-opacity="1" fill-rule="nonzero"/></g><g clip-path="url(#0b1521c382)"><path fill="#0a6847" d="M 232.542969 72.378906 C 233.167969 80.875 235.078125 88.339844 237.457031 94.457031 L 237.457031 46.628906 C 234.074219 53.167969 231.757812 61.605469 232.542969 72.378906 " fill-opacity="1" fill-rule="nonzero"/></g><g clip-path="url(#b5b70c37a6)"><path fill="#0a6847" d="M 120.933594 192.085938 C 117.535156 194.625 121.863281 205.214844 122.84375 216.871094 C 123.648438 226.464844 121.78125 238.058594 121.78125 238.058594 L 134.726562 238.058594 C 134.871094 214.359375 124.328125 189.542969 120.933594 192.085938 " fill-opacity="1" fill-rule="nonzero"/></g><g clip-path="url(#0e78d3fa0a)"><path fill="#0a6847" d="M 9.179688 136.105469 C 12.6875 132.210938 6.828125 126.269531 2.339844 120.6875 C 1.703125 119.898438 0.964844 118.988281 0.164062 117.988281 L 0.164062 135.695312 C 4.769531 137.171875 8.179688 137.214844 9.179688 136.105469 " fill-opacity="1" fill-rule="nonzero"/></g><g clip-path="url(#9e55b4585b)"><path fill="#0a6847" d="M 192.035156 158.394531 C 180.664062 146.089844 174.207031 121.53125 170.386719 121.109375 C 166.566406 120.683594 164.789062 143.085938 177.179688 166.234375 C 195.429688 200.347656 224.085938 210.730469 237.457031 212.636719 L 237.457031 180.429688 C 237.457031 180.429688 212.199219 180.21875 192.035156 158.394531 " fill-opacity="1" fill-rule="nonzero"/></g><g clip-path="url(#0e42820ed6)"><path fill="#0a6847" d="M 13.542969 112.210938 C 16.355469 110.089844 11.664062 96.320312 11.195312 84.242188 C 10.726562 72.167969 11.558594 59.363281 18.335938 47.371094 C 23.964844 37.414062 34 30.476562 45.273438 20.433594 C 56.066406 10.816406 57.457031 0.765625 57.457031 0.765625 L 33.992188 0.765625 C 32.5 10.652344 30.308594 16.585938 14.949219 29.371094 C 11.535156 32.210938 4.832031 37.605469 0.164062 46.628906 L 0.164062 94.457031 C 4.960938 106.796875 11.660156 113.625 13.542969 112.210938 " fill-opacity="1" fill-rule="nonzero"/></g><g clip-path="url(#561a4bafa7)"><path fill="#0a6847" d="M 66.609375 164.128906 C 55.332031 157.242188 50.585938 148.308594 53.875 143.15625 C 57.152344 138.011719 64.320312 139.519531 70.429688 143.046875 C 76.476562 146.542969 83.816406 154.859375 88.46875 162.222656 C 100.355469 181.027344 102.050781 202.902344 102.050781 202.902344 C 96.535156 184.46875 80.828125 172.816406 66.609375 164.128906 Z M 108.621094 184.03125 C 97.804688 152.886719 77.84375 128.949219 59.804688 128.949219 C 41.761719 128.949219 36.882812 146.746094 48.769531 163.484375 C 60.414062 179.878906 79.96875 184.457031 88.882812 200.136719 C 96.285156 213.15625 97.195312 227.84375 91.855469 238.058594 L 113.503906 238.058594 C 113.503906 238.058594 120.066406 216.980469 108.621094 184.03125 " fill-opacity="1" fill-rule="nonzero"/></g><g clip-path="url(#b1fc139c53)"><path fill="#0a6847" d="M 27.542969 159.457031 C 40.703125 145.050781 36.246094 118.777344 34.761719 99.921875 C 33.273438 81.066406 33.054688 60.71875 43.039062 49.921875 C 55.773438 36.152344 76.574219 35.515625 93.550781 26.191406 C 110.53125 16.867188 113.503906 0.765625 113.503906 0.765625 L 91.855469 0.765625 C 86.664062 10.285156 74.023438 9.453125 56.832031 19.414062 C 40.554688 28.84375 29.453125 45.683594 26.269531 63.480469 C 23.085938 81.277344 29.390625 114.601562 23.511719 129.371094 C 16.847656 146.121094 0.191406 146.109375 0.164062 146.109375 L 0.164062 170.050781 C 0.191406 170.054688 16.519531 171.527344 27.542969 159.457031 " fill-opacity="1" fill-rule="nonzero"/></g><g clip-path="url(#a3e3a9a6cc)"><path fill="#0a6847" d="M 110.320312 25.765625 C 102.710938 32.777344 93.257812 34.460938 92.015625 38.902344 C 90.980469 42.613281 97.050781 47.601562 101.722656 54.371094 C 104.191406 57.945312 112.65625 67.398438 115.097656 89.644531 C 116.984375 106.871094 117.410156 136.796875 125.015625 146.832031 C 126.796875 149.179688 129.558594 151.066406 131.636719 150.195312 C 135.46875 148.59375 127.832031 132.867188 124.964844 119.203125 C 122.101562 105.535156 120.828125 83.925781 122.738281 61.042969 C 124.644531 38.164062 134.628906 26.632812 134.726562 0.765625 L 121.78125 0.765625 C 121.78125 0.765625 120.519531 16.371094 110.320312 25.765625 " fill-opacity="1" fill-rule="nonzero"/></g><path fill="#0a6847" d="M 178.128906 11.820312 C 175.324219 12.417969 176.324219 27.273438 170.410156 46.726562 C 166.160156 60.71875 161.828125 72.546875 158.945312 80.472656 C 154.332031 93.144531 150.480469 106.074219 150.730469 122.566406 C 150.96875 138.136719 155.59375 150.890625 157.085938 153.929688 C 158.578125 156.964844 166.574219 173.765625 170.296875 172.214844 C 174.019531 170.664062 159.804688 147.816406 162.296875 115.238281 C 165.414062 74.519531 178.207031 50.570312 181.660156 34.332031 C 185.117188 18.089844 180.632812 11.289062 178.128906 11.820312 " fill-opacity="1" fill-rule="nonzero"/><g clip-path="url(#5080105bd3)"><path fill="#0a6847" d="M 185.078125 44.585938 C 173.804688 70.582031 169.695312 104.433594 182.484375 129.371094 C 196.066406 155.855469 218.324219 169.757812 237.453125 170.050781 L 237.457031 170.050781 L 237.457031 146.109375 L 237.453125 146.109375 C 237.425781 146.113281 228.148438 146.558594 219.5 141.859375 C 207.546875 135.363281 195.519531 121.445312 189.785156 100.601562 C 179.675781 63.835938 211.429688 30.214844 211.988281 0.765625 L 197.765625 0.765625 C 197.765625 0.765625 198.496094 13.648438 185.078125 44.585938 " fill-opacity="1" fill-rule="nonzero"/></g><g clip-path="url(#45754e7822)"><path fill="#0a6847" d="M 186.730469 198.015625 C 161.351562 173.5 148.277344 154.324219 144.886719 137.363281 C 140.613281 115.988281 143.175781 92.042969 158.996094 56.128906 C 165.609375 41.121094 170.140625 28.523438 172.378906 18.6875 C 173.179688 15.167969 173.769531 12.285156 174.152344 9.523438 C 174.855469 4.484375 174.949219 0.765625 174.949219 0.765625 L 163.808594 0.765625 C 162.421875 43.308594 142.328125 71.097656 142.328125 71.097656 C 153.65625 38.175781 153.300781 0.765625 153.300781 0.765625 L 142.15625 0.765625 C 142.753906 45.015625 126.507812 81.789062 132.183594 123.226562 C 137.273438 160.398438 156.898438 178.210938 176.328125 198.441406 C 188.09375 210.6875 193.578125 218.609375 195.984375 225.554688 C 198.265625 232.132812 197.765625 238.058594 197.765625 238.058594 L 211.988281 238.058594 C 212.277344 218.664062 195.167969 206.167969 186.730469 198.015625 " fill-opacity="1" fill-rule="nonzero"/></g><g clip-path="url(#dc19d3c90f)"><path fill="#0a6847" d="M 60.019531 84.242188 C 46.945312 62.675781 60.019531 50.875 70.523438 54.371094 C 81.03125 57.867188 91.535156 75.980469 95.355469 89.964844 C 99.179688 103.945312 103.316406 132.867188 103.316406 132.867188 C 89.625 108.714844 70.417969 101.40625 60.019531 84.242188 Z M 156.164062 199.921875 C 133.453125 176.507812 121.78125 160.199219 115.097656 135.089844 C 108.410156 109.984375 111.273438 82.65625 100.132812 62.632812 C 88.988281 42.613281 60.972656 37.527344 47.601562 50.875 C 34.230469 64.222656 36.96875 91.34375 59.382812 111.890625 C 86.761719 137 144.386719 173.863281 142.15625 238.058594 L 153.300781 238.058594 C 153.335938 216.789062 146.175781 201.824219 146.175781 201.824219 C 165.167969 215.835938 163.808594 238.058594 163.808594 238.058594 L 174.949219 238.058594 C 174.949219 238.058594 175.996094 220.371094 156.164062 199.921875 " fill-opacity="1" fill-rule="nonzero"/></g><g clip-path="url(#abc59c3612)"><path fill="#0a6847" d="M 52.863281 203.855469 C 47.730469 193.914062 39.824219 187.96875 32.179688 185.257812 C 23.894531 182.316406 14.890625 181.410156 0.164062 180.429688 L 0.164062 212.636719 C 0.164062 212.636719 12.160156 214.074219 16.949219 215.398438 C 20.714844 216.441406 27.035156 217.296875 31.378906 223.414062 C 34.90625 228.386719 33.992188 238.058594 33.992188 238.058594 L 57.457031 238.058594 C 57.457031 238.058594 60.164062 218 52.863281 203.855469 " fill-opacity="1" fill-rule="nonzero"/></g></g></g></g><g mask="url(#bafece5b4d)"><g transform="matrix(1, 0, 0, 1, 273, 505)"><g clip-path="url(#de8f421291)"><g clip-path="url(#77a09f4208)"><path fill="#0a6847" d="M 219.863281 59.820312 C 224.113281 35.339844 238.054688 20.609375 230.640625 18.765625 C 220.914062 16.355469 188.855469 57.214844 199.433594 93.46875 C 206.992188 119.371094 226 132.007812 237.523438 135.695312 L 237.523438 117.988281 C 232.671875 111.925781 225.300781 102.15625 221.46875 90.238281 C 217.003906 76.347656 219.863281 59.820312 219.863281 59.820312 " fill-opacity="1" fill-rule="nonzero"/></g><g clip-path="url(#7515477567)"><path fill="#0a6847" d="M 232.609375 72.378906 C 233.230469 80.875 235.144531 88.339844 237.523438 94.457031 L 237.523438 46.628906 C 234.140625 53.167969 231.820312 61.605469 232.609375 72.378906 " fill-opacity="1" fill-rule="nonzero"/></g><g clip-path="url(#29ee59fd47)"><path fill="#0a6847" d="M 121 192.085938 C 117.601562 194.625 121.929688 205.214844 122.910156 216.871094 C 123.714844 226.464844 121.847656 238.058594 121.847656 238.058594 L 134.792969 238.058594 C 134.9375 214.359375 124.394531 189.542969 121 192.085938 " fill-opacity="1" fill-rule="nonzero"/></g><g clip-path="url(#902498bd19)"><path fill="#0a6847" d="M 9.246094 136.105469 C 12.753906 132.210938 6.894531 126.269531 2.40625 120.6875 C 1.769531 119.898438 1.03125 118.988281 0.230469 117.988281 L 0.230469 135.695312 C 4.835938 137.171875 8.246094 137.214844 9.246094 136.105469 " fill-opacity="1" fill-rule="nonzero"/></g><g clip-path="url(#1ed6a45530)"><path fill="#0a6847" d="M 192.101562 158.394531 C 180.730469 146.089844 174.273438 121.53125 170.453125 121.109375 C 166.632812 120.683594 164.855469 143.085938 177.246094 166.234375 C 195.496094 200.347656 224.152344 210.730469 237.523438 212.636719 L 237.523438 180.429688 C 237.523438 180.429688 212.265625 180.21875 192.101562 158.394531 " fill-opacity="1" fill-rule="nonzero"/></g><g clip-path="url(#5ae6656bc4)"><path fill="#0a6847" d="M 13.609375 112.210938 C 16.421875 110.089844 11.730469 96.320312 11.261719 84.242188 C 10.792969 72.167969 11.625 59.363281 18.402344 47.371094 C 24.03125 37.414062 34.066406 30.476562 45.339844 20.433594 C 56.132812 10.816406 57.523438 0.765625 57.523438 0.765625 L 34.058594 0.765625 C 32.566406 10.652344 30.375 16.585938 15.015625 29.371094 C 11.601562 32.210938 4.898438 37.605469 0.230469 46.628906 L 0.230469 94.457031 C 5.027344 106.796875 11.726562 113.625 13.609375 112.210938 " fill-opacity="1" fill-rule="nonzero"/></g><g clip-path="url(#a801bf2bd0)"><path fill="#0a6847" d="M 66.675781 164.128906 C 55.398438 157.242188 50.652344 148.308594 53.9375 143.15625 C 57.21875 138.011719 64.386719 139.519531 70.496094 143.046875 C 76.542969 146.542969 83.882812 154.859375 88.535156 162.222656 C 100.421875 181.027344 102.117188 202.902344 102.117188 202.902344 C 96.601562 184.46875 80.894531 172.816406 66.675781 164.128906 Z M 108.6875 184.03125 C 97.871094 152.886719 77.910156 128.949219 59.871094 128.949219 C 41.828125 128.949219 36.949219 146.746094 48.835938 163.484375 C 60.480469 179.878906 80.035156 184.457031 88.949219 200.136719 C 96.351562 213.15625 97.261719 227.84375 91.921875 238.058594 L 113.570312 238.058594 C 113.570312 238.058594 120.132812 216.980469 108.6875 184.03125 " fill-opacity="1" fill-rule="nonzero"/></g><g clip-path="url(#7387dd48fc)"><path fill="#0a6847" d="M 27.609375 159.457031 C 40.769531 145.050781 36.3125 118.777344 34.828125 99.921875 C 33.339844 81.066406 33.121094 60.71875 43.105469 49.921875 C 55.839844 36.152344 76.640625 35.515625 93.617188 26.191406 C 110.597656 16.867188 113.570312 0.765625 113.570312 0.765625 L 91.921875 0.765625 C 86.730469 10.285156 74.089844 9.453125 56.898438 19.414062 C 40.621094 28.84375 29.519531 45.683594 26.335938 63.480469 C 23.152344 81.277344 29.457031 114.601562 23.578125 129.371094 C 16.910156 146.121094 0.257812 146.109375 0.230469 146.109375 L 0.230469 170.050781 C 0.257812 170.054688 16.585938 171.527344 27.609375 159.457031 " fill-opacity="1" fill-rule="nonzero"/></g><g clip-path="url(#b1545cc8bd)"><path fill="#0a6847" d="M 110.386719 25.765625 C 102.777344 32.777344 93.324219 34.460938 92.082031 38.902344 C 91.046875 42.613281 97.117188 47.601562 101.789062 54.371094 C 104.257812 57.945312 112.722656 67.398438 115.160156 89.644531 C 117.050781 106.871094 117.476562 136.796875 125.082031 146.832031 C 126.859375 149.179688 129.625 151.066406 131.703125 150.195312 C 135.535156 148.59375 127.898438 132.867188 125.03125 119.203125 C 122.167969 105.535156 120.890625 83.925781 122.800781 61.042969 C 124.710938 38.164062 134.695312 26.632812 134.792969 0.765625 L 121.847656 0.765625 C 121.847656 0.765625 120.585938 16.371094 110.386719 25.765625 " fill-opacity="1" fill-rule="nonzero"/></g><path fill="#0a6847" d="M 178.195312 11.820312 C 175.390625 12.417969 176.390625 27.273438 170.476562 46.726562 C 166.226562 60.71875 161.894531 72.546875 159.011719 80.472656 C 154.398438 93.144531 150.546875 106.074219 150.796875 122.566406 C 151.035156 138.136719 155.660156 150.890625 157.152344 153.929688 C 158.644531 156.964844 166.640625 173.765625 170.363281 172.214844 C 174.085938 170.664062 159.871094 147.816406 162.363281 115.238281 C 165.480469 74.519531 178.273438 50.570312 181.726562 34.332031 C 185.183594 18.089844 180.699219 11.289062 178.195312 11.820312 " fill-opacity="1" fill-rule="nonzero"/><g clip-path="url(#68e8c48e2e)"><path fill="#0a6847" d="M 185.144531 44.585938 C 173.871094 70.582031 169.761719 104.433594 182.550781 129.371094 C 196.132812 155.855469 218.390625 169.757812 237.519531 170.050781 L 237.523438 170.050781 L 237.523438 146.109375 L 237.519531 146.109375 C 237.492188 146.113281 228.214844 146.558594 219.566406 141.859375 C 207.613281 135.363281 195.585938 121.445312 189.851562 100.601562 C 179.742188 63.835938 211.496094 30.214844 212.054688 0.765625 L 197.832031 0.765625 C 197.832031 0.765625 198.5625 13.648438 185.144531 44.585938 " fill-opacity="1" fill-rule="nonzero"/></g><g clip-path="url(#4efa3ff969)"><path fill="#0a6847" d="M 186.796875 198.015625 C 161.417969 173.5 148.34375 154.324219 144.953125 137.363281 C 140.679688 115.988281 143.242188 92.042969 159.0625 56.128906 C 165.675781 41.121094 170.207031 28.523438 172.445312 18.6875 C 173.246094 15.167969 173.835938 12.285156 174.21875 9.523438 C 174.921875 4.484375 175.015625 0.765625 175.015625 0.765625 L 163.875 0.765625 C 162.488281 43.308594 142.390625 71.097656 142.390625 71.097656 C 153.722656 38.175781 153.367188 0.765625 153.367188 0.765625 L 142.222656 0.765625 C 142.820312 45.015625 126.574219 81.789062 132.25 123.226562 C 137.339844 160.398438 156.964844 178.210938 176.394531 198.441406 C 188.160156 210.6875 193.644531 218.609375 196.050781 225.554688 C 198.332031 232.132812 197.832031 238.058594 197.832031 238.058594 L 212.054688 238.058594 C 212.34375 218.664062 195.234375 206.167969 186.796875 198.015625 " fill-opacity="1" fill-rule="nonzero"/></g><g clip-path="url(#ddcc10f58d)"><path fill="#0a6847" d="M 60.085938 84.242188 C 47.011719 62.675781 60.085938 50.875 70.589844 54.371094 C 81.097656 57.867188 91.601562 75.980469 95.421875 89.964844 C 99.246094 103.945312 103.382812 132.867188 103.382812 132.867188 C 89.691406 108.714844 70.484375 101.40625 60.085938 84.242188 Z M 156.230469 199.921875 C 133.519531 176.507812 121.847656 160.199219 115.160156 135.089844 C 108.476562 109.984375 111.339844 82.65625 100.199219 62.632812 C 89.054688 42.613281 61.039062 37.527344 47.667969 50.875 C 34.296875 64.222656 37.035156 91.34375 59.449219 111.890625 C 86.828125 137 144.453125 173.863281 142.222656 238.058594 L 153.367188 238.058594 C 153.402344 216.789062 146.242188 201.824219 146.242188 201.824219 C 165.234375 215.835938 163.875 238.058594 163.875 238.058594 L 175.015625 238.058594 C 175.015625 238.058594 176.0625 220.371094 156.230469 199.921875 " fill-opacity="1" fill-rule="nonzero"/></g><g clip-path="url(#9494005e62)"><path fill="#0a6847" d="M 52.925781 203.855469 C 47.796875 193.914062 39.890625 187.96875 32.246094 185.257812 C 23.960938 182.316406 14.953125 181.410156 0.230469 180.429688 L 0.230469 212.636719 C 0.230469 212.636719 12.226562 214.074219 17.015625 215.398438 C 20.78125 216.441406 27.101562 217.296875 31.445312 223.414062 C 34.96875 228.386719 34.058594 238.058594 34.058594 238.058594 L 57.523438 238.058594 C 57.523438 238.058594 60.230469 218 52.925781 203.855469 " fill-opacity="1" fill-rule="nonzero"/></g></g></g></g><g clip-path="url(#bc06e0f381)"><g mask="url(#c92f6348c7)"><g transform="matrix(1, 0, 0, 1, 510, 505)"><g clip-path="url(#163ea2eb0b)"><g clip-path="url(#58aa2ff66e)"><path fill="#0a6847" d="M 9.0625 136.105469 C 12.570312 132.210938 6.710938 126.269531 2.222656 120.6875 C 1.585938 119.898438 0.847656 118.988281 0.046875 117.988281 L 0.046875 135.695312 C 4.652344 137.171875 8.0625 137.214844 9.0625 136.105469 " fill-opacity="1" fill-rule="nonzero"/></g><g clip-path="url(#2dac12835e)"><path fill="#0a6847" d="M 13.425781 112.210938 C 16.238281 110.089844 11.546875 96.320312 11.078125 84.242188 C 10.609375 72.167969 11.441406 59.363281 18.21875 47.371094 C 23.847656 37.414062 33.882812 30.476562 45.15625 20.433594 C 55.949219 10.816406 57.339844 0.765625 57.339844 0.765625 L 33.875 0.765625 C 32.382812 10.652344 30.191406 16.585938 14.832031 29.371094 C 11.417969 32.210938 4.714844 37.605469 0.046875 46.628906 L 0.046875 94.457031 C 4.84375 106.796875 11.542969 113.625 13.425781 112.210938 " fill-opacity="1" fill-rule="nonzero"/></g><g clip-path="url(#201ec8fbd1)"><path fill="#0a6847" d="M 66.492188 164.128906 C 55.214844 157.242188 50.46875 148.308594 53.757812 143.15625 C 57.035156 138.011719 64.203125 139.519531 70.3125 143.046875 C 76.359375 146.542969 83.699219 154.859375 88.351562 162.222656 C 100.238281 181.027344 101.9375 202.902344 101.9375 202.902344 C 96.417969 184.46875 80.710938 172.816406 66.492188 164.128906 Z M 108.503906 184.03125 C 97.6875 152.886719 77.726562 128.949219 59.6875 128.949219 C 41.648438 128.949219 36.765625 146.746094 48.652344 163.484375 C 60.296875 179.878906 79.851562 184.457031 88.765625 200.136719 C 96.167969 213.15625 97.078125 227.84375 91.738281 238.058594 L 113.386719 238.058594 C 113.386719 238.058594 119.949219 216.980469 108.503906 184.03125 " fill-opacity="1" fill-rule="nonzero"/></g><g clip-path="url(#a642bab4ca)"><path fill="#0a6847" d="M 27.425781 159.457031 C 40.585938 145.050781 36.128906 118.777344 34.644531 99.921875 C 33.15625 81.066406 32.9375 60.71875 42.921875 49.921875 C 55.65625 36.152344 76.457031 35.515625 93.433594 26.191406 C 110.414062 16.867188 113.386719 0.765625 113.386719 0.765625 L 91.738281 0.765625 C 86.546875 10.285156 73.90625 9.453125 56.714844 19.414062 C 40.4375 28.84375 29.335938 45.683594 26.152344 63.480469 C 22.96875 81.277344 29.273438 114.601562 23.394531 129.371094 C 16.730469 146.121094 0.0742188 146.109375 0.046875 146.109375 L 0.046875 170.050781 C 0.0742188 170.054688 16.402344 171.527344 27.425781 159.457031 " fill-opacity="1" fill-rule="nonzero"/></g><g clip-path="url(#a967fa4846)"><path fill="#0a6847" d="M 59.902344 84.242188 C 46.828125 62.675781 59.902344 50.875 70.40625 54.371094 C 80.914062 57.867188 91.417969 75.980469 95.238281 89.964844 C 99.0625 103.945312 103.199219 132.867188 103.199219 132.867188 C 89.507812 108.714844 70.300781 101.40625 59.902344 84.242188 Z M 156.046875 199.921875 C 133.335938 176.507812 121.664062 160.199219 114.980469 135.089844 C 108.292969 109.984375 111.15625 82.65625 100.015625 62.632812 C 88.871094 42.613281 60.855469 37.527344 47.484375 50.875 C 34.113281 64.222656 36.851562 91.34375 59.265625 111.890625 C 86.644531 137 144.269531 173.863281 142.039062 238.058594 L 153.183594 238.058594 C 153.21875 216.789062 146.058594 201.824219 146.058594 201.824219 C 165.050781 215.835938 163.691406 238.058594 163.691406 238.058594 L 174.832031 238.058594 C 174.832031 238.058594 175.878906 220.371094 156.046875 199.921875 " fill-opacity="1" fill-rule="nonzero"/></g><g clip-path="url(#4f2cb2c965)"><path fill="#0a6847" d="M 52.746094 203.855469 C 47.613281 193.914062 39.707031 187.96875 32.0625 185.257812 C 23.777344 182.316406 14.773438 181.410156 0.046875 180.429688 L 0.046875 212.636719 C 0.046875 212.636719 12.042969 214.074219 16.832031 215.398438 C 20.597656 216.441406 26.917969 217.296875 31.261719 223.414062 C 34.789062 228.386719 33.875 238.058594 33.875 238.058594 L 57.339844 238.058594 C 57.339844 238.058594 60.046875 218 52.746094 203.855469 " fill-opacity="1" fill-rule="nonzero"/></g></g></g></g></g><g clip-path="url(#44243a33c6)"><g mask="url(#c4484e0637)"><g transform="matrix(1, 0, 0, 1, 38, 742)"><g clip-path="url(#ae76c6e823)"><g clip-path="url(#dd6d84b203)"><path fill="#0a6847" d="M 219.796875 60.121094 C 224.046875 35.640625 237.988281 20.910156 230.574219 19.070312 C 220.847656 16.65625 188.789062 57.519531 199.367188 93.773438 C 206.925781 119.675781 225.933594 132.3125 237.457031 136 L 237.457031 118.289062 C 232.605469 112.226562 225.234375 102.460938 221.402344 90.539062 C 216.9375 76.652344 219.796875 60.121094 219.796875 60.121094 " fill-opacity="1" fill-rule="nonzero"/></g><g clip-path="url(#44f03ac0e7)"><path fill="#0a6847" d="M 232.542969 72.683594 C 233.167969 81.179688 235.078125 88.640625 237.457031 94.757812 L 237.457031 46.929688 C 234.074219 53.46875 231.757812 61.910156 232.542969 72.683594 " fill-opacity="1" fill-rule="nonzero"/></g><g clip-path="url(#95cc61d5d1)"><path fill="#0a6847" d="M 13.542969 112.515625 C 16.355469 110.394531 11.664062 96.625 11.195312 84.546875 C 10.726562 72.472656 11.558594 59.667969 18.335938 47.675781 C 23.964844 37.71875 34 30.78125 45.273438 20.738281 C 56.066406 11.117188 57.457031 1.070312 57.457031 1.070312 L 33.992188 1.070312 C 32.5 10.957031 30.308594 16.890625 14.949219 29.671875 C 11.535156 32.515625 4.832031 37.910156 0.164062 46.929688 L 0.164062 94.757812 C 4.960938 107.097656 11.660156 113.929688 13.542969 112.515625 " fill-opacity="1" fill-rule="nonzero"/></g><g clip-path="url(#70bd9163a9)"><path fill="#0a6847" d="M 27.542969 159.761719 C 40.703125 145.355469 36.246094 119.082031 34.761719 100.226562 C 33.273438 81.371094 33.054688 61.023438 43.039062 50.226562 C 55.773438 36.453125 76.574219 35.820312 93.550781 26.496094 C 110.53125 17.171875 113.503906 1.070312 113.503906 1.070312 L 91.855469 1.070312 C 86.664062 10.589844 74.023438 9.757812 56.832031 19.71875 C 40.554688 29.144531 29.453125 45.988281 26.269531 63.785156 C 23.085938 81.582031 29.390625 114.902344 23.511719 129.675781 C 16.847656 146.425781 0.191406 146.414062 0.164062 146.414062 L 0.164062 170.355469 C 0.191406 170.355469 16.519531 171.828125 27.542969 159.761719 " fill-opacity="1" fill-rule="nonzero"/></g><g clip-path="url(#607c0782ad)"><path fill="#0a6847" d="M 110.320312 26.070312 C 102.710938 33.078125 93.257812 34.765625 92.015625 39.203125 C 90.980469 42.914062 97.050781 47.902344 101.722656 54.671875 C 104.191406 58.246094 112.65625 67.703125 115.097656 89.949219 C 116.984375 107.175781 117.410156 137.097656 125.015625 147.136719 C 126.796875 149.484375 129.558594 151.371094 131.636719 150.5 C 135.46875 148.898438 127.832031 133.171875 124.964844 119.503906 C 122.101562 105.839844 120.828125 84.230469 122.738281 61.347656 C 124.644531 38.464844 134.628906 26.9375 134.726562 1.070312 L 121.78125 1.070312 C 121.78125 1.070312 120.519531 16.675781 110.320312 26.070312 " fill-opacity="1" fill-rule="nonzero"/></g><g clip-path="url(#48ac028bdb)"><path fill="#0a6847" d="M 178.128906 12.125 C 175.324219 12.722656 176.324219 27.574219 170.410156 47.03125 C 166.160156 61.023438 161.828125 72.851562 158.945312 80.777344 C 154.332031 93.449219 150.480469 106.378906 150.730469 122.871094 C 150.96875 138.441406 155.59375 151.195312 157.085938 154.230469 C 158.578125 157.269531 166.574219 174.070312 170.296875 172.519531 C 174.019531 170.96875 159.804688 148.121094 162.296875 115.542969 C 165.414062 74.824219 178.207031 50.871094 181.660156 34.632812 C 185.117188 18.394531 180.632812 11.59375 178.128906 12.125 " fill-opacity="1" fill-rule="nonzero"/></g><g clip-path="url(#faf7a74c74)"><path fill="#0a6847" d="M 185.078125 44.890625 C 173.804688 70.886719 169.695312 104.738281 182.484375 129.675781 C 196.066406 156.15625 218.324219 170.0625 237.453125 170.355469 L 237.457031 170.355469 L 237.457031 146.414062 L 237.453125 146.414062 C 237.425781 146.414062 228.148438 146.859375 219.5 142.164062 C 207.546875 135.667969 195.519531 121.75 189.785156 100.90625 C 179.675781 64.136719 211.429688 30.519531 211.988281 1.070312 L 197.765625 1.070312 C 197.765625 1.070312 198.496094 13.949219 185.078125 44.890625 " fill-opacity="1" fill-rule="nonzero"/></g><g clip-path="url(#510d5eacdc)"><path fill="#0a6847" d="M 186.730469 198.320312 C 161.351562 173.804688 148.277344 154.625 144.886719 137.667969 C 140.613281 116.289062 143.175781 92.347656 158.996094 56.433594 C 165.609375 41.421875 170.140625 28.828125 172.378906 18.988281 C 173.179688 15.472656 173.769531 12.585938 174.152344 9.828125 C 174.855469 4.785156 174.949219 1.070312 174.949219 1.070312 L 163.808594 1.070312 C 162.421875 43.609375 142.328125 71.402344 142.328125 71.402344 C 153.65625 38.480469 153.300781 1.070312 153.300781 1.070312 L 142.15625 1.070312 C 142.753906 45.320312 126.507812 82.089844 132.183594 123.53125 C 137.273438 160.699219 156.898438 178.515625 176.328125 198.742188 C 188.09375 210.992188 193.578125 218.914062 195.984375 225.859375 C 198.265625 232.4375 197.765625 238.363281 197.765625 238.363281 L 211.988281 238.363281 C 212.277344 218.96875 195.167969 206.472656 186.730469 198.320312 " fill-opacity="1" fill-rule="nonzero"/></g><g clip-path="url(#575c0bf021)"><path fill="#0a6847" d="M 60.019531 84.546875 C 46.945312 62.980469 60.019531 51.179688 70.523438 54.671875 C 81.03125 58.167969 91.535156 76.285156 95.355469 90.269531 C 99.179688 104.25 103.316406 133.171875 103.316406 133.171875 C 89.625 109.019531 70.417969 101.707031 60.019531 84.546875 Z M 156.164062 200.226562 C 133.453125 176.8125 121.78125 160.5 115.097656 135.394531 C 108.410156 110.289062 111.273438 82.957031 100.132812 62.9375 C 88.988281 42.914062 60.972656 37.832031 47.601562 51.179688 C 34.230469 64.527344 36.96875 91.644531 59.382812 112.195312 C 86.761719 137.300781 144.386719 174.167969 142.15625 238.363281 L 153.300781 238.363281 C 153.335938 217.089844 146.175781 202.128906 146.175781 202.128906 C 165.167969 216.140625 163.808594 238.363281 163.808594 238.363281 L 174.949219 238.363281 C 174.949219 238.363281 175.996094 220.671875 156.164062 200.226562 " fill-opacity="1" fill-rule="nonzero"/></g></g></g></g></g><g clip-path="url(#f53df96b7f)"><g mask="url(#645fc17046)"><g transform="matrix(1, 0, 0, 1, 273, 742)"><g clip-path="url(#54f2c8d5f5)"><g clip-path="url(#cc1e8d7c87)"><path fill="#0a6847" d="M 219.863281 60.121094 C 224.113281 35.640625 238.054688 20.910156 230.640625 19.070312 C 220.914062 16.65625 188.855469 57.519531 199.433594 93.773438 C 206.992188 119.675781 226 132.3125 237.523438 136 L 237.523438 118.289062 C 232.671875 112.226562 225.300781 102.460938 221.46875 90.539062 C 217.003906 76.652344 219.863281 60.121094 219.863281 60.121094 " fill-opacity="1" fill-rule="nonzero"/></g><g clip-path="url(#1c0d8a48ee)"><path fill="#0a6847" d="M 13.609375 112.515625 C 16.421875 110.394531 11.730469 96.625 11.261719 84.546875 C 10.792969 72.472656 11.625 59.667969 18.402344 47.675781 C 24.03125 37.71875 34.066406 30.78125 45.339844 20.738281 C 56.132812 11.117188 57.523438 1.070312 57.523438 1.070312 L 34.058594 1.070312 C 32.566406 10.957031 30.375 16.890625 15.015625 29.671875 C 11.601562 32.515625 4.898438 37.910156 0.230469 46.929688 L 0.230469 94.757812 C 5.027344 107.097656 11.726562 113.929688 13.609375 112.515625 " fill-opacity="1" fill-rule="nonzero"/></g><g clip-path="url(#10fb6170b6)"><path fill="#0a6847" d="M 27.609375 159.761719 C 40.769531 145.355469 36.3125 119.082031 34.828125 100.226562 C 33.339844 81.371094 33.121094 61.023438 43.105469 50.226562 C 55.839844 36.453125 76.640625 35.820312 93.617188 26.496094 C 110.597656 17.171875 113.570312 1.070312 113.570312 1.070312 L 91.921875 1.070312 C 86.730469 10.589844 74.089844 9.757812 56.898438 19.71875 C 40.621094 29.144531 29.519531 45.988281 26.335938 63.785156 C 23.152344 81.582031 29.457031 114.902344 23.578125 129.675781 C 16.910156 146.425781 0.257812 146.414062 0.230469 146.414062 L 0.230469 170.355469 C 0.257812 170.355469 16.585938 171.828125 27.609375 159.761719 " fill-opacity="1" fill-rule="nonzero"/></g><g clip-path="url(#b3fc70fcb3)"><path fill="#0a6847" d="M 110.386719 26.070312 C 102.777344 33.078125 93.324219 34.765625 92.082031 39.203125 C 91.046875 42.914062 97.117188 47.902344 101.789062 54.671875 C 104.257812 58.246094 112.722656 67.703125 115.160156 89.949219 C 117.050781 107.175781 117.476562 137.097656 125.082031 147.136719 C 126.859375 149.484375 129.625 151.371094 131.703125 150.5 C 135.535156 148.898438 127.898438 133.171875 125.03125 119.503906 C 122.167969 105.839844 120.890625 84.230469 122.800781 61.347656 C 124.710938 38.464844 134.695312 26.9375 134.792969 1.070312 L 121.847656 1.070312 C 121.847656 1.070312 120.585938 16.675781 110.386719 26.070312 " fill-opacity="1" fill-rule="nonzero"/></g><g clip-path="url(#5b1c591fcf)"><path fill="#0a6847" d="M 178.195312 12.125 C 175.390625 12.722656 176.390625 27.574219 170.476562 47.03125 C 166.226562 61.023438 161.894531 72.851562 159.011719 80.777344 C 154.398438 93.449219 150.546875 106.378906 150.796875 122.871094 C 151.035156 138.441406 155.660156 151.195312 157.152344 154.230469 C 158.644531 157.269531 166.640625 174.070312 170.363281 172.519531 C 174.085938 170.96875 159.871094 148.121094 162.363281 115.542969 C 165.480469 74.824219 178.273438 50.871094 181.726562 34.632812 C 185.183594 18.394531 180.699219 11.59375 178.195312 12.125 " fill-opacity="1" fill-rule="nonzero"/></g><g clip-path="url(#b6a21d9dae)"><path fill="#0a6847" d="M 185.144531 44.890625 C 173.871094 70.886719 169.761719 104.738281 182.550781 129.675781 C 196.132812 156.15625 218.390625 170.0625 237.519531 170.355469 L 237.523438 170.355469 L 237.523438 146.414062 L 237.519531 146.414062 C 237.492188 146.414062 228.214844 146.859375 219.566406 142.164062 C 207.613281 135.667969 195.585938 121.75 189.851562 100.90625 C 179.742188 64.136719 211.496094 30.519531 212.054688 1.070312 L 197.832031 1.070312 C 197.832031 1.070312 198.5625 13.949219 185.144531 44.890625 " fill-opacity="1" fill-rule="nonzero"/></g><g clip-path="url(#255bea5b81)"><path fill="#0a6847" d="M 186.796875 198.320312 C 161.417969 173.804688 148.34375 154.625 144.953125 137.667969 C 140.679688 116.289062 143.242188 92.347656 159.0625 56.433594 C 165.675781 41.421875 170.207031 28.828125 172.445312 18.988281 C 173.246094 15.472656 173.835938 12.585938 174.21875 9.828125 C 174.921875 4.785156 175.015625 1.070312 175.015625 1.070312 L 163.875 1.070312 C 162.488281 43.609375 142.390625 71.402344 142.390625 71.402344 C 153.722656 38.480469 153.367188 1.070312 153.367188 1.070312 L 142.222656 1.070312 C 142.820312 45.320312 126.574219 82.089844 132.25 123.53125 C 137.339844 160.699219 156.964844 178.515625 176.394531 198.742188 C 188.160156 210.992188 193.644531 218.914062 196.050781 225.859375 C 198.332031 232.4375 197.832031 238.363281 197.832031 238.363281 L 212.054688 238.363281 C 212.34375 218.96875 195.234375 206.472656 186.796875 198.320312 " fill-opacity="1" fill-rule="nonzero"/></g><g clip-path="url(#fa3eb1021e)"><path fill="#0a6847" d="M 60.085938 84.546875 C 47.011719 62.980469 60.085938 51.179688 70.589844 54.671875 C 81.097656 58.167969 91.601562 76.285156 95.421875 90.269531 C 99.246094 104.25 103.382812 133.171875 103.382812 133.171875 C 89.691406 109.019531 70.484375 101.707031 60.085938 84.546875 Z M 156.230469 200.226562 C 133.519531 176.8125 121.847656 160.5 115.160156 135.394531 C 108.476562 110.289062 111.339844 82.957031 100.199219 62.9375 C 89.054688 42.914062 61.039062 37.832031 47.667969 51.179688 C 34.296875 64.527344 37.035156 91.644531 59.449219 112.195312 C 86.828125 137.300781 144.453125 174.167969 142.222656 238.363281 L 153.367188 238.363281 C 153.402344 217.089844 146.242188 202.128906 146.242188 202.128906 C 165.234375 216.140625 163.875 238.363281 163.875 238.363281 L 175.015625 238.363281 C 175.015625 238.363281 176.0625 220.671875 156.230469 200.226562 " fill-opacity="1" fill-rule="nonzero"/></g></g></g></g></g><g clip-path="url(#3cd46c9074)"><g mask="url(#3e29f9b2d8)"><g transform="matrix(1, 0, 0, 1, 511, 770)"><g clip-path="url(#6e2a8a61e6)"><g clip-path="url(#8d25f08768)"><path fill="#0a6847" d="M 13.507812 112.476562 C 16.320312 110.359375 11.628906 96.585938 11.160156 84.511719 C 10.691406 72.433594 11.523438 59.632812 18.300781 47.640625 C 23.929688 37.679688 33.964844 30.746094 45.238281 20.703125 C 56.03125 11.082031 57.421875 1.035156 57.421875 1.035156 L 33.957031 1.035156 C 32.464844 10.921875 30.273438 16.851562 14.914062 29.636719 C 11.5 32.480469 4.796875 37.871094 0.128906 46.894531 L 0.128906 94.722656 C 4.925781 107.0625 11.625 113.894531 13.507812 112.476562 " fill-opacity="1" fill-rule="nonzero"/><path fill="#0a6847" d="M 27.507812 159.722656 C 40.667969 145.316406 36.210938 119.046875 34.722656 100.1875 C 33.238281 81.332031 33.019531 60.988281 43.003906 50.191406 C 55.738281 36.417969 76.539062 35.78125 93.515625 26.457031 C 110.496094 17.136719 113.46875 1.035156 113.46875 1.035156 L 91.820312 1.035156 C 86.628906 10.554688 73.988281 9.722656 56.796875 19.679688 C 40.519531 29.109375 29.417969 45.953125 26.234375 63.75 C 23.050781 81.546875 29.355469 114.867188 23.476562 129.640625 C 16.808594 146.390625 0.15625 146.378906 0.128906 146.378906 L 0.128906 170.316406 C 0.15625 170.320312 16.484375 171.792969 27.507812 159.722656 " fill-opacity="1" fill-rule="nonzero"/></g></g></g></g></g></svg>